G04 #@! TF.FileFunction,Legend,Bot*
%FSLAX46Y46*%
G04 Gerber Fmt 4.6, Leading zero omitted, Abs format (unit mm)*
G04 Created by KiCad (PCBNEW 4.0.2-stable) date Tuesday, March 29, 2016 'PMt' 06:01:04 PM*
%MOMM*%
G01*
G04 APERTURE LIST*
%ADD10C,0.100000*%
%ADD11C,0.150000*%
G04 APERTURE END LIST*
D10*
D11*
X90620000Y-115890000D02*
X90620000Y-120290000D01*
X85170000Y-114315000D02*
X85170000Y-120290000D01*
X90620000Y-39690000D02*
X90620000Y-44090000D01*
X85170000Y-38115000D02*
X85170000Y-44090000D01*
X115835000Y-124313000D02*
G75*
G03X117359000Y-124313000I762000J762000D01*
G01*
X115708000Y-124821000D02*
G75*
G03X117994000Y-124313000I889000J1397000D01*
G01*
X115708000Y-124440000D02*
X115708000Y-124313000D01*
X115708000Y-124821000D02*
X115708000Y-124440000D01*
X117359000Y-122027000D02*
G75*
G03X115835000Y-122027000I-762000J-762000D01*
G01*
X117994000Y-122027000D02*
G75*
G03X115708000Y-121519000I-1397000J-889000D01*
G01*
X115708000Y-121519000D02*
X115708000Y-122027000D01*
X115835000Y-86213000D02*
G75*
G03X117359000Y-86213000I762000J762000D01*
G01*
X115708000Y-86721000D02*
G75*
G03X117994000Y-86213000I889000J1397000D01*
G01*
X115708000Y-86340000D02*
X115708000Y-86213000D01*
X115708000Y-86721000D02*
X115708000Y-86340000D01*
X117359000Y-83927000D02*
G75*
G03X115835000Y-83927000I-762000J-762000D01*
G01*
X117994000Y-83927000D02*
G75*
G03X115708000Y-83419000I-1397000J-889000D01*
G01*
X115708000Y-83419000D02*
X115708000Y-83927000D01*
X96785000Y-114788000D02*
G75*
G03X98309000Y-114788000I762000J762000D01*
G01*
X96658000Y-115296000D02*
G75*
G03X98944000Y-114788000I889000J1397000D01*
G01*
X96658000Y-114915000D02*
X96658000Y-114788000D01*
X96658000Y-115296000D02*
X96658000Y-114915000D01*
X98309000Y-112502000D02*
G75*
G03X96785000Y-112502000I-762000J-762000D01*
G01*
X98944000Y-112502000D02*
G75*
G03X96658000Y-111994000I-1397000J-889000D01*
G01*
X96658000Y-111994000D02*
X96658000Y-112502000D01*
X96785000Y-133838000D02*
G75*
G03X98309000Y-133838000I762000J762000D01*
G01*
X96658000Y-134346000D02*
G75*
G03X98944000Y-133838000I889000J1397000D01*
G01*
X96658000Y-133965000D02*
X96658000Y-133838000D01*
X96658000Y-134346000D02*
X96658000Y-133965000D01*
X98309000Y-131552000D02*
G75*
G03X96785000Y-131552000I-762000J-762000D01*
G01*
X98944000Y-131552000D02*
G75*
G03X96658000Y-131044000I-1397000J-889000D01*
G01*
X96658000Y-131044000D02*
X96658000Y-131552000D01*
X77735000Y-114788000D02*
G75*
G03X79259000Y-114788000I762000J762000D01*
G01*
X77608000Y-115296000D02*
G75*
G03X79894000Y-114788000I889000J1397000D01*
G01*
X77608000Y-114915000D02*
X77608000Y-114788000D01*
X77608000Y-115296000D02*
X77608000Y-114915000D01*
X79259000Y-112502000D02*
G75*
G03X77735000Y-112502000I-762000J-762000D01*
G01*
X79894000Y-112502000D02*
G75*
G03X77608000Y-111994000I-1397000J-889000D01*
G01*
X77608000Y-111994000D02*
X77608000Y-112502000D01*
X58685000Y-114788000D02*
G75*
G03X60209000Y-114788000I762000J762000D01*
G01*
X58558000Y-115296000D02*
G75*
G03X60844000Y-114788000I889000J1397000D01*
G01*
X58558000Y-114915000D02*
X58558000Y-114788000D01*
X58558000Y-115296000D02*
X58558000Y-114915000D01*
X60209000Y-112502000D02*
G75*
G03X58685000Y-112502000I-762000J-762000D01*
G01*
X60844000Y-112502000D02*
G75*
G03X58558000Y-111994000I-1397000J-889000D01*
G01*
X58558000Y-111994000D02*
X58558000Y-112502000D01*
X96785000Y-95738000D02*
G75*
G03X98309000Y-95738000I762000J762000D01*
G01*
X96658000Y-96246000D02*
G75*
G03X98944000Y-95738000I889000J1397000D01*
G01*
X96658000Y-95865000D02*
X96658000Y-95738000D01*
X96658000Y-96246000D02*
X96658000Y-95865000D01*
X98309000Y-93452000D02*
G75*
G03X96785000Y-93452000I-762000J-762000D01*
G01*
X98944000Y-93452000D02*
G75*
G03X96658000Y-92944000I-1397000J-889000D01*
G01*
X96658000Y-92944000D02*
X96658000Y-93452000D01*
X77735000Y-95738000D02*
G75*
G03X79259000Y-95738000I762000J762000D01*
G01*
X77608000Y-96246000D02*
G75*
G03X79894000Y-95738000I889000J1397000D01*
G01*
X77608000Y-95865000D02*
X77608000Y-95738000D01*
X77608000Y-96246000D02*
X77608000Y-95865000D01*
X79259000Y-93452000D02*
G75*
G03X77735000Y-93452000I-762000J-762000D01*
G01*
X79894000Y-93452000D02*
G75*
G03X77608000Y-92944000I-1397000J-889000D01*
G01*
X77608000Y-92944000D02*
X77608000Y-93452000D01*
X58685000Y-95738000D02*
G75*
G03X60209000Y-95738000I762000J762000D01*
G01*
X58558000Y-96246000D02*
G75*
G03X60844000Y-95738000I889000J1397000D01*
G01*
X58558000Y-95865000D02*
X58558000Y-95738000D01*
X58558000Y-96246000D02*
X58558000Y-95865000D01*
X60209000Y-93452000D02*
G75*
G03X58685000Y-93452000I-762000J-762000D01*
G01*
X60844000Y-93452000D02*
G75*
G03X58558000Y-92944000I-1397000J-889000D01*
G01*
X58558000Y-92944000D02*
X58558000Y-93452000D01*
X96785000Y-76688000D02*
G75*
G03X98309000Y-76688000I762000J762000D01*
G01*
X96658000Y-77196000D02*
G75*
G03X98944000Y-76688000I889000J1397000D01*
G01*
X96658000Y-76815000D02*
X96658000Y-76688000D01*
X96658000Y-77196000D02*
X96658000Y-76815000D01*
X98309000Y-74402000D02*
G75*
G03X96785000Y-74402000I-762000J-762000D01*
G01*
X98944000Y-74402000D02*
G75*
G03X96658000Y-73894000I-1397000J-889000D01*
G01*
X96658000Y-73894000D02*
X96658000Y-74402000D01*
X77735000Y-76688000D02*
G75*
G03X79259000Y-76688000I762000J762000D01*
G01*
X77608000Y-77196000D02*
G75*
G03X79894000Y-76688000I889000J1397000D01*
G01*
X77608000Y-76815000D02*
X77608000Y-76688000D01*
X77608000Y-77196000D02*
X77608000Y-76815000D01*
X79259000Y-74402000D02*
G75*
G03X77735000Y-74402000I-762000J-762000D01*
G01*
X79894000Y-74402000D02*
G75*
G03X77608000Y-73894000I-1397000J-889000D01*
G01*
X77608000Y-73894000D02*
X77608000Y-74402000D01*
X58685000Y-76688000D02*
G75*
G03X60209000Y-76688000I762000J762000D01*
G01*
X58558000Y-77196000D02*
G75*
G03X60844000Y-76688000I889000J1397000D01*
G01*
X58558000Y-76815000D02*
X58558000Y-76688000D01*
X58558000Y-77196000D02*
X58558000Y-76815000D01*
X60209000Y-74402000D02*
G75*
G03X58685000Y-74402000I-762000J-762000D01*
G01*
X60844000Y-74402000D02*
G75*
G03X58558000Y-73894000I-1397000J-889000D01*
G01*
X58558000Y-73894000D02*
X58558000Y-74402000D01*
X115835000Y-57638000D02*
G75*
G03X117359000Y-57638000I762000J762000D01*
G01*
X115708000Y-58146000D02*
G75*
G03X117994000Y-57638000I889000J1397000D01*
G01*
X115708000Y-57765000D02*
X115708000Y-57638000D01*
X115708000Y-58146000D02*
X115708000Y-57765000D01*
X117359000Y-55352000D02*
G75*
G03X115835000Y-55352000I-762000J-762000D01*
G01*
X117994000Y-55352000D02*
G75*
G03X115708000Y-54844000I-1397000J-889000D01*
G01*
X115708000Y-54844000D02*
X115708000Y-55352000D01*
X96785000Y-57638000D02*
G75*
G03X98309000Y-57638000I762000J762000D01*
G01*
X96658000Y-58146000D02*
G75*
G03X98944000Y-57638000I889000J1397000D01*
G01*
X96658000Y-57765000D02*
X96658000Y-57638000D01*
X96658000Y-58146000D02*
X96658000Y-57765000D01*
X98309000Y-55352000D02*
G75*
G03X96785000Y-55352000I-762000J-762000D01*
G01*
X98944000Y-55352000D02*
G75*
G03X96658000Y-54844000I-1397000J-889000D01*
G01*
X96658000Y-54844000D02*
X96658000Y-55352000D01*
X58685000Y-57638000D02*
G75*
G03X60209000Y-57638000I762000J762000D01*
G01*
X58558000Y-58146000D02*
G75*
G03X60844000Y-57638000I889000J1397000D01*
G01*
X58558000Y-57765000D02*
X58558000Y-57638000D01*
X58558000Y-58146000D02*
X58558000Y-57765000D01*
X60209000Y-55352000D02*
G75*
G03X58685000Y-55352000I-762000J-762000D01*
G01*
X60844000Y-55352000D02*
G75*
G03X58558000Y-54844000I-1397000J-889000D01*
G01*
X58558000Y-54844000D02*
X58558000Y-55352000D01*
X115835000Y-38588000D02*
G75*
G03X117359000Y-38588000I762000J762000D01*
G01*
X115708000Y-39096000D02*
G75*
G03X117994000Y-38588000I889000J1397000D01*
G01*
X115708000Y-38715000D02*
X115708000Y-38588000D01*
X115708000Y-39096000D02*
X115708000Y-38715000D01*
X117359000Y-36302000D02*
G75*
G03X115835000Y-36302000I-762000J-762000D01*
G01*
X117994000Y-36302000D02*
G75*
G03X115708000Y-35794000I-1397000J-889000D01*
G01*
X115708000Y-35794000D02*
X115708000Y-36302000D01*
X96785000Y-38588000D02*
G75*
G03X98309000Y-38588000I762000J762000D01*
G01*
X96658000Y-39096000D02*
G75*
G03X98944000Y-38588000I889000J1397000D01*
G01*
X96658000Y-38715000D02*
X96658000Y-38588000D01*
X96658000Y-39096000D02*
X96658000Y-38715000D01*
X98309000Y-36302000D02*
G75*
G03X96785000Y-36302000I-762000J-762000D01*
G01*
X98944000Y-36302000D02*
G75*
G03X96658000Y-35794000I-1397000J-889000D01*
G01*
X96658000Y-35794000D02*
X96658000Y-36302000D01*
X77735000Y-38588000D02*
G75*
G03X79259000Y-38588000I762000J762000D01*
G01*
X77608000Y-39096000D02*
G75*
G03X79894000Y-38588000I889000J1397000D01*
G01*
X77608000Y-38715000D02*
X77608000Y-38588000D01*
X77608000Y-39096000D02*
X77608000Y-38715000D01*
X79259000Y-36302000D02*
G75*
G03X77735000Y-36302000I-762000J-762000D01*
G01*
X79894000Y-36302000D02*
G75*
G03X77608000Y-35794000I-1397000J-889000D01*
G01*
X77608000Y-35794000D02*
X77608000Y-36302000D01*
X58685000Y-38588000D02*
G75*
G03X60209000Y-38588000I762000J762000D01*
G01*
X58558000Y-39096000D02*
G75*
G03X60844000Y-38588000I889000J1397000D01*
G01*
X58558000Y-38715000D02*
X58558000Y-38588000D01*
X58558000Y-39096000D02*
X58558000Y-38715000D01*
X60209000Y-36302000D02*
G75*
G03X58685000Y-36302000I-762000J-762000D01*
G01*
X60844000Y-36302000D02*
G75*
G03X58558000Y-35794000I-1397000J-889000D01*
G01*
X58558000Y-35794000D02*
X58558000Y-36302000D01*
X77735000Y-57638000D02*
G75*
G03X79259000Y-57638000I762000J762000D01*
G01*
X77608000Y-58146000D02*
G75*
G03X79894000Y-57638000I889000J1397000D01*
G01*
X77608000Y-57765000D02*
X77608000Y-57638000D01*
X77608000Y-58146000D02*
X77608000Y-57765000D01*
X79259000Y-55352000D02*
G75*
G03X77735000Y-55352000I-762000J-762000D01*
G01*
X79894000Y-55352000D02*
G75*
G03X77608000Y-54844000I-1397000J-889000D01*
G01*
X77608000Y-54844000D02*
X77608000Y-55352000D01*
X68210000Y-133838000D02*
G75*
G03X69734000Y-133838000I762000J762000D01*
G01*
X68083000Y-134346000D02*
G75*
G03X70369000Y-133838000I889000J1397000D01*
G01*
X68083000Y-133965000D02*
X68083000Y-133838000D01*
X68083000Y-134346000D02*
X68083000Y-133965000D01*
X69734000Y-131552000D02*
G75*
G03X68210000Y-131552000I-762000J-762000D01*
G01*
X70369000Y-131552000D02*
G75*
G03X68083000Y-131044000I-1397000J-889000D01*
G01*
X68083000Y-131044000D02*
X68083000Y-131552000D01*
X64289000Y-38520000D02*
X66289000Y-38520000D01*
X66289000Y-36370000D02*
X64289000Y-36370000D01*
X73274000Y-36370000D02*
X71274000Y-36370000D01*
X71274000Y-38520000D02*
X73274000Y-38520000D01*
X105945000Y-31281000D02*
X107945000Y-31281000D01*
X107945000Y-29131000D02*
X105945000Y-29131000D01*
X107945000Y-26337000D02*
X105945000Y-26337000D01*
X105945000Y-28487000D02*
X107945000Y-28487000D01*
X64416000Y-57570000D02*
X66416000Y-57570000D01*
X66416000Y-55420000D02*
X64416000Y-55420000D01*
X73401000Y-55420000D02*
X71401000Y-55420000D01*
X71401000Y-57570000D02*
X73401000Y-57570000D01*
X102516000Y-57570000D02*
X104516000Y-57570000D01*
X104516000Y-55420000D02*
X102516000Y-55420000D01*
X111374000Y-55420000D02*
X109374000Y-55420000D01*
X109374000Y-57570000D02*
X111374000Y-57570000D01*
X64416000Y-76620000D02*
X66416000Y-76620000D01*
X66416000Y-74470000D02*
X64416000Y-74470000D01*
X73274000Y-74470000D02*
X71274000Y-74470000D01*
X71274000Y-76620000D02*
X73274000Y-76620000D01*
X102389000Y-76620000D02*
X104389000Y-76620000D01*
X104389000Y-74470000D02*
X102389000Y-74470000D01*
X64289000Y-95670000D02*
X66289000Y-95670000D01*
X66289000Y-93520000D02*
X64289000Y-93520000D01*
X73274000Y-93520000D02*
X71274000Y-93520000D01*
X71274000Y-95670000D02*
X73274000Y-95670000D01*
X106707000Y-98718000D02*
X108707000Y-98718000D01*
X108707000Y-96568000D02*
X106707000Y-96568000D01*
X116200000Y-96568000D02*
X114200000Y-96568000D01*
X114200000Y-98718000D02*
X116200000Y-98718000D01*
X64289000Y-114720000D02*
X66289000Y-114720000D01*
X66289000Y-112570000D02*
X64289000Y-112570000D01*
X73274000Y-112570000D02*
X71274000Y-112570000D01*
X71274000Y-114720000D02*
X73274000Y-114720000D01*
X106707000Y-101512000D02*
X108707000Y-101512000D01*
X108707000Y-99362000D02*
X106707000Y-99362000D01*
X79656000Y-129325000D02*
X81656000Y-129325000D01*
X81656000Y-127175000D02*
X79656000Y-127175000D01*
X88641000Y-127175000D02*
X86641000Y-127175000D01*
X86641000Y-129325000D02*
X88641000Y-129325000D01*
X116200000Y-99362000D02*
X114200000Y-99362000D01*
X114200000Y-101512000D02*
X116200000Y-101512000D01*
X90620000Y-77790000D02*
X90620000Y-82190000D01*
X85170000Y-76215000D02*
X85170000Y-82190000D01*
X120915000Y-24110000D02*
X90435000Y-24110000D01*
X90435000Y-24110000D02*
X90435000Y-34270000D01*
X90435000Y-34270000D02*
X120915000Y-34270000D01*
X120915000Y-34270000D02*
X120915000Y-24110000D01*
X84812000Y-38430000D02*
X84812000Y-37730000D01*
X83612000Y-37730000D02*
X83612000Y-38430000D01*
X84685000Y-76530000D02*
X84685000Y-75830000D01*
X83485000Y-75830000D02*
X83485000Y-76530000D01*
X84685000Y-114503000D02*
X84685000Y-113803000D01*
X83485000Y-113803000D02*
X83485000Y-114503000D01*
X84719905Y-116526381D02*
X84719905Y-117335905D01*
X84672286Y-117431143D01*
X84624667Y-117478762D01*
X84529429Y-117526381D01*
X84338952Y-117526381D01*
X84243714Y-117478762D01*
X84196095Y-117431143D01*
X84148476Y-117335905D01*
X84148476Y-116526381D01*
X83243714Y-116859714D02*
X83243714Y-117526381D01*
X83481810Y-116478762D02*
X83719905Y-117193048D01*
X83100857Y-117193048D01*
X84719905Y-40580381D02*
X84719905Y-41389905D01*
X84672286Y-41485143D01*
X84624667Y-41532762D01*
X84529429Y-41580381D01*
X84338952Y-41580381D01*
X84243714Y-41532762D01*
X84196095Y-41485143D01*
X84148476Y-41389905D01*
X84148476Y-40580381D01*
X83719905Y-40675619D02*
X83672286Y-40628000D01*
X83577048Y-40580381D01*
X83338952Y-40580381D01*
X83243714Y-40628000D01*
X83196095Y-40675619D01*
X83148476Y-40770857D01*
X83148476Y-40866095D01*
X83196095Y-41008952D01*
X83767524Y-41580381D01*
X83148476Y-41580381D01*
X119502095Y-123336667D02*
X119025904Y-123336667D01*
X119597333Y-123622381D02*
X119264000Y-122622381D01*
X118930666Y-123622381D01*
X113937905Y-123622381D02*
X113937905Y-122622381D01*
X113366476Y-123622381D02*
X113795048Y-123050952D01*
X113366476Y-122622381D02*
X113937905Y-123193810D01*
X119502095Y-85236667D02*
X119025904Y-85236667D01*
X119597333Y-85522381D02*
X119264000Y-84522381D01*
X118930666Y-85522381D01*
X113937905Y-85522381D02*
X113937905Y-84522381D01*
X113366476Y-85522381D02*
X113795048Y-84950952D01*
X113366476Y-84522381D02*
X113937905Y-85093810D01*
X100452095Y-113811667D02*
X99975904Y-113811667D01*
X100547333Y-114097381D02*
X100214000Y-113097381D01*
X99880666Y-114097381D01*
X94887905Y-114097381D02*
X94887905Y-113097381D01*
X94316476Y-114097381D02*
X94745048Y-113525952D01*
X94316476Y-113097381D02*
X94887905Y-113668810D01*
X100452095Y-132861667D02*
X99975904Y-132861667D01*
X100547333Y-133147381D02*
X100214000Y-132147381D01*
X99880666Y-133147381D01*
X94887905Y-133147381D02*
X94887905Y-132147381D01*
X94316476Y-133147381D02*
X94745048Y-132575952D01*
X94316476Y-132147381D02*
X94887905Y-132718810D01*
X81402095Y-113811667D02*
X80925904Y-113811667D01*
X81497333Y-114097381D02*
X81164000Y-113097381D01*
X80830666Y-114097381D01*
X76345905Y-112192381D02*
X76345905Y-111192381D01*
X75774476Y-112192381D02*
X76203048Y-111620952D01*
X75774476Y-111192381D02*
X76345905Y-111763810D01*
X61844095Y-111906667D02*
X61367904Y-111906667D01*
X61939333Y-112192381D02*
X61606000Y-111192381D01*
X61272666Y-112192381D01*
X56787905Y-114097381D02*
X56787905Y-113097381D01*
X56216476Y-114097381D02*
X56645048Y-113525952D01*
X56216476Y-113097381D02*
X56787905Y-113668810D01*
X100452095Y-94761667D02*
X99975904Y-94761667D01*
X100547333Y-95047381D02*
X100214000Y-94047381D01*
X99880666Y-95047381D01*
X94887905Y-95047381D02*
X94887905Y-94047381D01*
X94316476Y-95047381D02*
X94745048Y-94475952D01*
X94316476Y-94047381D02*
X94887905Y-94618810D01*
X81402095Y-94761667D02*
X80925904Y-94761667D01*
X81497333Y-95047381D02*
X81164000Y-94047381D01*
X80830666Y-95047381D01*
X77107905Y-93142381D02*
X77107905Y-92142381D01*
X76536476Y-93142381D02*
X76965048Y-92570952D01*
X76536476Y-92142381D02*
X77107905Y-92713810D01*
X61844095Y-93110667D02*
X61367904Y-93110667D01*
X61939333Y-93396381D02*
X61606000Y-92396381D01*
X61272666Y-93396381D01*
X56787905Y-95047381D02*
X56787905Y-94047381D01*
X56216476Y-95047381D02*
X56645048Y-94475952D01*
X56216476Y-94047381D02*
X56787905Y-94618810D01*
X99944095Y-74060667D02*
X99467904Y-74060667D01*
X100039333Y-74346381D02*
X99706000Y-73346381D01*
X99372666Y-74346381D01*
X94887905Y-75997381D02*
X94887905Y-74997381D01*
X94316476Y-75997381D02*
X94745048Y-75425952D01*
X94316476Y-74997381D02*
X94887905Y-75568810D01*
X81402095Y-75711667D02*
X80925904Y-75711667D01*
X81497333Y-75997381D02*
X81164000Y-74997381D01*
X80830666Y-75997381D01*
X76345905Y-74092381D02*
X76345905Y-73092381D01*
X75774476Y-74092381D02*
X76203048Y-73520952D01*
X75774476Y-73092381D02*
X76345905Y-73663810D01*
X62098095Y-74060667D02*
X61621904Y-74060667D01*
X62193333Y-74346381D02*
X61860000Y-73346381D01*
X61526666Y-74346381D01*
X56787905Y-75997381D02*
X56787905Y-74997381D01*
X56216476Y-75997381D02*
X56645048Y-75425952D01*
X56216476Y-74997381D02*
X56787905Y-75568810D01*
X119502095Y-56661667D02*
X119025904Y-56661667D01*
X119597333Y-56947381D02*
X119264000Y-55947381D01*
X118930666Y-56947381D01*
X114699905Y-55042381D02*
X114699905Y-54042381D01*
X114128476Y-55042381D02*
X114557048Y-54470952D01*
X114128476Y-54042381D02*
X114699905Y-54613810D01*
X99944095Y-55010667D02*
X99467904Y-55010667D01*
X100039333Y-55296381D02*
X99706000Y-54296381D01*
X99372666Y-55296381D01*
X94887905Y-56947381D02*
X94887905Y-55947381D01*
X94316476Y-56947381D02*
X94745048Y-56375952D01*
X94316476Y-55947381D02*
X94887905Y-56518810D01*
X61844095Y-55010667D02*
X61367904Y-55010667D01*
X61939333Y-55296381D02*
X61606000Y-54296381D01*
X61272666Y-55296381D01*
X56787905Y-56947381D02*
X56787905Y-55947381D01*
X56216476Y-56947381D02*
X56645048Y-56375952D01*
X56216476Y-55947381D02*
X56787905Y-56518810D01*
X119502095Y-37611667D02*
X119025904Y-37611667D01*
X119597333Y-37897381D02*
X119264000Y-36897381D01*
X118930666Y-37897381D01*
X113937905Y-37897381D02*
X113937905Y-36897381D01*
X113366476Y-37897381D02*
X113795048Y-37325952D01*
X113366476Y-36897381D02*
X113937905Y-37468810D01*
X100452095Y-37611667D02*
X99975904Y-37611667D01*
X100547333Y-37897381D02*
X100214000Y-36897381D01*
X99880666Y-37897381D01*
X94887905Y-37897381D02*
X94887905Y-36897381D01*
X94316476Y-37897381D02*
X94745048Y-37325952D01*
X94316476Y-36897381D02*
X94887905Y-37468810D01*
X81402095Y-37611667D02*
X80925904Y-37611667D01*
X81497333Y-37897381D02*
X81164000Y-36897381D01*
X80830666Y-37897381D01*
X76345905Y-35992381D02*
X76345905Y-34992381D01*
X75774476Y-35992381D02*
X76203048Y-35420952D01*
X75774476Y-34992381D02*
X76345905Y-35563810D01*
X61844095Y-35960667D02*
X61367904Y-35960667D01*
X61939333Y-36246381D02*
X61606000Y-35246381D01*
X61272666Y-36246381D01*
X56787905Y-37897381D02*
X56787905Y-36897381D01*
X56216476Y-37897381D02*
X56645048Y-37325952D01*
X56216476Y-36897381D02*
X56787905Y-37468810D01*
X81402095Y-56661667D02*
X80925904Y-56661667D01*
X81497333Y-56947381D02*
X81164000Y-55947381D01*
X80830666Y-56947381D01*
X76345905Y-55042381D02*
X76345905Y-54042381D01*
X75774476Y-55042381D02*
X76203048Y-54470952D01*
X75774476Y-54042381D02*
X76345905Y-54613810D01*
X71877095Y-132861667D02*
X71400904Y-132861667D01*
X71972333Y-133147381D02*
X71639000Y-132147381D01*
X71305666Y-133147381D01*
X66312905Y-133147381D02*
X66312905Y-132147381D01*
X65741476Y-133147381D02*
X66170048Y-132575952D01*
X65741476Y-132147381D02*
X66312905Y-132718810D01*
X65328666Y-35992381D02*
X65662000Y-35516190D01*
X65900095Y-35992381D02*
X65900095Y-34992381D01*
X65519142Y-34992381D01*
X65423904Y-35040000D01*
X65376285Y-35087619D01*
X65328666Y-35182857D01*
X65328666Y-35325714D01*
X65376285Y-35420952D01*
X65423904Y-35468571D01*
X65519142Y-35516190D01*
X65900095Y-35516190D01*
X64376285Y-35992381D02*
X64947714Y-35992381D01*
X64662000Y-35992381D02*
X64662000Y-34992381D01*
X64757238Y-35135238D01*
X64852476Y-35230476D01*
X64947714Y-35278095D01*
X72186666Y-35992381D02*
X72520000Y-35516190D01*
X72758095Y-35992381D02*
X72758095Y-34992381D01*
X72377142Y-34992381D01*
X72281904Y-35040000D01*
X72234285Y-35087619D01*
X72186666Y-35182857D01*
X72186666Y-35325714D01*
X72234285Y-35420952D01*
X72281904Y-35468571D01*
X72377142Y-35516190D01*
X72758095Y-35516190D01*
X71805714Y-35087619D02*
X71758095Y-35040000D01*
X71662857Y-34992381D01*
X71424761Y-34992381D01*
X71329523Y-35040000D01*
X71281904Y-35087619D01*
X71234285Y-35182857D01*
X71234285Y-35278095D01*
X71281904Y-35420952D01*
X71853333Y-35992381D01*
X71234285Y-35992381D01*
X102920666Y-27864381D02*
X103254000Y-27388190D01*
X103492095Y-27864381D02*
X103492095Y-26864381D01*
X103111142Y-26864381D01*
X103015904Y-26912000D01*
X102968285Y-26959619D01*
X102920666Y-27054857D01*
X102920666Y-27197714D01*
X102968285Y-27292952D01*
X103015904Y-27340571D01*
X103111142Y-27388190D01*
X103492095Y-27388190D01*
X102587333Y-26864381D02*
X101968285Y-26864381D01*
X102301619Y-27245333D01*
X102158761Y-27245333D01*
X102063523Y-27292952D01*
X102015904Y-27340571D01*
X101968285Y-27435810D01*
X101968285Y-27673905D01*
X102015904Y-27769143D01*
X102063523Y-27816762D01*
X102158761Y-27864381D01*
X102444476Y-27864381D01*
X102539714Y-27816762D01*
X102587333Y-27769143D01*
X102920666Y-30658381D02*
X103254000Y-30182190D01*
X103492095Y-30658381D02*
X103492095Y-29658381D01*
X103111142Y-29658381D01*
X103015904Y-29706000D01*
X102968285Y-29753619D01*
X102920666Y-29848857D01*
X102920666Y-29991714D01*
X102968285Y-30086952D01*
X103015904Y-30134571D01*
X103111142Y-30182190D01*
X103492095Y-30182190D01*
X102063523Y-29991714D02*
X102063523Y-30658381D01*
X102301619Y-29610762D02*
X102539714Y-30325048D01*
X101920666Y-30325048D01*
X65582666Y-55042381D02*
X65916000Y-54566190D01*
X66154095Y-55042381D02*
X66154095Y-54042381D01*
X65773142Y-54042381D01*
X65677904Y-54090000D01*
X65630285Y-54137619D01*
X65582666Y-54232857D01*
X65582666Y-54375714D01*
X65630285Y-54470952D01*
X65677904Y-54518571D01*
X65773142Y-54566190D01*
X66154095Y-54566190D01*
X64677904Y-54042381D02*
X65154095Y-54042381D01*
X65201714Y-54518571D01*
X65154095Y-54470952D01*
X65058857Y-54423333D01*
X64820761Y-54423333D01*
X64725523Y-54470952D01*
X64677904Y-54518571D01*
X64630285Y-54613810D01*
X64630285Y-54851905D01*
X64677904Y-54947143D01*
X64725523Y-54994762D01*
X64820761Y-55042381D01*
X65058857Y-55042381D01*
X65154095Y-54994762D01*
X65201714Y-54947143D01*
X72694666Y-55042381D02*
X73028000Y-54566190D01*
X73266095Y-55042381D02*
X73266095Y-54042381D01*
X72885142Y-54042381D01*
X72789904Y-54090000D01*
X72742285Y-54137619D01*
X72694666Y-54232857D01*
X72694666Y-54375714D01*
X72742285Y-54470952D01*
X72789904Y-54518571D01*
X72885142Y-54566190D01*
X73266095Y-54566190D01*
X71837523Y-54042381D02*
X72028000Y-54042381D01*
X72123238Y-54090000D01*
X72170857Y-54137619D01*
X72266095Y-54280476D01*
X72313714Y-54470952D01*
X72313714Y-54851905D01*
X72266095Y-54947143D01*
X72218476Y-54994762D01*
X72123238Y-55042381D01*
X71932761Y-55042381D01*
X71837523Y-54994762D01*
X71789904Y-54947143D01*
X71742285Y-54851905D01*
X71742285Y-54613810D01*
X71789904Y-54518571D01*
X71837523Y-54470952D01*
X71932761Y-54423333D01*
X72123238Y-54423333D01*
X72218476Y-54470952D01*
X72266095Y-54518571D01*
X72313714Y-54613810D01*
X103682666Y-55042381D02*
X104016000Y-54566190D01*
X104254095Y-55042381D02*
X104254095Y-54042381D01*
X103873142Y-54042381D01*
X103777904Y-54090000D01*
X103730285Y-54137619D01*
X103682666Y-54232857D01*
X103682666Y-54375714D01*
X103730285Y-54470952D01*
X103777904Y-54518571D01*
X103873142Y-54566190D01*
X104254095Y-54566190D01*
X103349333Y-54042381D02*
X102682666Y-54042381D01*
X103111238Y-55042381D01*
X110540666Y-55042381D02*
X110874000Y-54566190D01*
X111112095Y-55042381D02*
X111112095Y-54042381D01*
X110731142Y-54042381D01*
X110635904Y-54090000D01*
X110588285Y-54137619D01*
X110540666Y-54232857D01*
X110540666Y-54375714D01*
X110588285Y-54470952D01*
X110635904Y-54518571D01*
X110731142Y-54566190D01*
X111112095Y-54566190D01*
X109969238Y-54470952D02*
X110064476Y-54423333D01*
X110112095Y-54375714D01*
X110159714Y-54280476D01*
X110159714Y-54232857D01*
X110112095Y-54137619D01*
X110064476Y-54090000D01*
X109969238Y-54042381D01*
X109778761Y-54042381D01*
X109683523Y-54090000D01*
X109635904Y-54137619D01*
X109588285Y-54232857D01*
X109588285Y-54280476D01*
X109635904Y-54375714D01*
X109683523Y-54423333D01*
X109778761Y-54470952D01*
X109969238Y-54470952D01*
X110064476Y-54518571D01*
X110112095Y-54566190D01*
X110159714Y-54661429D01*
X110159714Y-54851905D01*
X110112095Y-54947143D01*
X110064476Y-54994762D01*
X109969238Y-55042381D01*
X109778761Y-55042381D01*
X109683523Y-54994762D01*
X109635904Y-54947143D01*
X109588285Y-54851905D01*
X109588285Y-54661429D01*
X109635904Y-54566190D01*
X109683523Y-54518571D01*
X109778761Y-54470952D01*
X65582666Y-74092381D02*
X65916000Y-73616190D01*
X66154095Y-74092381D02*
X66154095Y-73092381D01*
X65773142Y-73092381D01*
X65677904Y-73140000D01*
X65630285Y-73187619D01*
X65582666Y-73282857D01*
X65582666Y-73425714D01*
X65630285Y-73520952D01*
X65677904Y-73568571D01*
X65773142Y-73616190D01*
X66154095Y-73616190D01*
X65106476Y-74092381D02*
X64916000Y-74092381D01*
X64820761Y-74044762D01*
X64773142Y-73997143D01*
X64677904Y-73854286D01*
X64630285Y-73663810D01*
X64630285Y-73282857D01*
X64677904Y-73187619D01*
X64725523Y-73140000D01*
X64820761Y-73092381D01*
X65011238Y-73092381D01*
X65106476Y-73140000D01*
X65154095Y-73187619D01*
X65201714Y-73282857D01*
X65201714Y-73520952D01*
X65154095Y-73616190D01*
X65106476Y-73663810D01*
X65011238Y-73711429D01*
X64820761Y-73711429D01*
X64725523Y-73663810D01*
X64677904Y-73616190D01*
X64630285Y-73520952D01*
X72662857Y-74092381D02*
X72996191Y-73616190D01*
X73234286Y-74092381D02*
X73234286Y-73092381D01*
X72853333Y-73092381D01*
X72758095Y-73140000D01*
X72710476Y-73187619D01*
X72662857Y-73282857D01*
X72662857Y-73425714D01*
X72710476Y-73520952D01*
X72758095Y-73568571D01*
X72853333Y-73616190D01*
X73234286Y-73616190D01*
X71710476Y-74092381D02*
X72281905Y-74092381D01*
X71996191Y-74092381D02*
X71996191Y-73092381D01*
X72091429Y-73235238D01*
X72186667Y-73330476D01*
X72281905Y-73378095D01*
X71091429Y-73092381D02*
X70996190Y-73092381D01*
X70900952Y-73140000D01*
X70853333Y-73187619D01*
X70805714Y-73282857D01*
X70758095Y-73473333D01*
X70758095Y-73711429D01*
X70805714Y-73901905D01*
X70853333Y-73997143D01*
X70900952Y-74044762D01*
X70996190Y-74092381D01*
X71091429Y-74092381D01*
X71186667Y-74044762D01*
X71234286Y-73997143D01*
X71281905Y-73901905D01*
X71329524Y-73711429D01*
X71329524Y-73473333D01*
X71281905Y-73282857D01*
X71234286Y-73187619D01*
X71186667Y-73140000D01*
X71091429Y-73092381D01*
X103904857Y-74092381D02*
X104238191Y-73616190D01*
X104476286Y-74092381D02*
X104476286Y-73092381D01*
X104095333Y-73092381D01*
X104000095Y-73140000D01*
X103952476Y-73187619D01*
X103904857Y-73282857D01*
X103904857Y-73425714D01*
X103952476Y-73520952D01*
X104000095Y-73568571D01*
X104095333Y-73616190D01*
X104476286Y-73616190D01*
X102952476Y-74092381D02*
X103523905Y-74092381D01*
X103238191Y-74092381D02*
X103238191Y-73092381D01*
X103333429Y-73235238D01*
X103428667Y-73330476D01*
X103523905Y-73378095D01*
X102000095Y-74092381D02*
X102571524Y-74092381D01*
X102285810Y-74092381D02*
X102285810Y-73092381D01*
X102381048Y-73235238D01*
X102476286Y-73330476D01*
X102571524Y-73378095D01*
X65550857Y-93142381D02*
X65884191Y-92666190D01*
X66122286Y-93142381D02*
X66122286Y-92142381D01*
X65741333Y-92142381D01*
X65646095Y-92190000D01*
X65598476Y-92237619D01*
X65550857Y-92332857D01*
X65550857Y-92475714D01*
X65598476Y-92570952D01*
X65646095Y-92618571D01*
X65741333Y-92666190D01*
X66122286Y-92666190D01*
X64598476Y-93142381D02*
X65169905Y-93142381D01*
X64884191Y-93142381D02*
X64884191Y-92142381D01*
X64979429Y-92285238D01*
X65074667Y-92380476D01*
X65169905Y-92428095D01*
X64265143Y-92142381D02*
X63646095Y-92142381D01*
X63979429Y-92523333D01*
X63836571Y-92523333D01*
X63741333Y-92570952D01*
X63693714Y-92618571D01*
X63646095Y-92713810D01*
X63646095Y-92951905D01*
X63693714Y-93047143D01*
X63741333Y-93094762D01*
X63836571Y-93142381D01*
X64122286Y-93142381D01*
X64217524Y-93094762D01*
X64265143Y-93047143D01*
X72662857Y-93142381D02*
X72996191Y-92666190D01*
X73234286Y-93142381D02*
X73234286Y-92142381D01*
X72853333Y-92142381D01*
X72758095Y-92190000D01*
X72710476Y-92237619D01*
X72662857Y-92332857D01*
X72662857Y-92475714D01*
X72710476Y-92570952D01*
X72758095Y-92618571D01*
X72853333Y-92666190D01*
X73234286Y-92666190D01*
X71710476Y-93142381D02*
X72281905Y-93142381D01*
X71996191Y-93142381D02*
X71996191Y-92142381D01*
X72091429Y-92285238D01*
X72186667Y-92380476D01*
X72281905Y-92428095D01*
X70853333Y-92475714D02*
X70853333Y-93142381D01*
X71091429Y-92094762D02*
X71329524Y-92809048D01*
X70710476Y-92809048D01*
X108476857Y-96190381D02*
X108810191Y-95714190D01*
X109048286Y-96190381D02*
X109048286Y-95190381D01*
X108667333Y-95190381D01*
X108572095Y-95238000D01*
X108524476Y-95285619D01*
X108476857Y-95380857D01*
X108476857Y-95523714D01*
X108524476Y-95618952D01*
X108572095Y-95666571D01*
X108667333Y-95714190D01*
X109048286Y-95714190D01*
X107524476Y-96190381D02*
X108095905Y-96190381D01*
X107810191Y-96190381D02*
X107810191Y-95190381D01*
X107905429Y-95333238D01*
X108000667Y-95428476D01*
X108095905Y-95476095D01*
X106619714Y-95190381D02*
X107095905Y-95190381D01*
X107143524Y-95666571D01*
X107095905Y-95618952D01*
X107000667Y-95571333D01*
X106762571Y-95571333D01*
X106667333Y-95618952D01*
X106619714Y-95666571D01*
X106572095Y-95761810D01*
X106572095Y-95999905D01*
X106619714Y-96095143D01*
X106667333Y-96142762D01*
X106762571Y-96190381D01*
X107000667Y-96190381D01*
X107095905Y-96142762D01*
X107143524Y-96095143D01*
X115842857Y-96190381D02*
X116176191Y-95714190D01*
X116414286Y-96190381D02*
X116414286Y-95190381D01*
X116033333Y-95190381D01*
X115938095Y-95238000D01*
X115890476Y-95285619D01*
X115842857Y-95380857D01*
X115842857Y-95523714D01*
X115890476Y-95618952D01*
X115938095Y-95666571D01*
X116033333Y-95714190D01*
X116414286Y-95714190D01*
X114890476Y-96190381D02*
X115461905Y-96190381D01*
X115176191Y-96190381D02*
X115176191Y-95190381D01*
X115271429Y-95333238D01*
X115366667Y-95428476D01*
X115461905Y-95476095D01*
X114033333Y-95190381D02*
X114223810Y-95190381D01*
X114319048Y-95238000D01*
X114366667Y-95285619D01*
X114461905Y-95428476D01*
X114509524Y-95618952D01*
X114509524Y-95999905D01*
X114461905Y-96095143D01*
X114414286Y-96142762D01*
X114319048Y-96190381D01*
X114128571Y-96190381D01*
X114033333Y-96142762D01*
X113985714Y-96095143D01*
X113938095Y-95999905D01*
X113938095Y-95761810D01*
X113985714Y-95666571D01*
X114033333Y-95618952D01*
X114128571Y-95571333D01*
X114319048Y-95571333D01*
X114414286Y-95618952D01*
X114461905Y-95666571D01*
X114509524Y-95761810D01*
X65550857Y-112192381D02*
X65884191Y-111716190D01*
X66122286Y-112192381D02*
X66122286Y-111192381D01*
X65741333Y-111192381D01*
X65646095Y-111240000D01*
X65598476Y-111287619D01*
X65550857Y-111382857D01*
X65550857Y-111525714D01*
X65598476Y-111620952D01*
X65646095Y-111668571D01*
X65741333Y-111716190D01*
X66122286Y-111716190D01*
X64598476Y-112192381D02*
X65169905Y-112192381D01*
X64884191Y-112192381D02*
X64884191Y-111192381D01*
X64979429Y-111335238D01*
X65074667Y-111430476D01*
X65169905Y-111478095D01*
X64265143Y-111192381D02*
X63598476Y-111192381D01*
X64027048Y-112192381D01*
X72408857Y-112192381D02*
X72742191Y-111716190D01*
X72980286Y-112192381D02*
X72980286Y-111192381D01*
X72599333Y-111192381D01*
X72504095Y-111240000D01*
X72456476Y-111287619D01*
X72408857Y-111382857D01*
X72408857Y-111525714D01*
X72456476Y-111620952D01*
X72504095Y-111668571D01*
X72599333Y-111716190D01*
X72980286Y-111716190D01*
X71456476Y-112192381D02*
X72027905Y-112192381D01*
X71742191Y-112192381D02*
X71742191Y-111192381D01*
X71837429Y-111335238D01*
X71932667Y-111430476D01*
X72027905Y-111478095D01*
X70885048Y-111620952D02*
X70980286Y-111573333D01*
X71027905Y-111525714D01*
X71075524Y-111430476D01*
X71075524Y-111382857D01*
X71027905Y-111287619D01*
X70980286Y-111240000D01*
X70885048Y-111192381D01*
X70694571Y-111192381D01*
X70599333Y-111240000D01*
X70551714Y-111287619D01*
X70504095Y-111382857D01*
X70504095Y-111430476D01*
X70551714Y-111525714D01*
X70599333Y-111573333D01*
X70694571Y-111620952D01*
X70885048Y-111620952D01*
X70980286Y-111668571D01*
X71027905Y-111716190D01*
X71075524Y-111811429D01*
X71075524Y-112001905D01*
X71027905Y-112097143D01*
X70980286Y-112144762D01*
X70885048Y-112192381D01*
X70694571Y-112192381D01*
X70599333Y-112144762D01*
X70551714Y-112097143D01*
X70504095Y-112001905D01*
X70504095Y-111811429D01*
X70551714Y-111716190D01*
X70599333Y-111668571D01*
X70694571Y-111620952D01*
X108222857Y-103048381D02*
X108556191Y-102572190D01*
X108794286Y-103048381D02*
X108794286Y-102048381D01*
X108413333Y-102048381D01*
X108318095Y-102096000D01*
X108270476Y-102143619D01*
X108222857Y-102238857D01*
X108222857Y-102381714D01*
X108270476Y-102476952D01*
X108318095Y-102524571D01*
X108413333Y-102572190D01*
X108794286Y-102572190D01*
X107270476Y-103048381D02*
X107841905Y-103048381D01*
X107556191Y-103048381D02*
X107556191Y-102048381D01*
X107651429Y-102191238D01*
X107746667Y-102286476D01*
X107841905Y-102334095D01*
X106794286Y-103048381D02*
X106603810Y-103048381D01*
X106508571Y-103000762D01*
X106460952Y-102953143D01*
X106365714Y-102810286D01*
X106318095Y-102619810D01*
X106318095Y-102238857D01*
X106365714Y-102143619D01*
X106413333Y-102096000D01*
X106508571Y-102048381D01*
X106699048Y-102048381D01*
X106794286Y-102096000D01*
X106841905Y-102143619D01*
X106889524Y-102238857D01*
X106889524Y-102476952D01*
X106841905Y-102572190D01*
X106794286Y-102619810D01*
X106699048Y-102667429D01*
X106508571Y-102667429D01*
X106413333Y-102619810D01*
X106365714Y-102572190D01*
X106318095Y-102476952D01*
X81298857Y-126670381D02*
X81632191Y-126194190D01*
X81870286Y-126670381D02*
X81870286Y-125670381D01*
X81489333Y-125670381D01*
X81394095Y-125718000D01*
X81346476Y-125765619D01*
X81298857Y-125860857D01*
X81298857Y-126003714D01*
X81346476Y-126098952D01*
X81394095Y-126146571D01*
X81489333Y-126194190D01*
X81870286Y-126194190D01*
X80917905Y-125765619D02*
X80870286Y-125718000D01*
X80775048Y-125670381D01*
X80536952Y-125670381D01*
X80441714Y-125718000D01*
X80394095Y-125765619D01*
X80346476Y-125860857D01*
X80346476Y-125956095D01*
X80394095Y-126098952D01*
X80965524Y-126670381D01*
X80346476Y-126670381D01*
X79394095Y-126670381D02*
X79965524Y-126670381D01*
X79679810Y-126670381D02*
X79679810Y-125670381D01*
X79775048Y-125813238D01*
X79870286Y-125908476D01*
X79965524Y-125956095D01*
X88156857Y-126670381D02*
X88490191Y-126194190D01*
X88728286Y-126670381D02*
X88728286Y-125670381D01*
X88347333Y-125670381D01*
X88252095Y-125718000D01*
X88204476Y-125765619D01*
X88156857Y-125860857D01*
X88156857Y-126003714D01*
X88204476Y-126098952D01*
X88252095Y-126146571D01*
X88347333Y-126194190D01*
X88728286Y-126194190D01*
X87775905Y-125765619D02*
X87728286Y-125718000D01*
X87633048Y-125670381D01*
X87394952Y-125670381D01*
X87299714Y-125718000D01*
X87252095Y-125765619D01*
X87204476Y-125860857D01*
X87204476Y-125956095D01*
X87252095Y-126098952D01*
X87823524Y-126670381D01*
X87204476Y-126670381D01*
X86871143Y-125670381D02*
X86252095Y-125670381D01*
X86585429Y-126051333D01*
X86442571Y-126051333D01*
X86347333Y-126098952D01*
X86299714Y-126146571D01*
X86252095Y-126241810D01*
X86252095Y-126479905D01*
X86299714Y-126575143D01*
X86347333Y-126622762D01*
X86442571Y-126670381D01*
X86728286Y-126670381D01*
X86823524Y-126622762D01*
X86871143Y-126575143D01*
X115588857Y-103048381D02*
X115922191Y-102572190D01*
X116160286Y-103048381D02*
X116160286Y-102048381D01*
X115779333Y-102048381D01*
X115684095Y-102096000D01*
X115636476Y-102143619D01*
X115588857Y-102238857D01*
X115588857Y-102381714D01*
X115636476Y-102476952D01*
X115684095Y-102524571D01*
X115779333Y-102572190D01*
X116160286Y-102572190D01*
X115207905Y-102143619D02*
X115160286Y-102096000D01*
X115065048Y-102048381D01*
X114826952Y-102048381D01*
X114731714Y-102096000D01*
X114684095Y-102143619D01*
X114636476Y-102238857D01*
X114636476Y-102334095D01*
X114684095Y-102476952D01*
X115255524Y-103048381D01*
X114636476Y-103048381D01*
X113779333Y-102381714D02*
X113779333Y-103048381D01*
X114017429Y-102000762D02*
X114255524Y-102715048D01*
X113636476Y-102715048D01*
X84719905Y-78680381D02*
X84719905Y-79489905D01*
X84672286Y-79585143D01*
X84624667Y-79632762D01*
X84529429Y-79680381D01*
X84338952Y-79680381D01*
X84243714Y-79632762D01*
X84196095Y-79585143D01*
X84148476Y-79489905D01*
X84148476Y-78680381D01*
X83767524Y-78680381D02*
X83148476Y-78680381D01*
X83481810Y-79061333D01*
X83338952Y-79061333D01*
X83243714Y-79108952D01*
X83196095Y-79156571D01*
X83148476Y-79251810D01*
X83148476Y-79489905D01*
X83196095Y-79585143D01*
X83243714Y-79632762D01*
X83338952Y-79680381D01*
X83624667Y-79680381D01*
X83719905Y-79632762D01*
X83767524Y-79585143D01*
X121363571Y-28047143D02*
X122577857Y-28047143D01*
X122720714Y-28118571D01*
X122792143Y-28190000D01*
X122863571Y-28332857D01*
X122863571Y-28618571D01*
X122792143Y-28761429D01*
X122720714Y-28832857D01*
X122577857Y-28904286D01*
X121363571Y-28904286D01*
X122863571Y-30404286D02*
X122863571Y-29547143D01*
X122863571Y-29975715D02*
X121363571Y-29975715D01*
X121577857Y-29832858D01*
X121720714Y-29690000D01*
X121792143Y-29547143D01*
X85902666Y-36659143D02*
X85950285Y-36706762D01*
X86093142Y-36754381D01*
X86188380Y-36754381D01*
X86331238Y-36706762D01*
X86426476Y-36611524D01*
X86474095Y-36516286D01*
X86521714Y-36325810D01*
X86521714Y-36182952D01*
X86474095Y-35992476D01*
X86426476Y-35897238D01*
X86331238Y-35802000D01*
X86188380Y-35754381D01*
X86093142Y-35754381D01*
X85950285Y-35802000D01*
X85902666Y-35849619D01*
X84950285Y-36754381D02*
X85521714Y-36754381D01*
X85236000Y-36754381D02*
X85236000Y-35754381D01*
X85331238Y-35897238D01*
X85426476Y-35992476D01*
X85521714Y-36040095D01*
X85902666Y-75013143D02*
X85950285Y-75060762D01*
X86093142Y-75108381D01*
X86188380Y-75108381D01*
X86331238Y-75060762D01*
X86426476Y-74965524D01*
X86474095Y-74870286D01*
X86521714Y-74679810D01*
X86521714Y-74536952D01*
X86474095Y-74346476D01*
X86426476Y-74251238D01*
X86331238Y-74156000D01*
X86188380Y-74108381D01*
X86093142Y-74108381D01*
X85950285Y-74156000D01*
X85902666Y-74203619D01*
X85521714Y-74203619D02*
X85474095Y-74156000D01*
X85378857Y-74108381D01*
X85140761Y-74108381D01*
X85045523Y-74156000D01*
X84997904Y-74203619D01*
X84950285Y-74298857D01*
X84950285Y-74394095D01*
X84997904Y-74536952D01*
X85569333Y-75108381D01*
X84950285Y-75108381D01*
X85902666Y-113113143D02*
X85950285Y-113160762D01*
X86093142Y-113208381D01*
X86188380Y-113208381D01*
X86331238Y-113160762D01*
X86426476Y-113065524D01*
X86474095Y-112970286D01*
X86521714Y-112779810D01*
X86521714Y-112636952D01*
X86474095Y-112446476D01*
X86426476Y-112351238D01*
X86331238Y-112256000D01*
X86188380Y-112208381D01*
X86093142Y-112208381D01*
X85950285Y-112256000D01*
X85902666Y-112303619D01*
X85569333Y-112208381D02*
X84950285Y-112208381D01*
X85283619Y-112589333D01*
X85140761Y-112589333D01*
X85045523Y-112636952D01*
X84997904Y-112684571D01*
X84950285Y-112779810D01*
X84950285Y-113017905D01*
X84997904Y-113113143D01*
X85045523Y-113160762D01*
X85140761Y-113208381D01*
X85426476Y-113208381D01*
X85521714Y-113160762D01*
X85569333Y-113113143D01*
M02*
