G04 #@! TF.FileFunction,Soldermask,Top*
%FSLAX46Y46*%
G04 Gerber Fmt 4.6, Leading zero omitted, Abs format (unit mm)*
G04 Created by KiCad (PCBNEW 4.0.2-stable) date Tuesday, March 29, 2016 'PMt' 06:01:04 PM*
%MOMM*%
G01*
G04 APERTURE LIST*
%ADD10C,0.100000*%
%ADD11C,2.398980*%
%ADD12R,2.398980X2.398980*%
%ADD13C,2.400000*%
%ADD14R,2.400000X2.400000*%
%ADD15C,2.900000*%
%ADD16C,2.300000*%
G04 APERTURE END LIST*
D10*
D11*
X64400000Y-24107460D03*
D12*
X54240000Y-24107460D03*
D11*
X84085000Y-24107460D03*
D12*
X73925000Y-24107460D03*
D11*
X102500000Y-40617460D03*
D12*
X92340000Y-40617460D03*
D11*
X121550000Y-40617460D03*
D12*
X111390000Y-40617460D03*
D11*
X64400000Y-43157460D03*
D12*
X54240000Y-43157460D03*
D11*
X82561000Y-43284460D03*
D12*
X72401000Y-43284460D03*
D11*
X102500000Y-43157460D03*
D12*
X92340000Y-43157460D03*
D11*
X121550000Y-43157460D03*
D12*
X111390000Y-43157460D03*
D11*
X64400000Y-62207460D03*
D12*
X54240000Y-62207460D03*
D11*
X82561000Y-62207460D03*
D12*
X72401000Y-62207460D03*
D11*
X102500000Y-62207460D03*
D12*
X92340000Y-62207460D03*
D11*
X64400000Y-81257460D03*
D12*
X54240000Y-81257460D03*
D11*
X82434000Y-81257460D03*
D12*
X72274000Y-81257460D03*
D11*
X102500000Y-81257460D03*
D12*
X92340000Y-81257460D03*
D11*
X108212460Y-74910000D03*
D12*
X108212460Y-85070000D03*
D11*
X64400000Y-100307460D03*
D12*
X54240000Y-100307460D03*
D11*
X82561000Y-100307460D03*
D12*
X72401000Y-100307460D03*
D11*
X102500000Y-100307460D03*
D12*
X92340000Y-100307460D03*
D11*
X73925000Y-119357460D03*
D12*
X63765000Y-119357460D03*
D11*
X102500000Y-119357460D03*
D12*
X92340000Y-119357460D03*
D11*
X108212460Y-113010000D03*
D12*
X108212460Y-123170000D03*
D13*
X117740000Y-123170000D03*
D14*
X115200000Y-123170000D03*
D15*
X119010000Y-113010000D03*
X112660000Y-115550000D03*
D13*
X117740000Y-85070000D03*
D14*
X115200000Y-85070000D03*
D15*
X119010000Y-74910000D03*
X112660000Y-77450000D03*
D13*
X98690000Y-113645000D03*
D14*
X96150000Y-113645000D03*
D15*
X99960000Y-103485000D03*
X93610000Y-106025000D03*
D13*
X98690000Y-132695000D03*
D14*
X96150000Y-132695000D03*
D15*
X99960000Y-122535000D03*
X93610000Y-125075000D03*
D13*
X79640000Y-113645000D03*
D14*
X77100000Y-113645000D03*
D15*
X80910000Y-103485000D03*
X74560000Y-106025000D03*
D13*
X60590000Y-113645000D03*
D14*
X58050000Y-113645000D03*
D15*
X61860000Y-103485000D03*
X55510000Y-106025000D03*
D13*
X98690000Y-94595000D03*
D14*
X96150000Y-94595000D03*
D15*
X99960000Y-84435000D03*
X93610000Y-86975000D03*
D13*
X79640000Y-94595000D03*
D14*
X77100000Y-94595000D03*
D15*
X80910000Y-84435000D03*
X74560000Y-86975000D03*
D13*
X60590000Y-94595000D03*
D14*
X58050000Y-94595000D03*
D15*
X61860000Y-84435000D03*
X55510000Y-86975000D03*
D13*
X98690000Y-75545000D03*
D14*
X96150000Y-75545000D03*
D15*
X99960000Y-65385000D03*
X93610000Y-67925000D03*
D13*
X79640000Y-75545000D03*
D14*
X77100000Y-75545000D03*
D15*
X80910000Y-65385000D03*
X74560000Y-67925000D03*
D13*
X60590000Y-75545000D03*
D14*
X58050000Y-75545000D03*
D15*
X61860000Y-65385000D03*
X55510000Y-67925000D03*
D13*
X117740000Y-56495000D03*
D14*
X115200000Y-56495000D03*
D15*
X119010000Y-46335000D03*
X112660000Y-48875000D03*
D13*
X98690000Y-56495000D03*
D14*
X96150000Y-56495000D03*
D15*
X99960000Y-46335000D03*
X93610000Y-48875000D03*
D13*
X60590000Y-56495000D03*
D14*
X58050000Y-56495000D03*
D15*
X61860000Y-46335000D03*
X55510000Y-48875000D03*
D13*
X117740000Y-37445000D03*
D14*
X115200000Y-37445000D03*
D15*
X119010000Y-27285000D03*
X112660000Y-29825000D03*
D13*
X98690000Y-37445000D03*
D14*
X96150000Y-37445000D03*
D15*
X99960000Y-27285000D03*
X93610000Y-29825000D03*
D13*
X79640000Y-37445000D03*
D14*
X77100000Y-37445000D03*
D15*
X80910000Y-27285000D03*
X74560000Y-29825000D03*
D13*
X60590000Y-37445000D03*
D14*
X58050000Y-37445000D03*
D15*
X61860000Y-27285000D03*
X55510000Y-29825000D03*
D13*
X79640000Y-56495000D03*
D14*
X77100000Y-56495000D03*
D15*
X80910000Y-46335000D03*
X74560000Y-48875000D03*
D13*
X70115000Y-132695000D03*
D14*
X67575000Y-132695000D03*
D15*
X71385000Y-122535000D03*
X65035000Y-125075000D03*
D16*
X105675000Y-36810000D03*
X118375000Y-24110000D03*
X87895000Y-29190000D03*
X87895000Y-31730000D03*
X108215000Y-36810000D03*
X87895000Y-36810000D03*
X87895000Y-21570000D03*
X90435000Y-21570000D03*
X92975000Y-21570000D03*
X95515000Y-21570000D03*
X98055000Y-21570000D03*
X100595000Y-21570000D03*
X103135000Y-21570000D03*
X105675000Y-21570000D03*
X108215000Y-21570000D03*
X110755000Y-21570000D03*
X113295000Y-21570000D03*
M02*
