G04 #@! TF.FileFunction,Copper,L2,Bot,Signal*
%FSLAX46Y46*%
G04 Gerber Fmt 4.6, Leading zero omitted, Abs format (unit mm)*
G04 Created by KiCad (PCBNEW 4.0.2-stable) date Tuesday, March 29, 2016 'PMt' 06:01:04 PM*
%MOMM*%
G01*
G04 APERTURE LIST*
%ADD10C,0.100000*%
%ADD11R,0.450000X1.500000*%
%ADD12C,1.998980*%
%ADD13R,1.998980X1.998980*%
%ADD14C,2.000000*%
%ADD15R,2.000000X2.000000*%
%ADD16C,2.500000*%
%ADD17R,2.000000X1.700000*%
%ADD18C,1.900000*%
%ADD19R,0.750000X1.200000*%
%ADD20C,0.609600*%
%ADD21C,0.304800*%
%ADD22C,0.254000*%
%ADD23C,0.508000*%
G04 APERTURE END LIST*
D10*
D11*
X85620000Y-115140000D03*
X86270000Y-115140000D03*
X86920000Y-115140000D03*
X87570000Y-115140000D03*
X88220000Y-115140000D03*
X88870000Y-115140000D03*
X89520000Y-115140000D03*
X90170000Y-115140000D03*
X90170000Y-121040000D03*
X89520000Y-121040000D03*
X88870000Y-121040000D03*
X88220000Y-121040000D03*
X87570000Y-121040000D03*
X86920000Y-121040000D03*
X86270000Y-121040000D03*
X85620000Y-121040000D03*
X85620000Y-38940000D03*
X86270000Y-38940000D03*
X86920000Y-38940000D03*
X87570000Y-38940000D03*
X88220000Y-38940000D03*
X88870000Y-38940000D03*
X89520000Y-38940000D03*
X90170000Y-38940000D03*
X90170000Y-44840000D03*
X89520000Y-44840000D03*
X88870000Y-44840000D03*
X88220000Y-44840000D03*
X87570000Y-44840000D03*
X86920000Y-44840000D03*
X86270000Y-44840000D03*
X85620000Y-44840000D03*
D12*
X64400000Y-24107460D03*
D13*
X54240000Y-24107460D03*
D12*
X84085000Y-24107460D03*
D13*
X73925000Y-24107460D03*
D12*
X102500000Y-40617460D03*
D13*
X92340000Y-40617460D03*
D12*
X121550000Y-40617460D03*
D13*
X111390000Y-40617460D03*
D12*
X64400000Y-43157460D03*
D13*
X54240000Y-43157460D03*
D12*
X82561000Y-43284460D03*
D13*
X72401000Y-43284460D03*
D12*
X102500000Y-43157460D03*
D13*
X92340000Y-43157460D03*
D12*
X121550000Y-43157460D03*
D13*
X111390000Y-43157460D03*
D12*
X64400000Y-62207460D03*
D13*
X54240000Y-62207460D03*
D12*
X82561000Y-62207460D03*
D13*
X72401000Y-62207460D03*
D12*
X102500000Y-62207460D03*
D13*
X92340000Y-62207460D03*
D12*
X64400000Y-81257460D03*
D13*
X54240000Y-81257460D03*
D12*
X82434000Y-81257460D03*
D13*
X72274000Y-81257460D03*
D12*
X102500000Y-81257460D03*
D13*
X92340000Y-81257460D03*
D12*
X108212460Y-74910000D03*
D13*
X108212460Y-85070000D03*
D12*
X64400000Y-100307460D03*
D13*
X54240000Y-100307460D03*
D12*
X82561000Y-100307460D03*
D13*
X72401000Y-100307460D03*
D12*
X102500000Y-100307460D03*
D13*
X92340000Y-100307460D03*
D12*
X73925000Y-119357460D03*
D13*
X63765000Y-119357460D03*
D12*
X102500000Y-119357460D03*
D13*
X92340000Y-119357460D03*
D12*
X108212460Y-113010000D03*
D13*
X108212460Y-123170000D03*
D14*
X117740000Y-123170000D03*
D15*
X115200000Y-123170000D03*
D16*
X119010000Y-113010000D03*
X112660000Y-115550000D03*
D14*
X117740000Y-85070000D03*
D15*
X115200000Y-85070000D03*
D16*
X119010000Y-74910000D03*
X112660000Y-77450000D03*
D14*
X98690000Y-113645000D03*
D15*
X96150000Y-113645000D03*
D16*
X99960000Y-103485000D03*
X93610000Y-106025000D03*
D14*
X98690000Y-132695000D03*
D15*
X96150000Y-132695000D03*
D16*
X99960000Y-122535000D03*
X93610000Y-125075000D03*
D14*
X79640000Y-113645000D03*
D15*
X77100000Y-113645000D03*
D16*
X80910000Y-103485000D03*
X74560000Y-106025000D03*
D14*
X60590000Y-113645000D03*
D15*
X58050000Y-113645000D03*
D16*
X61860000Y-103485000D03*
X55510000Y-106025000D03*
D14*
X98690000Y-94595000D03*
D15*
X96150000Y-94595000D03*
D16*
X99960000Y-84435000D03*
X93610000Y-86975000D03*
D14*
X79640000Y-94595000D03*
D15*
X77100000Y-94595000D03*
D16*
X80910000Y-84435000D03*
X74560000Y-86975000D03*
D14*
X60590000Y-94595000D03*
D15*
X58050000Y-94595000D03*
D16*
X61860000Y-84435000D03*
X55510000Y-86975000D03*
D14*
X98690000Y-75545000D03*
D15*
X96150000Y-75545000D03*
D16*
X99960000Y-65385000D03*
X93610000Y-67925000D03*
D14*
X79640000Y-75545000D03*
D15*
X77100000Y-75545000D03*
D16*
X80910000Y-65385000D03*
X74560000Y-67925000D03*
D14*
X60590000Y-75545000D03*
D15*
X58050000Y-75545000D03*
D16*
X61860000Y-65385000D03*
X55510000Y-67925000D03*
D14*
X117740000Y-56495000D03*
D15*
X115200000Y-56495000D03*
D16*
X119010000Y-46335000D03*
X112660000Y-48875000D03*
D14*
X98690000Y-56495000D03*
D15*
X96150000Y-56495000D03*
D16*
X99960000Y-46335000D03*
X93610000Y-48875000D03*
D14*
X60590000Y-56495000D03*
D15*
X58050000Y-56495000D03*
D16*
X61860000Y-46335000D03*
X55510000Y-48875000D03*
D14*
X117740000Y-37445000D03*
D15*
X115200000Y-37445000D03*
D16*
X119010000Y-27285000D03*
X112660000Y-29825000D03*
D14*
X98690000Y-37445000D03*
D15*
X96150000Y-37445000D03*
D16*
X99960000Y-27285000D03*
X93610000Y-29825000D03*
D14*
X79640000Y-37445000D03*
D15*
X77100000Y-37445000D03*
D16*
X80910000Y-27285000D03*
X74560000Y-29825000D03*
D14*
X60590000Y-37445000D03*
D15*
X58050000Y-37445000D03*
D16*
X61860000Y-27285000D03*
X55510000Y-29825000D03*
D14*
X79640000Y-56495000D03*
D15*
X77100000Y-56495000D03*
D16*
X80910000Y-46335000D03*
X74560000Y-48875000D03*
D14*
X70115000Y-132695000D03*
D15*
X67575000Y-132695000D03*
D16*
X71385000Y-122535000D03*
X65035000Y-125075000D03*
D17*
X67289000Y-37445000D03*
X63289000Y-37445000D03*
X70274000Y-37445000D03*
X74274000Y-37445000D03*
X108945000Y-30206000D03*
X104945000Y-30206000D03*
X104945000Y-27412000D03*
X108945000Y-27412000D03*
X67416000Y-56495000D03*
X63416000Y-56495000D03*
X70401000Y-56495000D03*
X74401000Y-56495000D03*
X105516000Y-56495000D03*
X101516000Y-56495000D03*
X108374000Y-56495000D03*
X112374000Y-56495000D03*
X67416000Y-75545000D03*
X63416000Y-75545000D03*
X70274000Y-75545000D03*
X74274000Y-75545000D03*
X105389000Y-75545000D03*
X101389000Y-75545000D03*
X67289000Y-94595000D03*
X63289000Y-94595000D03*
X70274000Y-94595000D03*
X74274000Y-94595000D03*
X109707000Y-97643000D03*
X105707000Y-97643000D03*
X113200000Y-97643000D03*
X117200000Y-97643000D03*
X67289000Y-113645000D03*
X63289000Y-113645000D03*
X70274000Y-113645000D03*
X74274000Y-113645000D03*
X109707000Y-100437000D03*
X105707000Y-100437000D03*
X82656000Y-128250000D03*
X78656000Y-128250000D03*
X85641000Y-128250000D03*
X89641000Y-128250000D03*
X113200000Y-100437000D03*
X117200000Y-100437000D03*
D11*
X85620000Y-77040000D03*
X86270000Y-77040000D03*
X86920000Y-77040000D03*
X87570000Y-77040000D03*
X88220000Y-77040000D03*
X88870000Y-77040000D03*
X89520000Y-77040000D03*
X90170000Y-77040000D03*
X90170000Y-82940000D03*
X89520000Y-82940000D03*
X88870000Y-82940000D03*
X88220000Y-82940000D03*
X87570000Y-82940000D03*
X86920000Y-82940000D03*
X86270000Y-82940000D03*
X85620000Y-82940000D03*
D18*
X105675000Y-36810000D03*
X118375000Y-24110000D03*
X87895000Y-29190000D03*
X87895000Y-31730000D03*
X108215000Y-36810000D03*
X87895000Y-36810000D03*
X87895000Y-21570000D03*
X90435000Y-21570000D03*
X92975000Y-21570000D03*
X95515000Y-21570000D03*
X98055000Y-21570000D03*
X100595000Y-21570000D03*
X103135000Y-21570000D03*
X105675000Y-21570000D03*
X108215000Y-21570000D03*
X110755000Y-21570000D03*
X113295000Y-21570000D03*
D19*
X84212000Y-39030000D03*
X84212000Y-37130000D03*
X84085000Y-77130000D03*
X84085000Y-75230000D03*
X84085000Y-115103000D03*
X84085000Y-113203000D03*
D20*
X91324000Y-47351000D03*
X68337000Y-27031000D03*
X67829000Y-47859000D03*
X69099000Y-80498000D03*
X69353000Y-28936000D03*
X71385000Y-34397000D03*
X69734000Y-117074000D03*
X70623000Y-35032000D03*
X87387000Y-24745000D03*
X93229000Y-23856000D03*
X86371000Y-24618000D03*
X94245000Y-23856000D03*
X78751000Y-40874000D03*
X94880000Y-34524000D03*
X89990500Y-36302000D03*
X88276000Y-40810500D03*
X91197000Y-36302000D03*
X89165000Y-40874000D03*
X105294000Y-33508000D03*
X68464000Y-124567000D03*
X105421000Y-58527000D03*
X105421000Y-77577000D03*
X105421000Y-95611000D03*
X66559000Y-111994000D03*
X66559000Y-92944000D03*
X66559000Y-73894000D03*
X66559000Y-54717000D03*
X66559000Y-39223000D03*
X113168000Y-37699000D03*
X90181000Y-113645000D03*
X90181000Y-75418000D03*
X90181000Y-40620000D03*
X84466000Y-44811000D03*
X84085000Y-111867000D03*
X84085000Y-73767000D03*
X84212000Y-35794000D03*
X84847000Y-121011000D03*
X84847000Y-82911000D03*
X68464000Y-28047000D03*
X68464000Y-60686000D03*
X88657000Y-41509000D03*
X88657000Y-43414000D03*
X57669000Y-41636000D03*
X88911000Y-58019000D03*
X88911000Y-46271500D03*
X87514000Y-42779000D03*
X88276000Y-56495000D03*
X86879000Y-43541000D03*
X87514000Y-54590000D03*
X87641000Y-72878000D03*
X87570000Y-75855000D03*
X88212500Y-75100500D03*
X88276000Y-73767000D03*
X57796000Y-79736000D03*
X87641000Y-94595000D03*
X87641000Y-84308000D03*
X87768000Y-110851000D03*
X87775412Y-113653401D03*
X88911000Y-122789000D03*
X88911000Y-130536000D03*
X71385000Y-129647000D03*
X87514000Y-122789000D03*
X87641000Y-132695000D03*
X89546000Y-59797000D03*
X107326000Y-59797000D03*
X89546000Y-122281000D03*
X89546000Y-46843000D03*
X89546000Y-84308000D03*
X86625000Y-60559000D03*
X107961000Y-60559000D03*
X86244000Y-122535000D03*
X86371000Y-46335000D03*
X86371000Y-84308000D03*
X85863000Y-36810000D03*
X85609000Y-113772000D03*
X85609000Y-75672000D03*
X86879000Y-75164000D03*
X86879000Y-47541500D03*
X86879000Y-85070000D03*
X86879000Y-113645000D03*
D21*
X61860000Y-27285000D02*
X64400000Y-24745000D01*
X64400000Y-24745000D02*
X64400000Y-24107460D01*
D22*
X73798000Y-21570000D02*
X74306000Y-21062000D01*
X74306000Y-21062000D02*
X87387000Y-21062000D01*
X87387000Y-21062000D02*
X87895000Y-21570000D01*
D21*
X92340000Y-40617460D02*
X99835540Y-40617460D01*
X109868540Y-39096000D02*
X111390000Y-40617460D01*
X101357000Y-39096000D02*
X109868540Y-39096000D01*
X99835540Y-40617460D02*
X101357000Y-39096000D01*
X73798000Y-21570000D02*
X73798000Y-23980460D01*
X73798000Y-23980460D02*
X73925000Y-24107460D01*
X73798000Y-21570000D02*
X56777460Y-21570000D01*
X56777460Y-21570000D02*
X54240000Y-24107460D01*
X80910000Y-27285000D02*
X84085000Y-24110000D01*
X84085000Y-24110000D02*
X84085000Y-24107460D01*
X61860000Y-46335000D02*
X64400000Y-43795000D01*
X64400000Y-43795000D02*
X64400000Y-43157460D01*
X91324000Y-48494000D02*
X91324000Y-47351000D01*
X90054000Y-48494000D02*
X91324000Y-48494000D01*
X90054000Y-48494000D02*
X77610540Y-48494000D01*
X72401000Y-43284460D02*
X77610540Y-48494000D01*
X96277000Y-48875000D02*
X98057540Y-48875000D01*
X94499000Y-47097000D02*
X96277000Y-48875000D01*
X92721000Y-47097000D02*
X94499000Y-47097000D01*
X91324000Y-48494000D02*
X92721000Y-47097000D01*
D22*
X86371000Y-23094000D02*
X85228000Y-21951000D01*
X88911000Y-23094000D02*
X86371000Y-23094000D01*
X80148000Y-22459000D02*
X75576000Y-27031000D01*
X75576000Y-27031000D02*
X68337000Y-27031000D01*
X67829000Y-47856460D02*
X67829000Y-47859000D01*
X88911000Y-23094000D02*
X90435000Y-21570000D01*
X80605198Y-22001802D02*
X80148000Y-22459000D01*
X85228000Y-21951000D02*
X80605198Y-22001802D01*
D21*
X111390000Y-43157460D02*
X105672460Y-48875000D01*
X105672460Y-48875000D02*
X98057540Y-48875000D01*
X54240000Y-43157460D02*
X59576540Y-48494000D01*
X67191460Y-48494000D02*
X67829000Y-47856460D01*
X67829000Y-47856460D02*
X72401000Y-43284460D01*
X59576540Y-48494000D02*
X67191460Y-48494000D01*
X80910000Y-46335000D02*
X82561000Y-44684000D01*
X82561000Y-44684000D02*
X82561000Y-43284460D01*
X99960000Y-46335000D02*
X102500000Y-43795000D01*
X102500000Y-43795000D02*
X102500000Y-43157460D01*
X119010000Y-46335000D02*
X121550000Y-43795000D01*
X121550000Y-43795000D02*
X121550000Y-43157460D01*
X61860000Y-65385000D02*
X64400000Y-62845000D01*
X64400000Y-62845000D02*
X64400000Y-62207460D01*
X80910000Y-65385000D02*
X82561000Y-63734000D01*
X82561000Y-63734000D02*
X82561000Y-62207460D01*
X99960000Y-65385000D02*
X102500000Y-62845000D01*
X102500000Y-62845000D02*
X102500000Y-62207460D01*
D22*
X61860000Y-84435000D02*
X61860000Y-83797460D01*
X61860000Y-83797460D02*
X64400000Y-81257460D01*
X75195000Y-28047000D02*
X73798000Y-28047000D01*
X95515000Y-23475000D02*
X92213000Y-26777000D01*
X92213000Y-26777000D02*
X85609000Y-26777000D01*
X85609000Y-26777000D02*
X83450000Y-28936000D01*
X83450000Y-28936000D02*
X76084000Y-28936000D01*
X76084000Y-28936000D02*
X75195000Y-28047000D01*
X95515000Y-21570000D02*
X95515000Y-23475000D01*
X69099000Y-80498000D02*
X69099000Y-79736000D01*
X72909000Y-28936000D02*
X69353000Y-28936000D01*
X73798000Y-28047000D02*
X72909000Y-28936000D01*
D21*
X54240000Y-81257460D02*
X60211540Y-81257460D01*
X70752540Y-79736000D02*
X72274000Y-81257460D01*
X61733000Y-79736000D02*
X68464000Y-79736000D01*
X68464000Y-79736000D02*
X69099000Y-79736000D01*
X69099000Y-79736000D02*
X70752540Y-79736000D01*
X60211540Y-81257460D02*
X61733000Y-79736000D01*
X92340000Y-81257460D02*
X89751742Y-78669202D01*
X56828258Y-78669202D02*
X54240000Y-81257460D01*
X89751742Y-78669202D02*
X56828258Y-78669202D01*
X108212460Y-85070000D02*
X106942460Y-86340000D01*
X94242460Y-81257460D02*
X92340000Y-81257460D01*
X99325000Y-86340000D02*
X94242460Y-81257460D01*
X106942460Y-86340000D02*
X99325000Y-86340000D01*
X80910000Y-84435000D02*
X82434000Y-82911000D01*
X82434000Y-82911000D02*
X82434000Y-81257460D01*
X99960000Y-84435000D02*
X102500000Y-81895000D01*
X102500000Y-81895000D02*
X102500000Y-81257460D01*
X119010000Y-74910000D02*
X108212460Y-74910000D01*
D22*
X98055000Y-21570000D02*
X92975000Y-27285000D01*
X74179000Y-34397000D02*
X71385000Y-34397000D01*
X75449000Y-33127000D02*
X74179000Y-34397000D01*
X75449000Y-31222000D02*
X75449000Y-33127000D01*
X77252402Y-29418598D02*
X75449000Y-31222000D01*
X83983402Y-29418598D02*
X77252402Y-29418598D01*
X86142402Y-27259598D02*
X83983402Y-29418598D01*
X92975000Y-27285000D02*
X86142402Y-27259598D01*
D21*
X92340000Y-100307460D02*
X90437540Y-98405000D01*
X74303460Y-98405000D02*
X72401000Y-100307460D01*
X90437540Y-98405000D02*
X74303460Y-98405000D01*
X72401000Y-100307460D02*
X67318460Y-100307460D01*
X67318460Y-100307460D02*
X65289000Y-98278000D01*
X65289000Y-98278000D02*
X56269460Y-98278000D01*
X56269460Y-98278000D02*
X54240000Y-100307460D01*
X61860000Y-103485000D02*
X64400000Y-100945000D01*
X64400000Y-100945000D02*
X64400000Y-100307460D01*
X80910000Y-103485000D02*
X82561000Y-101834000D01*
X82561000Y-101834000D02*
X82561000Y-100307460D01*
X99960000Y-103485000D02*
X102500000Y-100945000D01*
X102500000Y-100945000D02*
X102500000Y-100307460D01*
D22*
X69607000Y-116947000D02*
X69607000Y-116870802D01*
X69683198Y-116870802D02*
X69607000Y-116947000D01*
X69734000Y-116870802D02*
X69683198Y-116870802D01*
X69734000Y-117074000D02*
X69734000Y-116870802D01*
X100595000Y-21570000D02*
X94372000Y-27793000D01*
X74433000Y-35032000D02*
X70623000Y-35032000D01*
X75957000Y-33508000D02*
X74433000Y-35032000D01*
X75957000Y-31349000D02*
X75957000Y-33508000D01*
X77481000Y-29825000D02*
X75957000Y-31349000D01*
X79386000Y-29825000D02*
X77481000Y-29825000D01*
X80021000Y-30460000D02*
X79386000Y-29825000D01*
X84212000Y-30460000D02*
X80021000Y-30460000D01*
X86752000Y-27793000D02*
X84212000Y-30460000D01*
X94372000Y-27793000D02*
X86752000Y-27793000D01*
D21*
X63765000Y-119357460D02*
X66251658Y-116870802D01*
X66251658Y-116870802D02*
X69607000Y-116870802D01*
X87765460Y-119357460D02*
X93099460Y-119357460D01*
X69607000Y-116870802D02*
X82738802Y-116870802D01*
X82738802Y-116870802D02*
X85278802Y-116870802D01*
X85278802Y-116870802D02*
X87765460Y-119357460D01*
X93099460Y-119357460D02*
X98055000Y-124313000D01*
X98055000Y-124313000D02*
X107069460Y-124313000D01*
X107069460Y-124313000D02*
X108212460Y-123170000D01*
X71385000Y-122535000D02*
X73925000Y-119995000D01*
X73925000Y-119995000D02*
X73925000Y-119357460D01*
D22*
X92340000Y-24745000D02*
X87387000Y-24745000D01*
X93229000Y-23856000D02*
X92340000Y-24745000D01*
X93356000Y-24618000D02*
X92594000Y-25380000D01*
X87133000Y-25380000D02*
X86371000Y-24618000D01*
X92594000Y-25380000D02*
X87133000Y-25380000D01*
X93483000Y-24618000D02*
X93356000Y-24618000D01*
X94245000Y-23856000D02*
X93483000Y-24618000D01*
D21*
X99960000Y-122535000D02*
X102500000Y-119995000D01*
X102500000Y-119995000D02*
X102500000Y-119357460D01*
X119010000Y-113010000D02*
X108212460Y-113010000D01*
X63289000Y-37445000D02*
X60590000Y-37445000D01*
X86920000Y-38940000D02*
X86920000Y-40071000D01*
X60844000Y-40239000D02*
X58050000Y-37445000D01*
X86752000Y-40239000D02*
X60844000Y-40239000D01*
X86920000Y-40071000D02*
X86752000Y-40239000D01*
X73512000Y-37318000D02*
X74433000Y-37318000D01*
X74433000Y-37318000D02*
X75830000Y-35921000D01*
X75830000Y-35921000D02*
X78116000Y-35921000D01*
X78116000Y-35921000D02*
X79640000Y-37445000D01*
X87570000Y-38940000D02*
X87570000Y-40183000D01*
X86879000Y-40874000D02*
X78751000Y-40874000D01*
X87570000Y-40183000D02*
X86879000Y-40874000D01*
X104945000Y-30206000D02*
X99452000Y-30206000D01*
X99452000Y-30206000D02*
X98944000Y-29698000D01*
X98944000Y-29698000D02*
X96404000Y-29698000D01*
X96404000Y-29698000D02*
X94880000Y-31222000D01*
X94880000Y-31222000D02*
X94880000Y-34524000D01*
X88220000Y-38940000D02*
X88220000Y-40754500D01*
X90117500Y-36429000D02*
X90943000Y-37381500D01*
X89990500Y-36302000D02*
X90117500Y-36429000D01*
X88220000Y-40754500D02*
X88276000Y-40810500D01*
X90943000Y-37381500D02*
X96150000Y-37445000D01*
X108945000Y-27412000D02*
X115327000Y-27412000D01*
X119137000Y-36048000D02*
X117740000Y-37445000D01*
X119137000Y-31222000D02*
X119137000Y-36048000D01*
X115327000Y-27412000D02*
X119137000Y-31222000D01*
X88870000Y-38940000D02*
X88870000Y-40071000D01*
X113041000Y-35286000D02*
X115200000Y-37445000D01*
X92213000Y-35286000D02*
X113041000Y-35286000D01*
X91197000Y-36302000D02*
X92213000Y-35286000D01*
X88870000Y-40579000D02*
X89165000Y-40874000D01*
X88870000Y-40071000D02*
X88870000Y-40579000D01*
D23*
X105294000Y-33508000D02*
X108596000Y-30206000D01*
X108596000Y-30206000D02*
X108945000Y-30206000D01*
X104945000Y-27412000D02*
X108247000Y-24110000D01*
X108247000Y-24110000D02*
X118375000Y-24110000D01*
X70401000Y-56495000D02*
X72814000Y-58908000D01*
X105040000Y-58908000D02*
X105421000Y-58527000D01*
X72814000Y-58908000D02*
X105040000Y-58908000D01*
X78973000Y-124567000D02*
X82656000Y-128250000D01*
X68464000Y-124567000D02*
X78973000Y-124567000D01*
X105516000Y-58432000D02*
X105516000Y-56495000D01*
X105421000Y-58527000D02*
X105516000Y-58432000D01*
X109707000Y-97643000D02*
X107675000Y-95611000D01*
X105421000Y-77577000D02*
X105421000Y-75577000D01*
X107675000Y-95611000D02*
X105421000Y-95611000D01*
X105421000Y-75577000D02*
X105389000Y-75545000D01*
X104945000Y-27412000D02*
X105961000Y-28428000D01*
X107167000Y-28428000D02*
X108945000Y-30206000D01*
X105961000Y-28428000D02*
X107167000Y-28428000D01*
X109707000Y-97643000D02*
X109707000Y-100437000D01*
X109707000Y-97643000D02*
X113200000Y-97643000D01*
X113200000Y-97643000D02*
X113200000Y-100437000D01*
X67289000Y-113645000D02*
X70274000Y-113645000D01*
X66559000Y-111994000D02*
X66559000Y-112915000D01*
X66559000Y-112915000D02*
X67289000Y-113645000D01*
X66559000Y-92944000D02*
X66559000Y-93865000D01*
X66559000Y-93865000D02*
X67289000Y-94595000D01*
X66559000Y-74688000D02*
X67416000Y-75545000D01*
X66559000Y-73894000D02*
X66559000Y-74688000D01*
X67289000Y-37445000D02*
X66559000Y-38175000D01*
X66559000Y-38175000D02*
X66559000Y-39223000D01*
X66559000Y-55638000D02*
X67416000Y-56495000D01*
X66559000Y-54717000D02*
X66559000Y-55638000D01*
X67289000Y-94595000D02*
X70274000Y-94595000D01*
D21*
X82656000Y-128250000D02*
X85641000Y-128250000D01*
D23*
X67416000Y-75545000D02*
X70274000Y-75545000D01*
X105516000Y-56495000D02*
X108374000Y-56495000D01*
X67416000Y-56495000D02*
X70401000Y-56495000D01*
D21*
X67289000Y-37445000D02*
X70274000Y-37445000D01*
X100214000Y-38969000D02*
X100722000Y-38461000D01*
X100722000Y-38461000D02*
X112406000Y-38461000D01*
D22*
X90170000Y-38940000D02*
X90199000Y-38969000D01*
X90199000Y-38969000D02*
X100214000Y-38969000D01*
X112406000Y-38461000D02*
X113168000Y-37699000D01*
X90170000Y-113656000D02*
X90170000Y-115140000D01*
X90181000Y-113645000D02*
X90170000Y-113656000D01*
X90170000Y-38940000D02*
X90170000Y-40609000D01*
X90181000Y-75418000D02*
X90181000Y-77029000D01*
X90170000Y-40609000D02*
X90181000Y-40620000D01*
X90181000Y-77029000D02*
X90170000Y-77040000D01*
D23*
X85620000Y-44840000D02*
X85591000Y-44811000D01*
X85591000Y-44811000D02*
X84466000Y-44811000D01*
D21*
X84085000Y-113203000D02*
X84085000Y-111867000D01*
X84085000Y-75230000D02*
X84085000Y-73767000D01*
X84212000Y-37130000D02*
X84212000Y-35794000D01*
D23*
X84876000Y-121040000D02*
X85620000Y-121040000D01*
X84847000Y-121011000D02*
X84876000Y-121040000D01*
X84847000Y-82911000D02*
X85591000Y-82911000D01*
D22*
X92340000Y-62207460D02*
X86622460Y-62207460D01*
X86622460Y-62207460D02*
X84593000Y-60178000D01*
X68464000Y-60178000D02*
X68464000Y-60686000D01*
X90943000Y-23602000D02*
X85736000Y-23602000D01*
X85736000Y-23602000D02*
X84720000Y-22586000D01*
X84720000Y-22586000D02*
X80910000Y-22586000D01*
X80910000Y-22586000D02*
X75957000Y-27539000D01*
X75957000Y-27539000D02*
X68972000Y-27539000D01*
X68972000Y-27539000D02*
X68464000Y-28047000D01*
X90943000Y-23602000D02*
X92975000Y-21570000D01*
X72401000Y-60178000D02*
X84593000Y-60178000D01*
X68972000Y-60178000D02*
X72401000Y-60178000D01*
X72401000Y-60178000D02*
X72401000Y-62207460D01*
X54240000Y-62207460D02*
X56269460Y-60178000D01*
X56269460Y-60178000D02*
X68464000Y-60178000D01*
X68464000Y-60178000D02*
X68972000Y-60178000D01*
D21*
X60590000Y-56495000D02*
X63416000Y-56495000D01*
X88870000Y-43881000D02*
X88870000Y-43627000D01*
X88657000Y-41509000D02*
X86498000Y-41509000D01*
X88870000Y-43627000D02*
X88657000Y-43414000D01*
X62685500Y-41572500D02*
X57732500Y-41572500D01*
X86498000Y-41509000D02*
X62749000Y-41509000D01*
X62749000Y-41509000D02*
X62685500Y-41572500D01*
X57732500Y-41572500D02*
X57669000Y-41636000D01*
X88870000Y-44840000D02*
X88870000Y-43881000D01*
X74401000Y-56495000D02*
X74401000Y-56019000D01*
X74401000Y-56019000D02*
X75703000Y-54717000D01*
X75703000Y-54717000D02*
X78878000Y-54717000D01*
X78878000Y-54717000D02*
X79640000Y-55479000D01*
X79640000Y-55479000D02*
X79640000Y-56495000D01*
X77100000Y-56495000D02*
X78624000Y-58019000D01*
X78624000Y-58019000D02*
X88911000Y-58019000D01*
X88276000Y-45763500D02*
X88276000Y-44896000D01*
X88784000Y-46144500D02*
X88276000Y-45763500D01*
X88911000Y-46271500D02*
X88784000Y-46144500D01*
X88276000Y-44896000D02*
X88220000Y-44840000D01*
X101516000Y-56495000D02*
X98690000Y-56495000D01*
X87570000Y-44840000D02*
X87514000Y-44784000D01*
X87514000Y-44784000D02*
X87514000Y-42779000D01*
X88276000Y-56495000D02*
X96150000Y-56495000D01*
X117740000Y-56495000D02*
X117740000Y-57257000D01*
X117740000Y-57257000D02*
X116724000Y-58273000D01*
X116724000Y-58273000D02*
X114152000Y-58273000D01*
X114152000Y-58273000D02*
X112374000Y-56495000D01*
X86920000Y-44840000D02*
X86879000Y-44799000D01*
X86879000Y-44799000D02*
X86879000Y-43541000D01*
X87514000Y-54590000D02*
X113295000Y-54590000D01*
X113295000Y-54590000D02*
X115200000Y-56495000D01*
X63416000Y-75545000D02*
X60590000Y-75545000D01*
X86920000Y-77040000D02*
X86920000Y-77790000D01*
D22*
X86920000Y-77790000D02*
X86498000Y-78212000D01*
D21*
X86498000Y-78212000D02*
X60717000Y-78212000D01*
X60717000Y-78212000D02*
X58050000Y-75545000D01*
X74274000Y-75545000D02*
X74306000Y-75545000D01*
X74306000Y-75545000D02*
X75830000Y-77069000D01*
X75830000Y-77069000D02*
X78116000Y-77069000D01*
X78116000Y-77069000D02*
X79640000Y-75545000D01*
X78878000Y-73767000D02*
X79767000Y-72878000D01*
X79767000Y-72878000D02*
X87641000Y-72878000D01*
X87570000Y-77040000D02*
X87570000Y-75855000D01*
X78878000Y-73767000D02*
X77100000Y-75545000D01*
X98690000Y-75545000D02*
X101389000Y-75545000D01*
D22*
X96150000Y-75545000D02*
X94372000Y-73767000D01*
X88276000Y-73767000D02*
X94372000Y-73767000D01*
D21*
X88220000Y-77040000D02*
X88212500Y-75100500D01*
X95388000Y-74783000D02*
X96150000Y-75545000D01*
X60590000Y-94595000D02*
X63289000Y-94595000D01*
D22*
X57796000Y-79736000D02*
X58304000Y-79228000D01*
D21*
X88870000Y-79822000D02*
X88276000Y-79228000D01*
X88276000Y-79228000D02*
X62368000Y-79228000D01*
X88870000Y-82940000D02*
X88870000Y-79822000D01*
D22*
X58304000Y-79228000D02*
X62368000Y-79228000D01*
D21*
X74274000Y-94595000D02*
X74274000Y-95071000D01*
X74274000Y-95071000D02*
X75703000Y-96500000D01*
X75703000Y-96500000D02*
X78751000Y-96500000D01*
X78751000Y-96500000D02*
X79640000Y-95611000D01*
X79640000Y-95611000D02*
X79640000Y-94595000D01*
X77100000Y-94595000D02*
X75322000Y-92817000D01*
X88220000Y-80188000D02*
X88220000Y-82940000D01*
X87768000Y-79736000D02*
X88220000Y-80188000D01*
X79259000Y-79736000D02*
X87768000Y-79736000D01*
X77989000Y-81006000D02*
X79259000Y-79736000D01*
X77989000Y-86086000D02*
X77989000Y-81006000D01*
X75322000Y-88753000D02*
X77989000Y-86086000D01*
X75322000Y-92817000D02*
X75322000Y-88753000D01*
X105707000Y-97643000D02*
X101738000Y-97643000D01*
X101738000Y-97643000D02*
X98690000Y-94595000D01*
D22*
X87570000Y-82940000D02*
X87570000Y-84237000D01*
D21*
X87641000Y-94595000D02*
X96150000Y-94595000D01*
D22*
X87570000Y-84237000D02*
X87641000Y-84308000D01*
D21*
X117740000Y-85070000D02*
X117740000Y-97103000D01*
X117740000Y-97103000D02*
X117200000Y-97643000D01*
X86920000Y-82940000D02*
X86920000Y-81809000D01*
X113295000Y-86975000D02*
X115200000Y-85070000D01*
X99198000Y-86975000D02*
X113295000Y-86975000D01*
X96785000Y-84562000D02*
X99198000Y-86975000D01*
X92975000Y-84562000D02*
X96785000Y-84562000D01*
X91578000Y-85959000D02*
X92975000Y-84562000D01*
X84847000Y-85959000D02*
X91578000Y-85959000D01*
X84212000Y-85324000D02*
X84847000Y-85959000D01*
X84212000Y-82403000D02*
X84212000Y-85324000D01*
X84974000Y-81641000D02*
X84212000Y-82403000D01*
X86752000Y-81641000D02*
X84974000Y-81641000D01*
X86920000Y-81809000D02*
X86752000Y-81641000D01*
X60590000Y-113645000D02*
X63289000Y-113645000D01*
D22*
X86920000Y-115140000D02*
X86920000Y-115890000D01*
X86920000Y-115890000D02*
X86371000Y-116439000D01*
X86371000Y-116439000D02*
X60844000Y-116439000D01*
X60844000Y-116439000D02*
X58050000Y-113645000D01*
D21*
X74274000Y-113645000D02*
X74274000Y-114375000D01*
X74274000Y-114375000D02*
X75449000Y-115550000D01*
X75449000Y-115550000D02*
X78751000Y-115550000D01*
X78751000Y-115550000D02*
X79640000Y-114661000D01*
X79640000Y-114661000D02*
X79640000Y-113645000D01*
X79132000Y-111613000D02*
X79894000Y-110851000D01*
X79894000Y-110851000D02*
X87768000Y-110851000D01*
X87570000Y-113828000D02*
X87775412Y-113653401D01*
X87570000Y-113828000D02*
X87570000Y-115140000D01*
X77100000Y-113645000D02*
X79132000Y-111613000D01*
X105707000Y-100437000D02*
X105707000Y-102056000D01*
X100595000Y-111740000D02*
X98690000Y-113645000D01*
X100595000Y-107168000D02*
X100595000Y-111740000D01*
X105707000Y-102056000D02*
X100595000Y-107168000D01*
D22*
X88220000Y-115140000D02*
X88220000Y-116510000D01*
X93285000Y-116510000D02*
X96150000Y-113645000D01*
X88220000Y-116510000D02*
X93285000Y-116510000D01*
X67575000Y-132695000D02*
X69734000Y-130536000D01*
X88911000Y-122789000D02*
X88911000Y-121081000D01*
X69734000Y-130536000D02*
X88911000Y-130536000D01*
X88911000Y-121081000D02*
X88870000Y-121040000D01*
D21*
X77259000Y-129647000D02*
X78656000Y-128250000D01*
X71385000Y-129647000D02*
X77259000Y-129647000D01*
X89641000Y-128250000D02*
X92181000Y-130790000D01*
X97547000Y-130790000D02*
X98690000Y-131933000D01*
X92181000Y-130790000D02*
X97547000Y-130790000D01*
X98690000Y-131933000D02*
X98690000Y-132695000D01*
D22*
X96150000Y-132695000D02*
X87641000Y-132695000D01*
X87570000Y-122733000D02*
X87570000Y-121040000D01*
X87514000Y-122789000D02*
X87570000Y-122733000D01*
D21*
X117740000Y-123170000D02*
X119518000Y-121392000D01*
X117200000Y-107390000D02*
X117200000Y-100437000D01*
X121042000Y-111232000D02*
X117200000Y-107390000D01*
X121042000Y-114915000D02*
X121042000Y-111232000D01*
X119518000Y-116439000D02*
X121042000Y-114915000D01*
X119518000Y-121392000D02*
X119518000Y-116439000D01*
D22*
X115200000Y-123170000D02*
X113549000Y-124821000D01*
X86920000Y-123338000D02*
X86920000Y-121040000D01*
X87006000Y-123424000D02*
X86920000Y-123338000D01*
X91451000Y-123424000D02*
X87006000Y-123424000D01*
X91705000Y-123170000D02*
X91451000Y-123424000D01*
X95769000Y-123170000D02*
X91705000Y-123170000D01*
X97420000Y-124821000D02*
X95769000Y-123170000D01*
X113549000Y-124821000D02*
X97420000Y-124821000D01*
D21*
X107326000Y-59797000D02*
X89546000Y-59797000D01*
D22*
X89520000Y-122255000D02*
X89520000Y-121040000D01*
X89546000Y-122281000D02*
X89520000Y-122255000D01*
X89520000Y-44840000D02*
X89546000Y-44866000D01*
X89546000Y-44866000D02*
X89546000Y-46843000D01*
X89546000Y-84308000D02*
X89546000Y-82966000D01*
X89546000Y-82966000D02*
X89520000Y-82940000D01*
X89546000Y-82966000D02*
X89520000Y-82940000D01*
X88403000Y-60559000D02*
X86625000Y-60559000D01*
X107961000Y-60559000D02*
X88403000Y-60559000D01*
X88403000Y-60559000D02*
X88530000Y-60559000D01*
D21*
X86244000Y-122535000D02*
X86244000Y-121066000D01*
X86244000Y-121066000D02*
X86270000Y-121040000D01*
X86270000Y-44840000D02*
X86270000Y-46234000D01*
X86270000Y-46234000D02*
X86371000Y-46335000D01*
X86270000Y-84207000D02*
X86270000Y-82940000D01*
X86371000Y-84308000D02*
X86270000Y-84207000D01*
X86270000Y-38940000D02*
X86270000Y-37673000D01*
X86270000Y-37673000D02*
X87133000Y-36810000D01*
X87133000Y-36810000D02*
X87895000Y-36810000D01*
D23*
X85620000Y-38940000D02*
X85620000Y-37053000D01*
X85620000Y-37053000D02*
X85863000Y-36810000D01*
D22*
X89520000Y-77040000D02*
X89546000Y-77014000D01*
X89546000Y-77014000D02*
X89546000Y-75037000D01*
X89546000Y-75037000D02*
X88911000Y-74402000D01*
X88911000Y-74402000D02*
X86371000Y-74402000D01*
X86371000Y-74402000D02*
X85609000Y-75164000D01*
X85609000Y-75164000D02*
X85609000Y-75672000D01*
X89520000Y-115140000D02*
X89520000Y-113492000D01*
X86625000Y-112756000D02*
X85609000Y-113772000D01*
X88784000Y-112756000D02*
X86625000Y-112756000D01*
X89520000Y-113492000D02*
X88784000Y-112756000D01*
D21*
X84085000Y-115103000D02*
X85583000Y-115103000D01*
X85583000Y-115103000D02*
X85620000Y-115140000D01*
X84085000Y-77130000D02*
X85530000Y-77130000D01*
X85530000Y-77130000D02*
X85620000Y-77040000D01*
X84212000Y-39030000D02*
X85530000Y-39030000D01*
X85530000Y-39030000D02*
X85620000Y-38940000D01*
D22*
X89520000Y-38940000D02*
X89520000Y-37927000D01*
X89292000Y-33127000D02*
X87895000Y-31730000D01*
X89292000Y-37699000D02*
X89292000Y-33127000D01*
X89520000Y-37927000D02*
X89292000Y-37699000D01*
D23*
X85620000Y-113783000D02*
X85620000Y-115140000D01*
X85609000Y-113772000D02*
X85620000Y-113783000D01*
X85620000Y-75683000D02*
X85620000Y-77040000D01*
X85609000Y-75672000D02*
X85620000Y-75683000D01*
D21*
X90170000Y-44840000D02*
X90181000Y-47160500D01*
X86270000Y-75773000D02*
X86270000Y-76532000D01*
X86879000Y-75164000D02*
X86270000Y-75773000D01*
X89736500Y-47541500D02*
X86879000Y-47541500D01*
X90181000Y-47160500D02*
X89736500Y-47541500D01*
X86270000Y-115140000D02*
X86270000Y-114254000D01*
D22*
X90170000Y-84954000D02*
X90170000Y-82940000D01*
X90054000Y-85070000D02*
X90170000Y-84954000D01*
X86879000Y-85070000D02*
X90054000Y-85070000D01*
D21*
X86270000Y-114254000D02*
X86879000Y-113645000D01*
M02*
