G04 #@! TF.FileFunction,Legend,Top*
%FSLAX46Y46*%
G04 Gerber Fmt 4.6, Leading zero omitted, Abs format (unit mm)*
G04 Created by KiCad (PCBNEW 4.0.2-stable) date Tuesday, March 29, 2016 'PMt' 06:01:04 PM*
%MOMM*%
G01*
G04 APERTURE LIST*
%ADD10C,0.100000*%
%ADD11C,0.150000*%
%ADD12C,0.381000*%
%ADD13C,0.203200*%
G04 APERTURE END LIST*
D10*
D11*
X61860000Y-24107460D02*
X62876000Y-24107460D01*
X57034000Y-24107460D02*
X55764000Y-24107460D01*
X57288000Y-22837460D02*
X57288000Y-25377460D01*
X57542000Y-22837460D02*
X57542000Y-25377460D01*
X57796000Y-22837460D02*
X57796000Y-25377460D01*
X57034000Y-22837460D02*
X57034000Y-25377460D01*
X58050000Y-22837460D02*
X56780000Y-25377460D01*
X56780000Y-22837460D02*
X58050000Y-25377460D01*
X58050000Y-22837460D02*
X58050000Y-25377460D01*
X57415000Y-22837460D02*
X57415000Y-25377460D01*
X56780000Y-25377460D02*
X56780000Y-22837460D01*
X56780000Y-22837460D02*
X61860000Y-22837460D01*
X61860000Y-22837460D02*
X61860000Y-25377460D01*
X61860000Y-25377460D02*
X56780000Y-25377460D01*
X81545000Y-24107460D02*
X82561000Y-24107460D01*
X76719000Y-24107460D02*
X75449000Y-24107460D01*
X76973000Y-22837460D02*
X76973000Y-25377460D01*
X77227000Y-22837460D02*
X77227000Y-25377460D01*
X77481000Y-22837460D02*
X77481000Y-25377460D01*
X76719000Y-22837460D02*
X76719000Y-25377460D01*
X77735000Y-22837460D02*
X76465000Y-25377460D01*
X76465000Y-22837460D02*
X77735000Y-25377460D01*
X77735000Y-22837460D02*
X77735000Y-25377460D01*
X77100000Y-22837460D02*
X77100000Y-25377460D01*
X76465000Y-25377460D02*
X76465000Y-22837460D01*
X76465000Y-22837460D02*
X81545000Y-22837460D01*
X81545000Y-22837460D02*
X81545000Y-25377460D01*
X81545000Y-25377460D02*
X76465000Y-25377460D01*
X99960000Y-40617460D02*
X100976000Y-40617460D01*
X95134000Y-40617460D02*
X93864000Y-40617460D01*
X95388000Y-39347460D02*
X95388000Y-41887460D01*
X95642000Y-39347460D02*
X95642000Y-41887460D01*
X95896000Y-39347460D02*
X95896000Y-41887460D01*
X95134000Y-39347460D02*
X95134000Y-41887460D01*
X96150000Y-39347460D02*
X94880000Y-41887460D01*
X94880000Y-39347460D02*
X96150000Y-41887460D01*
X96150000Y-39347460D02*
X96150000Y-41887460D01*
X95515000Y-39347460D02*
X95515000Y-41887460D01*
X94880000Y-41887460D02*
X94880000Y-39347460D01*
X94880000Y-39347460D02*
X99960000Y-39347460D01*
X99960000Y-39347460D02*
X99960000Y-41887460D01*
X99960000Y-41887460D02*
X94880000Y-41887460D01*
X119010000Y-40617460D02*
X120026000Y-40617460D01*
X114184000Y-40617460D02*
X112914000Y-40617460D01*
X114438000Y-39347460D02*
X114438000Y-41887460D01*
X114692000Y-39347460D02*
X114692000Y-41887460D01*
X114946000Y-39347460D02*
X114946000Y-41887460D01*
X114184000Y-39347460D02*
X114184000Y-41887460D01*
X115200000Y-39347460D02*
X113930000Y-41887460D01*
X113930000Y-39347460D02*
X115200000Y-41887460D01*
X115200000Y-39347460D02*
X115200000Y-41887460D01*
X114565000Y-39347460D02*
X114565000Y-41887460D01*
X113930000Y-41887460D02*
X113930000Y-39347460D01*
X113930000Y-39347460D02*
X119010000Y-39347460D01*
X119010000Y-39347460D02*
X119010000Y-41887460D01*
X119010000Y-41887460D02*
X113930000Y-41887460D01*
X61860000Y-43157460D02*
X62876000Y-43157460D01*
X57034000Y-43157460D02*
X55764000Y-43157460D01*
X57288000Y-41887460D02*
X57288000Y-44427460D01*
X57542000Y-41887460D02*
X57542000Y-44427460D01*
X57796000Y-41887460D02*
X57796000Y-44427460D01*
X57034000Y-41887460D02*
X57034000Y-44427460D01*
X58050000Y-41887460D02*
X56780000Y-44427460D01*
X56780000Y-41887460D02*
X58050000Y-44427460D01*
X58050000Y-41887460D02*
X58050000Y-44427460D01*
X57415000Y-41887460D02*
X57415000Y-44427460D01*
X56780000Y-44427460D02*
X56780000Y-41887460D01*
X56780000Y-41887460D02*
X61860000Y-41887460D01*
X61860000Y-41887460D02*
X61860000Y-44427460D01*
X61860000Y-44427460D02*
X56780000Y-44427460D01*
X80021000Y-43284460D02*
X81037000Y-43284460D01*
X75195000Y-43284460D02*
X73925000Y-43284460D01*
X75449000Y-42014460D02*
X75449000Y-44554460D01*
X75703000Y-42014460D02*
X75703000Y-44554460D01*
X75957000Y-42014460D02*
X75957000Y-44554460D01*
X75195000Y-42014460D02*
X75195000Y-44554460D01*
X76211000Y-42014460D02*
X74941000Y-44554460D01*
X74941000Y-42014460D02*
X76211000Y-44554460D01*
X76211000Y-42014460D02*
X76211000Y-44554460D01*
X75576000Y-42014460D02*
X75576000Y-44554460D01*
X74941000Y-44554460D02*
X74941000Y-42014460D01*
X74941000Y-42014460D02*
X80021000Y-42014460D01*
X80021000Y-42014460D02*
X80021000Y-44554460D01*
X80021000Y-44554460D02*
X74941000Y-44554460D01*
X99960000Y-43157460D02*
X100976000Y-43157460D01*
X95134000Y-43157460D02*
X93864000Y-43157460D01*
X95388000Y-41887460D02*
X95388000Y-44427460D01*
X95642000Y-41887460D02*
X95642000Y-44427460D01*
X95896000Y-41887460D02*
X95896000Y-44427460D01*
X95134000Y-41887460D02*
X95134000Y-44427460D01*
X96150000Y-41887460D02*
X94880000Y-44427460D01*
X94880000Y-41887460D02*
X96150000Y-44427460D01*
X96150000Y-41887460D02*
X96150000Y-44427460D01*
X95515000Y-41887460D02*
X95515000Y-44427460D01*
X94880000Y-44427460D02*
X94880000Y-41887460D01*
X94880000Y-41887460D02*
X99960000Y-41887460D01*
X99960000Y-41887460D02*
X99960000Y-44427460D01*
X99960000Y-44427460D02*
X94880000Y-44427460D01*
X119010000Y-43157460D02*
X120026000Y-43157460D01*
X114184000Y-43157460D02*
X112914000Y-43157460D01*
X114438000Y-41887460D02*
X114438000Y-44427460D01*
X114692000Y-41887460D02*
X114692000Y-44427460D01*
X114946000Y-41887460D02*
X114946000Y-44427460D01*
X114184000Y-41887460D02*
X114184000Y-44427460D01*
X115200000Y-41887460D02*
X113930000Y-44427460D01*
X113930000Y-41887460D02*
X115200000Y-44427460D01*
X115200000Y-41887460D02*
X115200000Y-44427460D01*
X114565000Y-41887460D02*
X114565000Y-44427460D01*
X113930000Y-44427460D02*
X113930000Y-41887460D01*
X113930000Y-41887460D02*
X119010000Y-41887460D01*
X119010000Y-41887460D02*
X119010000Y-44427460D01*
X119010000Y-44427460D02*
X113930000Y-44427460D01*
X61860000Y-62207460D02*
X62876000Y-62207460D01*
X57034000Y-62207460D02*
X55764000Y-62207460D01*
X57288000Y-60937460D02*
X57288000Y-63477460D01*
X57542000Y-60937460D02*
X57542000Y-63477460D01*
X57796000Y-60937460D02*
X57796000Y-63477460D01*
X57034000Y-60937460D02*
X57034000Y-63477460D01*
X58050000Y-60937460D02*
X56780000Y-63477460D01*
X56780000Y-60937460D02*
X58050000Y-63477460D01*
X58050000Y-60937460D02*
X58050000Y-63477460D01*
X57415000Y-60937460D02*
X57415000Y-63477460D01*
X56780000Y-63477460D02*
X56780000Y-60937460D01*
X56780000Y-60937460D02*
X61860000Y-60937460D01*
X61860000Y-60937460D02*
X61860000Y-63477460D01*
X61860000Y-63477460D02*
X56780000Y-63477460D01*
X80021000Y-62207460D02*
X81037000Y-62207460D01*
X75195000Y-62207460D02*
X73925000Y-62207460D01*
X75449000Y-60937460D02*
X75449000Y-63477460D01*
X75703000Y-60937460D02*
X75703000Y-63477460D01*
X75957000Y-60937460D02*
X75957000Y-63477460D01*
X75195000Y-60937460D02*
X75195000Y-63477460D01*
X76211000Y-60937460D02*
X74941000Y-63477460D01*
X74941000Y-60937460D02*
X76211000Y-63477460D01*
X76211000Y-60937460D02*
X76211000Y-63477460D01*
X75576000Y-60937460D02*
X75576000Y-63477460D01*
X74941000Y-63477460D02*
X74941000Y-60937460D01*
X74941000Y-60937460D02*
X80021000Y-60937460D01*
X80021000Y-60937460D02*
X80021000Y-63477460D01*
X80021000Y-63477460D02*
X74941000Y-63477460D01*
X99960000Y-62207460D02*
X100976000Y-62207460D01*
X95134000Y-62207460D02*
X93864000Y-62207460D01*
X95388000Y-60937460D02*
X95388000Y-63477460D01*
X95642000Y-60937460D02*
X95642000Y-63477460D01*
X95896000Y-60937460D02*
X95896000Y-63477460D01*
X95134000Y-60937460D02*
X95134000Y-63477460D01*
X96150000Y-60937460D02*
X94880000Y-63477460D01*
X94880000Y-60937460D02*
X96150000Y-63477460D01*
X96150000Y-60937460D02*
X96150000Y-63477460D01*
X95515000Y-60937460D02*
X95515000Y-63477460D01*
X94880000Y-63477460D02*
X94880000Y-60937460D01*
X94880000Y-60937460D02*
X99960000Y-60937460D01*
X99960000Y-60937460D02*
X99960000Y-63477460D01*
X99960000Y-63477460D02*
X94880000Y-63477460D01*
X61860000Y-81257460D02*
X62876000Y-81257460D01*
X57034000Y-81257460D02*
X55764000Y-81257460D01*
X57288000Y-79987460D02*
X57288000Y-82527460D01*
X57542000Y-79987460D02*
X57542000Y-82527460D01*
X57796000Y-79987460D02*
X57796000Y-82527460D01*
X57034000Y-79987460D02*
X57034000Y-82527460D01*
X58050000Y-79987460D02*
X56780000Y-82527460D01*
X56780000Y-79987460D02*
X58050000Y-82527460D01*
X58050000Y-79987460D02*
X58050000Y-82527460D01*
X57415000Y-79987460D02*
X57415000Y-82527460D01*
X56780000Y-82527460D02*
X56780000Y-79987460D01*
X56780000Y-79987460D02*
X61860000Y-79987460D01*
X61860000Y-79987460D02*
X61860000Y-82527460D01*
X61860000Y-82527460D02*
X56780000Y-82527460D01*
X79894000Y-81257460D02*
X80910000Y-81257460D01*
X75068000Y-81257460D02*
X73798000Y-81257460D01*
X75322000Y-79987460D02*
X75322000Y-82527460D01*
X75576000Y-79987460D02*
X75576000Y-82527460D01*
X75830000Y-79987460D02*
X75830000Y-82527460D01*
X75068000Y-79987460D02*
X75068000Y-82527460D01*
X76084000Y-79987460D02*
X74814000Y-82527460D01*
X74814000Y-79987460D02*
X76084000Y-82527460D01*
X76084000Y-79987460D02*
X76084000Y-82527460D01*
X75449000Y-79987460D02*
X75449000Y-82527460D01*
X74814000Y-82527460D02*
X74814000Y-79987460D01*
X74814000Y-79987460D02*
X79894000Y-79987460D01*
X79894000Y-79987460D02*
X79894000Y-82527460D01*
X79894000Y-82527460D02*
X74814000Y-82527460D01*
X99960000Y-81257460D02*
X100976000Y-81257460D01*
X95134000Y-81257460D02*
X93864000Y-81257460D01*
X95388000Y-79987460D02*
X95388000Y-82527460D01*
X95642000Y-79987460D02*
X95642000Y-82527460D01*
X95896000Y-79987460D02*
X95896000Y-82527460D01*
X95134000Y-79987460D02*
X95134000Y-82527460D01*
X96150000Y-79987460D02*
X94880000Y-82527460D01*
X94880000Y-79987460D02*
X96150000Y-82527460D01*
X96150000Y-79987460D02*
X96150000Y-82527460D01*
X95515000Y-79987460D02*
X95515000Y-82527460D01*
X94880000Y-82527460D02*
X94880000Y-79987460D01*
X94880000Y-79987460D02*
X99960000Y-79987460D01*
X99960000Y-79987460D02*
X99960000Y-82527460D01*
X99960000Y-82527460D02*
X94880000Y-82527460D01*
X108212460Y-77450000D02*
X108212460Y-76434000D01*
X108212460Y-82276000D02*
X108212460Y-83546000D01*
X106942460Y-82022000D02*
X109482460Y-82022000D01*
X106942460Y-81768000D02*
X109482460Y-81768000D01*
X106942460Y-81514000D02*
X109482460Y-81514000D01*
X106942460Y-82276000D02*
X109482460Y-82276000D01*
X106942460Y-81260000D02*
X109482460Y-82530000D01*
X106942460Y-82530000D02*
X109482460Y-81260000D01*
X106942460Y-81260000D02*
X109482460Y-81260000D01*
X106942460Y-81895000D02*
X109482460Y-81895000D01*
X109482460Y-82530000D02*
X106942460Y-82530000D01*
X106942460Y-82530000D02*
X106942460Y-77450000D01*
X106942460Y-77450000D02*
X109482460Y-77450000D01*
X109482460Y-77450000D02*
X109482460Y-82530000D01*
X61860000Y-100307460D02*
X62876000Y-100307460D01*
X57034000Y-100307460D02*
X55764000Y-100307460D01*
X57288000Y-99037460D02*
X57288000Y-101577460D01*
X57542000Y-99037460D02*
X57542000Y-101577460D01*
X57796000Y-99037460D02*
X57796000Y-101577460D01*
X57034000Y-99037460D02*
X57034000Y-101577460D01*
X58050000Y-99037460D02*
X56780000Y-101577460D01*
X56780000Y-99037460D02*
X58050000Y-101577460D01*
X58050000Y-99037460D02*
X58050000Y-101577460D01*
X57415000Y-99037460D02*
X57415000Y-101577460D01*
X56780000Y-101577460D02*
X56780000Y-99037460D01*
X56780000Y-99037460D02*
X61860000Y-99037460D01*
X61860000Y-99037460D02*
X61860000Y-101577460D01*
X61860000Y-101577460D02*
X56780000Y-101577460D01*
X80021000Y-100307460D02*
X81037000Y-100307460D01*
X75195000Y-100307460D02*
X73925000Y-100307460D01*
X75449000Y-99037460D02*
X75449000Y-101577460D01*
X75703000Y-99037460D02*
X75703000Y-101577460D01*
X75957000Y-99037460D02*
X75957000Y-101577460D01*
X75195000Y-99037460D02*
X75195000Y-101577460D01*
X76211000Y-99037460D02*
X74941000Y-101577460D01*
X74941000Y-99037460D02*
X76211000Y-101577460D01*
X76211000Y-99037460D02*
X76211000Y-101577460D01*
X75576000Y-99037460D02*
X75576000Y-101577460D01*
X74941000Y-101577460D02*
X74941000Y-99037460D01*
X74941000Y-99037460D02*
X80021000Y-99037460D01*
X80021000Y-99037460D02*
X80021000Y-101577460D01*
X80021000Y-101577460D02*
X74941000Y-101577460D01*
X99960000Y-100307460D02*
X100976000Y-100307460D01*
X95134000Y-100307460D02*
X93864000Y-100307460D01*
X95388000Y-99037460D02*
X95388000Y-101577460D01*
X95642000Y-99037460D02*
X95642000Y-101577460D01*
X95896000Y-99037460D02*
X95896000Y-101577460D01*
X95134000Y-99037460D02*
X95134000Y-101577460D01*
X96150000Y-99037460D02*
X94880000Y-101577460D01*
X94880000Y-99037460D02*
X96150000Y-101577460D01*
X96150000Y-99037460D02*
X96150000Y-101577460D01*
X95515000Y-99037460D02*
X95515000Y-101577460D01*
X94880000Y-101577460D02*
X94880000Y-99037460D01*
X94880000Y-99037460D02*
X99960000Y-99037460D01*
X99960000Y-99037460D02*
X99960000Y-101577460D01*
X99960000Y-101577460D02*
X94880000Y-101577460D01*
X71385000Y-119357460D02*
X72401000Y-119357460D01*
X66559000Y-119357460D02*
X65289000Y-119357460D01*
X66813000Y-118087460D02*
X66813000Y-120627460D01*
X67067000Y-118087460D02*
X67067000Y-120627460D01*
X67321000Y-118087460D02*
X67321000Y-120627460D01*
X66559000Y-118087460D02*
X66559000Y-120627460D01*
X67575000Y-118087460D02*
X66305000Y-120627460D01*
X66305000Y-118087460D02*
X67575000Y-120627460D01*
X67575000Y-118087460D02*
X67575000Y-120627460D01*
X66940000Y-118087460D02*
X66940000Y-120627460D01*
X66305000Y-120627460D02*
X66305000Y-118087460D01*
X66305000Y-118087460D02*
X71385000Y-118087460D01*
X71385000Y-118087460D02*
X71385000Y-120627460D01*
X71385000Y-120627460D02*
X66305000Y-120627460D01*
X99960000Y-119357460D02*
X100976000Y-119357460D01*
X95134000Y-119357460D02*
X93864000Y-119357460D01*
X95388000Y-118087460D02*
X95388000Y-120627460D01*
X95642000Y-118087460D02*
X95642000Y-120627460D01*
X95896000Y-118087460D02*
X95896000Y-120627460D01*
X95134000Y-118087460D02*
X95134000Y-120627460D01*
X96150000Y-118087460D02*
X94880000Y-120627460D01*
X94880000Y-118087460D02*
X96150000Y-120627460D01*
X96150000Y-118087460D02*
X96150000Y-120627460D01*
X95515000Y-118087460D02*
X95515000Y-120627460D01*
X94880000Y-120627460D02*
X94880000Y-118087460D01*
X94880000Y-118087460D02*
X99960000Y-118087460D01*
X99960000Y-118087460D02*
X99960000Y-120627460D01*
X99960000Y-120627460D02*
X94880000Y-120627460D01*
X108212460Y-115550000D02*
X108212460Y-114534000D01*
X108212460Y-120376000D02*
X108212460Y-121646000D01*
X106942460Y-120122000D02*
X109482460Y-120122000D01*
X106942460Y-119868000D02*
X109482460Y-119868000D01*
X106942460Y-119614000D02*
X109482460Y-119614000D01*
X106942460Y-120376000D02*
X109482460Y-120376000D01*
X106942460Y-119360000D02*
X109482460Y-120630000D01*
X106942460Y-120630000D02*
X109482460Y-119360000D01*
X106942460Y-119360000D02*
X109482460Y-119360000D01*
X106942460Y-119995000D02*
X109482460Y-119995000D01*
X109482460Y-120630000D02*
X106942460Y-120630000D01*
X106942460Y-120630000D02*
X106942460Y-115550000D01*
X106942460Y-115550000D02*
X109482460Y-115550000D01*
X109482460Y-115550000D02*
X109482460Y-120630000D01*
X115708000Y-124821000D02*
X115708000Y-124440000D01*
X115708000Y-124440000D02*
X115708000Y-124313000D01*
X115708000Y-121519000D02*
X115708000Y-122027000D01*
X115708000Y-124821000D02*
G75*
G03X117994000Y-124313000I889000J1397000D01*
G01*
X117994000Y-122027000D02*
G75*
G03X115708000Y-121519000I-1397000J-889000D01*
G01*
X115835000Y-124313000D02*
G75*
G03X117359000Y-124313000I762000J762000D01*
G01*
X117359000Y-122027000D02*
G75*
G03X115835000Y-122027000I-762000J-762000D01*
G01*
D12*
X110120000Y-111740000D02*
X111898000Y-111740000D01*
X121042000Y-111740000D02*
X122820000Y-111740000D01*
X122820000Y-111740000D02*
X122820000Y-113518000D01*
X122820000Y-122662000D02*
X122820000Y-124440000D01*
X122820000Y-124440000D02*
X121042000Y-124440000D01*
X111898000Y-124440000D02*
X110120000Y-124440000D01*
X110120000Y-124440000D02*
X110120000Y-122662000D01*
X110120000Y-113518000D02*
X110120000Y-111740000D01*
D11*
X115708000Y-86721000D02*
X115708000Y-86340000D01*
X115708000Y-86340000D02*
X115708000Y-86213000D01*
X115708000Y-83419000D02*
X115708000Y-83927000D01*
X115708000Y-86721000D02*
G75*
G03X117994000Y-86213000I889000J1397000D01*
G01*
X117994000Y-83927000D02*
G75*
G03X115708000Y-83419000I-1397000J-889000D01*
G01*
X115835000Y-86213000D02*
G75*
G03X117359000Y-86213000I762000J762000D01*
G01*
X117359000Y-83927000D02*
G75*
G03X115835000Y-83927000I-762000J-762000D01*
G01*
D12*
X110120000Y-73640000D02*
X111898000Y-73640000D01*
X121042000Y-73640000D02*
X122820000Y-73640000D01*
X122820000Y-73640000D02*
X122820000Y-75418000D01*
X122820000Y-84562000D02*
X122820000Y-86340000D01*
X122820000Y-86340000D02*
X121042000Y-86340000D01*
X111898000Y-86340000D02*
X110120000Y-86340000D01*
X110120000Y-86340000D02*
X110120000Y-84562000D01*
X110120000Y-75418000D02*
X110120000Y-73640000D01*
D11*
X96658000Y-115296000D02*
X96658000Y-114915000D01*
X96658000Y-114915000D02*
X96658000Y-114788000D01*
X96658000Y-111994000D02*
X96658000Y-112502000D01*
X96658000Y-115296000D02*
G75*
G03X98944000Y-114788000I889000J1397000D01*
G01*
X98944000Y-112502000D02*
G75*
G03X96658000Y-111994000I-1397000J-889000D01*
G01*
X96785000Y-114788000D02*
G75*
G03X98309000Y-114788000I762000J762000D01*
G01*
X98309000Y-112502000D02*
G75*
G03X96785000Y-112502000I-762000J-762000D01*
G01*
D12*
X91070000Y-102215000D02*
X92848000Y-102215000D01*
X101992000Y-102215000D02*
X103770000Y-102215000D01*
X103770000Y-102215000D02*
X103770000Y-103993000D01*
X103770000Y-113137000D02*
X103770000Y-114915000D01*
X103770000Y-114915000D02*
X101992000Y-114915000D01*
X92848000Y-114915000D02*
X91070000Y-114915000D01*
X91070000Y-114915000D02*
X91070000Y-113137000D01*
X91070000Y-103993000D02*
X91070000Y-102215000D01*
D11*
X96658000Y-134346000D02*
X96658000Y-133965000D01*
X96658000Y-133965000D02*
X96658000Y-133838000D01*
X96658000Y-131044000D02*
X96658000Y-131552000D01*
X96658000Y-134346000D02*
G75*
G03X98944000Y-133838000I889000J1397000D01*
G01*
X98944000Y-131552000D02*
G75*
G03X96658000Y-131044000I-1397000J-889000D01*
G01*
X96785000Y-133838000D02*
G75*
G03X98309000Y-133838000I762000J762000D01*
G01*
X98309000Y-131552000D02*
G75*
G03X96785000Y-131552000I-762000J-762000D01*
G01*
D12*
X91070000Y-121265000D02*
X92848000Y-121265000D01*
X101992000Y-121265000D02*
X103770000Y-121265000D01*
X103770000Y-121265000D02*
X103770000Y-123043000D01*
X103770000Y-132187000D02*
X103770000Y-133965000D01*
X103770000Y-133965000D02*
X101992000Y-133965000D01*
X92848000Y-133965000D02*
X91070000Y-133965000D01*
X91070000Y-133965000D02*
X91070000Y-132187000D01*
X91070000Y-123043000D02*
X91070000Y-121265000D01*
D11*
X77608000Y-115296000D02*
X77608000Y-114915000D01*
X77608000Y-114915000D02*
X77608000Y-114788000D01*
X77608000Y-111994000D02*
X77608000Y-112502000D01*
X77608000Y-115296000D02*
G75*
G03X79894000Y-114788000I889000J1397000D01*
G01*
X79894000Y-112502000D02*
G75*
G03X77608000Y-111994000I-1397000J-889000D01*
G01*
X77735000Y-114788000D02*
G75*
G03X79259000Y-114788000I762000J762000D01*
G01*
X79259000Y-112502000D02*
G75*
G03X77735000Y-112502000I-762000J-762000D01*
G01*
D12*
X72020000Y-102215000D02*
X73798000Y-102215000D01*
X82942000Y-102215000D02*
X84720000Y-102215000D01*
X84720000Y-102215000D02*
X84720000Y-103993000D01*
X84720000Y-113137000D02*
X84720000Y-114915000D01*
X84720000Y-114915000D02*
X82942000Y-114915000D01*
X73798000Y-114915000D02*
X72020000Y-114915000D01*
X72020000Y-114915000D02*
X72020000Y-113137000D01*
X72020000Y-103993000D02*
X72020000Y-102215000D01*
D11*
X58558000Y-115296000D02*
X58558000Y-114915000D01*
X58558000Y-114915000D02*
X58558000Y-114788000D01*
X58558000Y-111994000D02*
X58558000Y-112502000D01*
X58558000Y-115296000D02*
G75*
G03X60844000Y-114788000I889000J1397000D01*
G01*
X60844000Y-112502000D02*
G75*
G03X58558000Y-111994000I-1397000J-889000D01*
G01*
X58685000Y-114788000D02*
G75*
G03X60209000Y-114788000I762000J762000D01*
G01*
X60209000Y-112502000D02*
G75*
G03X58685000Y-112502000I-762000J-762000D01*
G01*
D12*
X52970000Y-102215000D02*
X54748000Y-102215000D01*
X63892000Y-102215000D02*
X65670000Y-102215000D01*
X65670000Y-102215000D02*
X65670000Y-103993000D01*
X65670000Y-113137000D02*
X65670000Y-114915000D01*
X65670000Y-114915000D02*
X63892000Y-114915000D01*
X54748000Y-114915000D02*
X52970000Y-114915000D01*
X52970000Y-114915000D02*
X52970000Y-113137000D01*
X52970000Y-103993000D02*
X52970000Y-102215000D01*
D11*
X96658000Y-96246000D02*
X96658000Y-95865000D01*
X96658000Y-95865000D02*
X96658000Y-95738000D01*
X96658000Y-92944000D02*
X96658000Y-93452000D01*
X96658000Y-96246000D02*
G75*
G03X98944000Y-95738000I889000J1397000D01*
G01*
X98944000Y-93452000D02*
G75*
G03X96658000Y-92944000I-1397000J-889000D01*
G01*
X96785000Y-95738000D02*
G75*
G03X98309000Y-95738000I762000J762000D01*
G01*
X98309000Y-93452000D02*
G75*
G03X96785000Y-93452000I-762000J-762000D01*
G01*
D12*
X91070000Y-83165000D02*
X92848000Y-83165000D01*
X101992000Y-83165000D02*
X103770000Y-83165000D01*
X103770000Y-83165000D02*
X103770000Y-84943000D01*
X103770000Y-94087000D02*
X103770000Y-95865000D01*
X103770000Y-95865000D02*
X101992000Y-95865000D01*
X92848000Y-95865000D02*
X91070000Y-95865000D01*
X91070000Y-95865000D02*
X91070000Y-94087000D01*
X91070000Y-84943000D02*
X91070000Y-83165000D01*
D11*
X77608000Y-96246000D02*
X77608000Y-95865000D01*
X77608000Y-95865000D02*
X77608000Y-95738000D01*
X77608000Y-92944000D02*
X77608000Y-93452000D01*
X77608000Y-96246000D02*
G75*
G03X79894000Y-95738000I889000J1397000D01*
G01*
X79894000Y-93452000D02*
G75*
G03X77608000Y-92944000I-1397000J-889000D01*
G01*
X77735000Y-95738000D02*
G75*
G03X79259000Y-95738000I762000J762000D01*
G01*
X79259000Y-93452000D02*
G75*
G03X77735000Y-93452000I-762000J-762000D01*
G01*
D12*
X72020000Y-83165000D02*
X73798000Y-83165000D01*
X82942000Y-83165000D02*
X84720000Y-83165000D01*
X84720000Y-83165000D02*
X84720000Y-84943000D01*
X84720000Y-94087000D02*
X84720000Y-95865000D01*
X84720000Y-95865000D02*
X82942000Y-95865000D01*
X73798000Y-95865000D02*
X72020000Y-95865000D01*
X72020000Y-95865000D02*
X72020000Y-94087000D01*
X72020000Y-84943000D02*
X72020000Y-83165000D01*
D11*
X58558000Y-96246000D02*
X58558000Y-95865000D01*
X58558000Y-95865000D02*
X58558000Y-95738000D01*
X58558000Y-92944000D02*
X58558000Y-93452000D01*
X58558000Y-96246000D02*
G75*
G03X60844000Y-95738000I889000J1397000D01*
G01*
X60844000Y-93452000D02*
G75*
G03X58558000Y-92944000I-1397000J-889000D01*
G01*
X58685000Y-95738000D02*
G75*
G03X60209000Y-95738000I762000J762000D01*
G01*
X60209000Y-93452000D02*
G75*
G03X58685000Y-93452000I-762000J-762000D01*
G01*
D12*
X52970000Y-83165000D02*
X54748000Y-83165000D01*
X63892000Y-83165000D02*
X65670000Y-83165000D01*
X65670000Y-83165000D02*
X65670000Y-84943000D01*
X65670000Y-94087000D02*
X65670000Y-95865000D01*
X65670000Y-95865000D02*
X63892000Y-95865000D01*
X54748000Y-95865000D02*
X52970000Y-95865000D01*
X52970000Y-95865000D02*
X52970000Y-94087000D01*
X52970000Y-84943000D02*
X52970000Y-83165000D01*
D11*
X96658000Y-77196000D02*
X96658000Y-76815000D01*
X96658000Y-76815000D02*
X96658000Y-76688000D01*
X96658000Y-73894000D02*
X96658000Y-74402000D01*
X96658000Y-77196000D02*
G75*
G03X98944000Y-76688000I889000J1397000D01*
G01*
X98944000Y-74402000D02*
G75*
G03X96658000Y-73894000I-1397000J-889000D01*
G01*
X96785000Y-76688000D02*
G75*
G03X98309000Y-76688000I762000J762000D01*
G01*
X98309000Y-74402000D02*
G75*
G03X96785000Y-74402000I-762000J-762000D01*
G01*
D12*
X91070000Y-64115000D02*
X92848000Y-64115000D01*
X101992000Y-64115000D02*
X103770000Y-64115000D01*
X103770000Y-64115000D02*
X103770000Y-65893000D01*
X103770000Y-75037000D02*
X103770000Y-76815000D01*
X103770000Y-76815000D02*
X101992000Y-76815000D01*
X92848000Y-76815000D02*
X91070000Y-76815000D01*
X91070000Y-76815000D02*
X91070000Y-75037000D01*
X91070000Y-65893000D02*
X91070000Y-64115000D01*
D11*
X77608000Y-77196000D02*
X77608000Y-76815000D01*
X77608000Y-76815000D02*
X77608000Y-76688000D01*
X77608000Y-73894000D02*
X77608000Y-74402000D01*
X77608000Y-77196000D02*
G75*
G03X79894000Y-76688000I889000J1397000D01*
G01*
X79894000Y-74402000D02*
G75*
G03X77608000Y-73894000I-1397000J-889000D01*
G01*
X77735000Y-76688000D02*
G75*
G03X79259000Y-76688000I762000J762000D01*
G01*
X79259000Y-74402000D02*
G75*
G03X77735000Y-74402000I-762000J-762000D01*
G01*
D12*
X72020000Y-64115000D02*
X73798000Y-64115000D01*
X82942000Y-64115000D02*
X84720000Y-64115000D01*
X84720000Y-64115000D02*
X84720000Y-65893000D01*
X84720000Y-75037000D02*
X84720000Y-76815000D01*
X84720000Y-76815000D02*
X82942000Y-76815000D01*
X73798000Y-76815000D02*
X72020000Y-76815000D01*
X72020000Y-76815000D02*
X72020000Y-75037000D01*
X72020000Y-65893000D02*
X72020000Y-64115000D01*
D11*
X58558000Y-77196000D02*
X58558000Y-76815000D01*
X58558000Y-76815000D02*
X58558000Y-76688000D01*
X58558000Y-73894000D02*
X58558000Y-74402000D01*
X58558000Y-77196000D02*
G75*
G03X60844000Y-76688000I889000J1397000D01*
G01*
X60844000Y-74402000D02*
G75*
G03X58558000Y-73894000I-1397000J-889000D01*
G01*
X58685000Y-76688000D02*
G75*
G03X60209000Y-76688000I762000J762000D01*
G01*
X60209000Y-74402000D02*
G75*
G03X58685000Y-74402000I-762000J-762000D01*
G01*
D12*
X52970000Y-64115000D02*
X54748000Y-64115000D01*
X63892000Y-64115000D02*
X65670000Y-64115000D01*
X65670000Y-64115000D02*
X65670000Y-65893000D01*
X65670000Y-75037000D02*
X65670000Y-76815000D01*
X65670000Y-76815000D02*
X63892000Y-76815000D01*
X54748000Y-76815000D02*
X52970000Y-76815000D01*
X52970000Y-76815000D02*
X52970000Y-75037000D01*
X52970000Y-65893000D02*
X52970000Y-64115000D01*
D11*
X115708000Y-58146000D02*
X115708000Y-57765000D01*
X115708000Y-57765000D02*
X115708000Y-57638000D01*
X115708000Y-54844000D02*
X115708000Y-55352000D01*
X115708000Y-58146000D02*
G75*
G03X117994000Y-57638000I889000J1397000D01*
G01*
X117994000Y-55352000D02*
G75*
G03X115708000Y-54844000I-1397000J-889000D01*
G01*
X115835000Y-57638000D02*
G75*
G03X117359000Y-57638000I762000J762000D01*
G01*
X117359000Y-55352000D02*
G75*
G03X115835000Y-55352000I-762000J-762000D01*
G01*
D12*
X110120000Y-45065000D02*
X111898000Y-45065000D01*
X121042000Y-45065000D02*
X122820000Y-45065000D01*
X122820000Y-45065000D02*
X122820000Y-46843000D01*
X122820000Y-55987000D02*
X122820000Y-57765000D01*
X122820000Y-57765000D02*
X121042000Y-57765000D01*
X111898000Y-57765000D02*
X110120000Y-57765000D01*
X110120000Y-57765000D02*
X110120000Y-55987000D01*
X110120000Y-46843000D02*
X110120000Y-45065000D01*
D11*
X96658000Y-58146000D02*
X96658000Y-57765000D01*
X96658000Y-57765000D02*
X96658000Y-57638000D01*
X96658000Y-54844000D02*
X96658000Y-55352000D01*
X96658000Y-58146000D02*
G75*
G03X98944000Y-57638000I889000J1397000D01*
G01*
X98944000Y-55352000D02*
G75*
G03X96658000Y-54844000I-1397000J-889000D01*
G01*
X96785000Y-57638000D02*
G75*
G03X98309000Y-57638000I762000J762000D01*
G01*
X98309000Y-55352000D02*
G75*
G03X96785000Y-55352000I-762000J-762000D01*
G01*
D12*
X91070000Y-45065000D02*
X92848000Y-45065000D01*
X101992000Y-45065000D02*
X103770000Y-45065000D01*
X103770000Y-45065000D02*
X103770000Y-46843000D01*
X103770000Y-55987000D02*
X103770000Y-57765000D01*
X103770000Y-57765000D02*
X101992000Y-57765000D01*
X92848000Y-57765000D02*
X91070000Y-57765000D01*
X91070000Y-57765000D02*
X91070000Y-55987000D01*
X91070000Y-46843000D02*
X91070000Y-45065000D01*
D11*
X58558000Y-58146000D02*
X58558000Y-57765000D01*
X58558000Y-57765000D02*
X58558000Y-57638000D01*
X58558000Y-54844000D02*
X58558000Y-55352000D01*
X58558000Y-58146000D02*
G75*
G03X60844000Y-57638000I889000J1397000D01*
G01*
X60844000Y-55352000D02*
G75*
G03X58558000Y-54844000I-1397000J-889000D01*
G01*
X58685000Y-57638000D02*
G75*
G03X60209000Y-57638000I762000J762000D01*
G01*
X60209000Y-55352000D02*
G75*
G03X58685000Y-55352000I-762000J-762000D01*
G01*
D12*
X52970000Y-45065000D02*
X54748000Y-45065000D01*
X63892000Y-45065000D02*
X65670000Y-45065000D01*
X65670000Y-45065000D02*
X65670000Y-46843000D01*
X65670000Y-55987000D02*
X65670000Y-57765000D01*
X65670000Y-57765000D02*
X63892000Y-57765000D01*
X54748000Y-57765000D02*
X52970000Y-57765000D01*
X52970000Y-57765000D02*
X52970000Y-55987000D01*
X52970000Y-46843000D02*
X52970000Y-45065000D01*
D11*
X115708000Y-39096000D02*
X115708000Y-38715000D01*
X115708000Y-38715000D02*
X115708000Y-38588000D01*
X115708000Y-35794000D02*
X115708000Y-36302000D01*
X115708000Y-39096000D02*
G75*
G03X117994000Y-38588000I889000J1397000D01*
G01*
X117994000Y-36302000D02*
G75*
G03X115708000Y-35794000I-1397000J-889000D01*
G01*
X115835000Y-38588000D02*
G75*
G03X117359000Y-38588000I762000J762000D01*
G01*
X117359000Y-36302000D02*
G75*
G03X115835000Y-36302000I-762000J-762000D01*
G01*
D12*
X110120000Y-26015000D02*
X111898000Y-26015000D01*
X121042000Y-26015000D02*
X122820000Y-26015000D01*
X122820000Y-26015000D02*
X122820000Y-27793000D01*
X122820000Y-36937000D02*
X122820000Y-38715000D01*
X122820000Y-38715000D02*
X121042000Y-38715000D01*
X111898000Y-38715000D02*
X110120000Y-38715000D01*
X110120000Y-38715000D02*
X110120000Y-36937000D01*
X110120000Y-27793000D02*
X110120000Y-26015000D01*
D11*
X96658000Y-39096000D02*
X96658000Y-38715000D01*
X96658000Y-38715000D02*
X96658000Y-38588000D01*
X96658000Y-35794000D02*
X96658000Y-36302000D01*
X96658000Y-39096000D02*
G75*
G03X98944000Y-38588000I889000J1397000D01*
G01*
X98944000Y-36302000D02*
G75*
G03X96658000Y-35794000I-1397000J-889000D01*
G01*
X96785000Y-38588000D02*
G75*
G03X98309000Y-38588000I762000J762000D01*
G01*
X98309000Y-36302000D02*
G75*
G03X96785000Y-36302000I-762000J-762000D01*
G01*
D12*
X91070000Y-26015000D02*
X92848000Y-26015000D01*
X101992000Y-26015000D02*
X103770000Y-26015000D01*
X103770000Y-26015000D02*
X103770000Y-27793000D01*
X103770000Y-36937000D02*
X103770000Y-38715000D01*
X103770000Y-38715000D02*
X101992000Y-38715000D01*
X92848000Y-38715000D02*
X91070000Y-38715000D01*
X91070000Y-38715000D02*
X91070000Y-36937000D01*
X91070000Y-27793000D02*
X91070000Y-26015000D01*
D11*
X77608000Y-39096000D02*
X77608000Y-38715000D01*
X77608000Y-38715000D02*
X77608000Y-38588000D01*
X77608000Y-35794000D02*
X77608000Y-36302000D01*
X77608000Y-39096000D02*
G75*
G03X79894000Y-38588000I889000J1397000D01*
G01*
X79894000Y-36302000D02*
G75*
G03X77608000Y-35794000I-1397000J-889000D01*
G01*
X77735000Y-38588000D02*
G75*
G03X79259000Y-38588000I762000J762000D01*
G01*
X79259000Y-36302000D02*
G75*
G03X77735000Y-36302000I-762000J-762000D01*
G01*
D12*
X72020000Y-26015000D02*
X73798000Y-26015000D01*
X82942000Y-26015000D02*
X84720000Y-26015000D01*
X84720000Y-26015000D02*
X84720000Y-27793000D01*
X84720000Y-36937000D02*
X84720000Y-38715000D01*
X84720000Y-38715000D02*
X82942000Y-38715000D01*
X73798000Y-38715000D02*
X72020000Y-38715000D01*
X72020000Y-38715000D02*
X72020000Y-36937000D01*
X72020000Y-27793000D02*
X72020000Y-26015000D01*
D11*
X58558000Y-39096000D02*
X58558000Y-38715000D01*
X58558000Y-38715000D02*
X58558000Y-38588000D01*
X58558000Y-35794000D02*
X58558000Y-36302000D01*
X58558000Y-39096000D02*
G75*
G03X60844000Y-38588000I889000J1397000D01*
G01*
X60844000Y-36302000D02*
G75*
G03X58558000Y-35794000I-1397000J-889000D01*
G01*
X58685000Y-38588000D02*
G75*
G03X60209000Y-38588000I762000J762000D01*
G01*
X60209000Y-36302000D02*
G75*
G03X58685000Y-36302000I-762000J-762000D01*
G01*
D12*
X52970000Y-26015000D02*
X54748000Y-26015000D01*
X63892000Y-26015000D02*
X65670000Y-26015000D01*
X65670000Y-26015000D02*
X65670000Y-27793000D01*
X65670000Y-36937000D02*
X65670000Y-38715000D01*
X65670000Y-38715000D02*
X63892000Y-38715000D01*
X54748000Y-38715000D02*
X52970000Y-38715000D01*
X52970000Y-38715000D02*
X52970000Y-36937000D01*
X52970000Y-27793000D02*
X52970000Y-26015000D01*
D11*
X77608000Y-58146000D02*
X77608000Y-57765000D01*
X77608000Y-57765000D02*
X77608000Y-57638000D01*
X77608000Y-54844000D02*
X77608000Y-55352000D01*
X77608000Y-58146000D02*
G75*
G03X79894000Y-57638000I889000J1397000D01*
G01*
X79894000Y-55352000D02*
G75*
G03X77608000Y-54844000I-1397000J-889000D01*
G01*
X77735000Y-57638000D02*
G75*
G03X79259000Y-57638000I762000J762000D01*
G01*
X79259000Y-55352000D02*
G75*
G03X77735000Y-55352000I-762000J-762000D01*
G01*
D12*
X72020000Y-45065000D02*
X73798000Y-45065000D01*
X82942000Y-45065000D02*
X84720000Y-45065000D01*
X84720000Y-45065000D02*
X84720000Y-46843000D01*
X84720000Y-55987000D02*
X84720000Y-57765000D01*
X84720000Y-57765000D02*
X82942000Y-57765000D01*
X73798000Y-57765000D02*
X72020000Y-57765000D01*
X72020000Y-57765000D02*
X72020000Y-55987000D01*
X72020000Y-46843000D02*
X72020000Y-45065000D01*
D11*
X68083000Y-134346000D02*
X68083000Y-133965000D01*
X68083000Y-133965000D02*
X68083000Y-133838000D01*
X68083000Y-131044000D02*
X68083000Y-131552000D01*
X68083000Y-134346000D02*
G75*
G03X70369000Y-133838000I889000J1397000D01*
G01*
X70369000Y-131552000D02*
G75*
G03X68083000Y-131044000I-1397000J-889000D01*
G01*
X68210000Y-133838000D02*
G75*
G03X69734000Y-133838000I762000J762000D01*
G01*
X69734000Y-131552000D02*
G75*
G03X68210000Y-131552000I-762000J-762000D01*
G01*
D12*
X62495000Y-121265000D02*
X64273000Y-121265000D01*
X73417000Y-121265000D02*
X75195000Y-121265000D01*
X75195000Y-121265000D02*
X75195000Y-123043000D01*
X75195000Y-132187000D02*
X75195000Y-133965000D01*
X75195000Y-133965000D02*
X73417000Y-133965000D01*
X64273000Y-133965000D02*
X62495000Y-133965000D01*
X62495000Y-133965000D02*
X62495000Y-132187000D01*
X62495000Y-123043000D02*
X62495000Y-121265000D01*
D11*
X53501905Y-22657381D02*
X53501905Y-21657381D01*
X53740000Y-21657381D01*
X53882858Y-21705000D01*
X53978096Y-21800238D01*
X54025715Y-21895476D01*
X54073334Y-22085952D01*
X54073334Y-22228810D01*
X54025715Y-22419286D01*
X53978096Y-22514524D01*
X53882858Y-22609762D01*
X53740000Y-22657381D01*
X53501905Y-22657381D01*
X55025715Y-22657381D02*
X54454286Y-22657381D01*
X54740000Y-22657381D02*
X54740000Y-21657381D01*
X54644762Y-21800238D01*
X54549524Y-21895476D01*
X54454286Y-21943095D01*
X73186905Y-22657381D02*
X73186905Y-21657381D01*
X73425000Y-21657381D01*
X73567858Y-21705000D01*
X73663096Y-21800238D01*
X73710715Y-21895476D01*
X73758334Y-22085952D01*
X73758334Y-22228810D01*
X73710715Y-22419286D01*
X73663096Y-22514524D01*
X73567858Y-22609762D01*
X73425000Y-22657381D01*
X73186905Y-22657381D01*
X74139286Y-21752619D02*
X74186905Y-21705000D01*
X74282143Y-21657381D01*
X74520239Y-21657381D01*
X74615477Y-21705000D01*
X74663096Y-21752619D01*
X74710715Y-21847857D01*
X74710715Y-21943095D01*
X74663096Y-22085952D01*
X74091667Y-22657381D01*
X74710715Y-22657381D01*
X89061905Y-41072381D02*
X89061905Y-40072381D01*
X89300000Y-40072381D01*
X89442858Y-40120000D01*
X89538096Y-40215238D01*
X89585715Y-40310476D01*
X89633334Y-40500952D01*
X89633334Y-40643810D01*
X89585715Y-40834286D01*
X89538096Y-40929524D01*
X89442858Y-41024762D01*
X89300000Y-41072381D01*
X89061905Y-41072381D01*
X89966667Y-40072381D02*
X90585715Y-40072381D01*
X90252381Y-40453333D01*
X90395239Y-40453333D01*
X90490477Y-40500952D01*
X90538096Y-40548571D01*
X90585715Y-40643810D01*
X90585715Y-40881905D01*
X90538096Y-40977143D01*
X90490477Y-41024762D01*
X90395239Y-41072381D01*
X90109524Y-41072381D01*
X90014286Y-41024762D01*
X89966667Y-40977143D01*
X108111905Y-41072381D02*
X108111905Y-40072381D01*
X108350000Y-40072381D01*
X108492858Y-40120000D01*
X108588096Y-40215238D01*
X108635715Y-40310476D01*
X108683334Y-40500952D01*
X108683334Y-40643810D01*
X108635715Y-40834286D01*
X108588096Y-40929524D01*
X108492858Y-41024762D01*
X108350000Y-41072381D01*
X108111905Y-41072381D01*
X109540477Y-40405714D02*
X109540477Y-41072381D01*
X109302381Y-40024762D02*
X109064286Y-40739048D01*
X109683334Y-40739048D01*
X53501905Y-41707381D02*
X53501905Y-40707381D01*
X53740000Y-40707381D01*
X53882858Y-40755000D01*
X53978096Y-40850238D01*
X54025715Y-40945476D01*
X54073334Y-41135952D01*
X54073334Y-41278810D01*
X54025715Y-41469286D01*
X53978096Y-41564524D01*
X53882858Y-41659762D01*
X53740000Y-41707381D01*
X53501905Y-41707381D01*
X54978096Y-40707381D02*
X54501905Y-40707381D01*
X54454286Y-41183571D01*
X54501905Y-41135952D01*
X54597143Y-41088333D01*
X54835239Y-41088333D01*
X54930477Y-41135952D01*
X54978096Y-41183571D01*
X55025715Y-41278810D01*
X55025715Y-41516905D01*
X54978096Y-41612143D01*
X54930477Y-41659762D01*
X54835239Y-41707381D01*
X54597143Y-41707381D01*
X54501905Y-41659762D01*
X54454286Y-41612143D01*
X71281905Y-41707381D02*
X71281905Y-40707381D01*
X71520000Y-40707381D01*
X71662858Y-40755000D01*
X71758096Y-40850238D01*
X71805715Y-40945476D01*
X71853334Y-41135952D01*
X71853334Y-41278810D01*
X71805715Y-41469286D01*
X71758096Y-41564524D01*
X71662858Y-41659762D01*
X71520000Y-41707381D01*
X71281905Y-41707381D01*
X72710477Y-40707381D02*
X72520000Y-40707381D01*
X72424762Y-40755000D01*
X72377143Y-40802619D01*
X72281905Y-40945476D01*
X72234286Y-41135952D01*
X72234286Y-41516905D01*
X72281905Y-41612143D01*
X72329524Y-41659762D01*
X72424762Y-41707381D01*
X72615239Y-41707381D01*
X72710477Y-41659762D01*
X72758096Y-41612143D01*
X72805715Y-41516905D01*
X72805715Y-41278810D01*
X72758096Y-41183571D01*
X72710477Y-41135952D01*
X72615239Y-41088333D01*
X72424762Y-41088333D01*
X72329524Y-41135952D01*
X72281905Y-41183571D01*
X72234286Y-41278810D01*
X89061905Y-43612381D02*
X89061905Y-42612381D01*
X89300000Y-42612381D01*
X89442858Y-42660000D01*
X89538096Y-42755238D01*
X89585715Y-42850476D01*
X89633334Y-43040952D01*
X89633334Y-43183810D01*
X89585715Y-43374286D01*
X89538096Y-43469524D01*
X89442858Y-43564762D01*
X89300000Y-43612381D01*
X89061905Y-43612381D01*
X89966667Y-42612381D02*
X90633334Y-42612381D01*
X90204762Y-43612381D01*
X108111905Y-43612381D02*
X108111905Y-42612381D01*
X108350000Y-42612381D01*
X108492858Y-42660000D01*
X108588096Y-42755238D01*
X108635715Y-42850476D01*
X108683334Y-43040952D01*
X108683334Y-43183810D01*
X108635715Y-43374286D01*
X108588096Y-43469524D01*
X108492858Y-43564762D01*
X108350000Y-43612381D01*
X108111905Y-43612381D01*
X109254762Y-43040952D02*
X109159524Y-42993333D01*
X109111905Y-42945714D01*
X109064286Y-42850476D01*
X109064286Y-42802857D01*
X109111905Y-42707619D01*
X109159524Y-42660000D01*
X109254762Y-42612381D01*
X109445239Y-42612381D01*
X109540477Y-42660000D01*
X109588096Y-42707619D01*
X109635715Y-42802857D01*
X109635715Y-42850476D01*
X109588096Y-42945714D01*
X109540477Y-42993333D01*
X109445239Y-43040952D01*
X109254762Y-43040952D01*
X109159524Y-43088571D01*
X109111905Y-43136190D01*
X109064286Y-43231429D01*
X109064286Y-43421905D01*
X109111905Y-43517143D01*
X109159524Y-43564762D01*
X109254762Y-43612381D01*
X109445239Y-43612381D01*
X109540477Y-43564762D01*
X109588096Y-43517143D01*
X109635715Y-43421905D01*
X109635715Y-43231429D01*
X109588096Y-43136190D01*
X109540477Y-43088571D01*
X109445239Y-43040952D01*
X53501905Y-60757381D02*
X53501905Y-59757381D01*
X53740000Y-59757381D01*
X53882858Y-59805000D01*
X53978096Y-59900238D01*
X54025715Y-59995476D01*
X54073334Y-60185952D01*
X54073334Y-60328810D01*
X54025715Y-60519286D01*
X53978096Y-60614524D01*
X53882858Y-60709762D01*
X53740000Y-60757381D01*
X53501905Y-60757381D01*
X54549524Y-60757381D02*
X54740000Y-60757381D01*
X54835239Y-60709762D01*
X54882858Y-60662143D01*
X54978096Y-60519286D01*
X55025715Y-60328810D01*
X55025715Y-59947857D01*
X54978096Y-59852619D01*
X54930477Y-59805000D01*
X54835239Y-59757381D01*
X54644762Y-59757381D01*
X54549524Y-59805000D01*
X54501905Y-59852619D01*
X54454286Y-59947857D01*
X54454286Y-60185952D01*
X54501905Y-60281190D01*
X54549524Y-60328810D01*
X54644762Y-60376429D01*
X54835239Y-60376429D01*
X54930477Y-60328810D01*
X54978096Y-60281190D01*
X55025715Y-60185952D01*
X71440714Y-60757381D02*
X71440714Y-59757381D01*
X71678809Y-59757381D01*
X71821667Y-59805000D01*
X71916905Y-59900238D01*
X71964524Y-59995476D01*
X72012143Y-60185952D01*
X72012143Y-60328810D01*
X71964524Y-60519286D01*
X71916905Y-60614524D01*
X71821667Y-60709762D01*
X71678809Y-60757381D01*
X71440714Y-60757381D01*
X72964524Y-60757381D02*
X72393095Y-60757381D01*
X72678809Y-60757381D02*
X72678809Y-59757381D01*
X72583571Y-59900238D01*
X72488333Y-59995476D01*
X72393095Y-60043095D01*
X73583571Y-59757381D02*
X73678810Y-59757381D01*
X73774048Y-59805000D01*
X73821667Y-59852619D01*
X73869286Y-59947857D01*
X73916905Y-60138333D01*
X73916905Y-60376429D01*
X73869286Y-60566905D01*
X73821667Y-60662143D01*
X73774048Y-60709762D01*
X73678810Y-60757381D01*
X73583571Y-60757381D01*
X73488333Y-60709762D01*
X73440714Y-60662143D01*
X73393095Y-60566905D01*
X73345476Y-60376429D01*
X73345476Y-60138333D01*
X73393095Y-59947857D01*
X73440714Y-59852619D01*
X73488333Y-59805000D01*
X73583571Y-59757381D01*
X91125714Y-60757381D02*
X91125714Y-59757381D01*
X91363809Y-59757381D01*
X91506667Y-59805000D01*
X91601905Y-59900238D01*
X91649524Y-59995476D01*
X91697143Y-60185952D01*
X91697143Y-60328810D01*
X91649524Y-60519286D01*
X91601905Y-60614524D01*
X91506667Y-60709762D01*
X91363809Y-60757381D01*
X91125714Y-60757381D01*
X92649524Y-60757381D02*
X92078095Y-60757381D01*
X92363809Y-60757381D02*
X92363809Y-59757381D01*
X92268571Y-59900238D01*
X92173333Y-59995476D01*
X92078095Y-60043095D01*
X93601905Y-60757381D02*
X93030476Y-60757381D01*
X93316190Y-60757381D02*
X93316190Y-59757381D01*
X93220952Y-59900238D01*
X93125714Y-59995476D01*
X93030476Y-60043095D01*
X53025714Y-79807381D02*
X53025714Y-78807381D01*
X53263809Y-78807381D01*
X53406667Y-78855000D01*
X53501905Y-78950238D01*
X53549524Y-79045476D01*
X53597143Y-79235952D01*
X53597143Y-79378810D01*
X53549524Y-79569286D01*
X53501905Y-79664524D01*
X53406667Y-79759762D01*
X53263809Y-79807381D01*
X53025714Y-79807381D01*
X54549524Y-79807381D02*
X53978095Y-79807381D01*
X54263809Y-79807381D02*
X54263809Y-78807381D01*
X54168571Y-78950238D01*
X54073333Y-79045476D01*
X53978095Y-79093095D01*
X54882857Y-78807381D02*
X55501905Y-78807381D01*
X55168571Y-79188333D01*
X55311429Y-79188333D01*
X55406667Y-79235952D01*
X55454286Y-79283571D01*
X55501905Y-79378810D01*
X55501905Y-79616905D01*
X55454286Y-79712143D01*
X55406667Y-79759762D01*
X55311429Y-79807381D01*
X55025714Y-79807381D01*
X54930476Y-79759762D01*
X54882857Y-79712143D01*
X71440714Y-79807381D02*
X71440714Y-78807381D01*
X71678809Y-78807381D01*
X71821667Y-78855000D01*
X71916905Y-78950238D01*
X71964524Y-79045476D01*
X72012143Y-79235952D01*
X72012143Y-79378810D01*
X71964524Y-79569286D01*
X71916905Y-79664524D01*
X71821667Y-79759762D01*
X71678809Y-79807381D01*
X71440714Y-79807381D01*
X72964524Y-79807381D02*
X72393095Y-79807381D01*
X72678809Y-79807381D02*
X72678809Y-78807381D01*
X72583571Y-78950238D01*
X72488333Y-79045476D01*
X72393095Y-79093095D01*
X73821667Y-79140714D02*
X73821667Y-79807381D01*
X73583571Y-78759762D02*
X73345476Y-79474048D01*
X73964524Y-79474048D01*
X91125714Y-79807381D02*
X91125714Y-78807381D01*
X91363809Y-78807381D01*
X91506667Y-78855000D01*
X91601905Y-78950238D01*
X91649524Y-79045476D01*
X91697143Y-79235952D01*
X91697143Y-79378810D01*
X91649524Y-79569286D01*
X91601905Y-79664524D01*
X91506667Y-79759762D01*
X91363809Y-79807381D01*
X91125714Y-79807381D01*
X92649524Y-79807381D02*
X92078095Y-79807381D01*
X92363809Y-79807381D02*
X92363809Y-78807381D01*
X92268571Y-78950238D01*
X92173333Y-79045476D01*
X92078095Y-79093095D01*
X93554286Y-78807381D02*
X93078095Y-78807381D01*
X93030476Y-79283571D01*
X93078095Y-79235952D01*
X93173333Y-79188333D01*
X93411429Y-79188333D01*
X93506667Y-79235952D01*
X93554286Y-79283571D01*
X93601905Y-79378810D01*
X93601905Y-79616905D01*
X93554286Y-79712143D01*
X93506667Y-79759762D01*
X93411429Y-79807381D01*
X93173333Y-79807381D01*
X93078095Y-79759762D01*
X93030476Y-79712143D01*
X107000714Y-87427381D02*
X107000714Y-86427381D01*
X107238809Y-86427381D01*
X107381667Y-86475000D01*
X107476905Y-86570238D01*
X107524524Y-86665476D01*
X107572143Y-86855952D01*
X107572143Y-86998810D01*
X107524524Y-87189286D01*
X107476905Y-87284524D01*
X107381667Y-87379762D01*
X107238809Y-87427381D01*
X107000714Y-87427381D01*
X108524524Y-87427381D02*
X107953095Y-87427381D01*
X108238809Y-87427381D02*
X108238809Y-86427381D01*
X108143571Y-86570238D01*
X108048333Y-86665476D01*
X107953095Y-86713095D01*
X109381667Y-86427381D02*
X109191190Y-86427381D01*
X109095952Y-86475000D01*
X109048333Y-86522619D01*
X108953095Y-86665476D01*
X108905476Y-86855952D01*
X108905476Y-87236905D01*
X108953095Y-87332143D01*
X109000714Y-87379762D01*
X109095952Y-87427381D01*
X109286429Y-87427381D01*
X109381667Y-87379762D01*
X109429286Y-87332143D01*
X109476905Y-87236905D01*
X109476905Y-86998810D01*
X109429286Y-86903571D01*
X109381667Y-86855952D01*
X109286429Y-86808333D01*
X109095952Y-86808333D01*
X109000714Y-86855952D01*
X108953095Y-86903571D01*
X108905476Y-86998810D01*
X53025714Y-98857381D02*
X53025714Y-97857381D01*
X53263809Y-97857381D01*
X53406667Y-97905000D01*
X53501905Y-98000238D01*
X53549524Y-98095476D01*
X53597143Y-98285952D01*
X53597143Y-98428810D01*
X53549524Y-98619286D01*
X53501905Y-98714524D01*
X53406667Y-98809762D01*
X53263809Y-98857381D01*
X53025714Y-98857381D01*
X54549524Y-98857381D02*
X53978095Y-98857381D01*
X54263809Y-98857381D02*
X54263809Y-97857381D01*
X54168571Y-98000238D01*
X54073333Y-98095476D01*
X53978095Y-98143095D01*
X54882857Y-97857381D02*
X55549524Y-97857381D01*
X55120952Y-98857381D01*
X71440714Y-98857381D02*
X71440714Y-97857381D01*
X71678809Y-97857381D01*
X71821667Y-97905000D01*
X71916905Y-98000238D01*
X71964524Y-98095476D01*
X72012143Y-98285952D01*
X72012143Y-98428810D01*
X71964524Y-98619286D01*
X71916905Y-98714524D01*
X71821667Y-98809762D01*
X71678809Y-98857381D01*
X71440714Y-98857381D01*
X72964524Y-98857381D02*
X72393095Y-98857381D01*
X72678809Y-98857381D02*
X72678809Y-97857381D01*
X72583571Y-98000238D01*
X72488333Y-98095476D01*
X72393095Y-98143095D01*
X73535952Y-98285952D02*
X73440714Y-98238333D01*
X73393095Y-98190714D01*
X73345476Y-98095476D01*
X73345476Y-98047857D01*
X73393095Y-97952619D01*
X73440714Y-97905000D01*
X73535952Y-97857381D01*
X73726429Y-97857381D01*
X73821667Y-97905000D01*
X73869286Y-97952619D01*
X73916905Y-98047857D01*
X73916905Y-98095476D01*
X73869286Y-98190714D01*
X73821667Y-98238333D01*
X73726429Y-98285952D01*
X73535952Y-98285952D01*
X73440714Y-98333571D01*
X73393095Y-98381190D01*
X73345476Y-98476429D01*
X73345476Y-98666905D01*
X73393095Y-98762143D01*
X73440714Y-98809762D01*
X73535952Y-98857381D01*
X73726429Y-98857381D01*
X73821667Y-98809762D01*
X73869286Y-98762143D01*
X73916905Y-98666905D01*
X73916905Y-98476429D01*
X73869286Y-98381190D01*
X73821667Y-98333571D01*
X73726429Y-98285952D01*
X91125714Y-98857381D02*
X91125714Y-97857381D01*
X91363809Y-97857381D01*
X91506667Y-97905000D01*
X91601905Y-98000238D01*
X91649524Y-98095476D01*
X91697143Y-98285952D01*
X91697143Y-98428810D01*
X91649524Y-98619286D01*
X91601905Y-98714524D01*
X91506667Y-98809762D01*
X91363809Y-98857381D01*
X91125714Y-98857381D01*
X92649524Y-98857381D02*
X92078095Y-98857381D01*
X92363809Y-98857381D02*
X92363809Y-97857381D01*
X92268571Y-98000238D01*
X92173333Y-98095476D01*
X92078095Y-98143095D01*
X93125714Y-98857381D02*
X93316190Y-98857381D01*
X93411429Y-98809762D01*
X93459048Y-98762143D01*
X93554286Y-98619286D01*
X93601905Y-98428810D01*
X93601905Y-98047857D01*
X93554286Y-97952619D01*
X93506667Y-97905000D01*
X93411429Y-97857381D01*
X93220952Y-97857381D01*
X93125714Y-97905000D01*
X93078095Y-97952619D01*
X93030476Y-98047857D01*
X93030476Y-98285952D01*
X93078095Y-98381190D01*
X93125714Y-98428810D01*
X93220952Y-98476429D01*
X93411429Y-98476429D01*
X93506667Y-98428810D01*
X93554286Y-98381190D01*
X93601905Y-98285952D01*
X62550714Y-117907381D02*
X62550714Y-116907381D01*
X62788809Y-116907381D01*
X62931667Y-116955000D01*
X63026905Y-117050238D01*
X63074524Y-117145476D01*
X63122143Y-117335952D01*
X63122143Y-117478810D01*
X63074524Y-117669286D01*
X63026905Y-117764524D01*
X62931667Y-117859762D01*
X62788809Y-117907381D01*
X62550714Y-117907381D01*
X63503095Y-117002619D02*
X63550714Y-116955000D01*
X63645952Y-116907381D01*
X63884048Y-116907381D01*
X63979286Y-116955000D01*
X64026905Y-117002619D01*
X64074524Y-117097857D01*
X64074524Y-117193095D01*
X64026905Y-117335952D01*
X63455476Y-117907381D01*
X64074524Y-117907381D01*
X65026905Y-117907381D02*
X64455476Y-117907381D01*
X64741190Y-117907381D02*
X64741190Y-116907381D01*
X64645952Y-117050238D01*
X64550714Y-117145476D01*
X64455476Y-117193095D01*
X91125714Y-117907381D02*
X91125714Y-116907381D01*
X91363809Y-116907381D01*
X91506667Y-116955000D01*
X91601905Y-117050238D01*
X91649524Y-117145476D01*
X91697143Y-117335952D01*
X91697143Y-117478810D01*
X91649524Y-117669286D01*
X91601905Y-117764524D01*
X91506667Y-117859762D01*
X91363809Y-117907381D01*
X91125714Y-117907381D01*
X92078095Y-117002619D02*
X92125714Y-116955000D01*
X92220952Y-116907381D01*
X92459048Y-116907381D01*
X92554286Y-116955000D01*
X92601905Y-117002619D01*
X92649524Y-117097857D01*
X92649524Y-117193095D01*
X92601905Y-117335952D01*
X92030476Y-117907381D01*
X92649524Y-117907381D01*
X92982857Y-116907381D02*
X93601905Y-116907381D01*
X93268571Y-117288333D01*
X93411429Y-117288333D01*
X93506667Y-117335952D01*
X93554286Y-117383571D01*
X93601905Y-117478810D01*
X93601905Y-117716905D01*
X93554286Y-117812143D01*
X93506667Y-117859762D01*
X93411429Y-117907381D01*
X93125714Y-117907381D01*
X93030476Y-117859762D01*
X92982857Y-117812143D01*
X107000714Y-125527381D02*
X107000714Y-124527381D01*
X107238809Y-124527381D01*
X107381667Y-124575000D01*
X107476905Y-124670238D01*
X107524524Y-124765476D01*
X107572143Y-124955952D01*
X107572143Y-125098810D01*
X107524524Y-125289286D01*
X107476905Y-125384524D01*
X107381667Y-125479762D01*
X107238809Y-125527381D01*
X107000714Y-125527381D01*
X107953095Y-124622619D02*
X108000714Y-124575000D01*
X108095952Y-124527381D01*
X108334048Y-124527381D01*
X108429286Y-124575000D01*
X108476905Y-124622619D01*
X108524524Y-124717857D01*
X108524524Y-124813095D01*
X108476905Y-124955952D01*
X107905476Y-125527381D01*
X108524524Y-125527381D01*
X109381667Y-124860714D02*
X109381667Y-125527381D01*
X109143571Y-124479762D02*
X108905476Y-125194048D01*
X109524524Y-125194048D01*
D13*
X110609857Y-113584524D02*
X110609857Y-112314524D01*
X111117857Y-113221667D01*
X111625857Y-112314524D01*
X111625857Y-113584524D01*
X112206428Y-112314524D02*
X113222428Y-113584524D01*
X113222428Y-112314524D02*
X112206428Y-113584524D01*
X113730429Y-112435476D02*
X113803000Y-112375000D01*
X113948143Y-112314524D01*
X114311000Y-112314524D01*
X114456143Y-112375000D01*
X114528714Y-112435476D01*
X114601286Y-112556429D01*
X114601286Y-112677381D01*
X114528714Y-112858810D01*
X113657857Y-113584524D01*
X114601286Y-113584524D01*
X115907572Y-112737857D02*
X115907572Y-113584524D01*
X115544715Y-112254048D02*
X115181858Y-113161190D01*
X116125286Y-113161190D01*
D11*
X119025905Y-123336667D02*
X119502096Y-123336667D01*
X118930667Y-123622381D02*
X119264000Y-122622381D01*
X119597334Y-123622381D01*
X113414095Y-123622381D02*
X113414095Y-122622381D01*
X113985524Y-123622381D02*
X113556952Y-123050952D01*
X113985524Y-122622381D02*
X113414095Y-123193810D01*
D13*
X110609857Y-75484524D02*
X110609857Y-74214524D01*
X111117857Y-75121667D01*
X111625857Y-74214524D01*
X111625857Y-75484524D01*
X112206428Y-74214524D02*
X113222428Y-75484524D01*
X113222428Y-74214524D02*
X112206428Y-75484524D01*
X114601286Y-75484524D02*
X113730429Y-75484524D01*
X114165857Y-75484524D02*
X114165857Y-74214524D01*
X114020714Y-74395952D01*
X113875572Y-74516905D01*
X113730429Y-74577381D01*
X115907572Y-74214524D02*
X115617286Y-74214524D01*
X115472143Y-74275000D01*
X115399572Y-74335476D01*
X115254429Y-74516905D01*
X115181858Y-74758810D01*
X115181858Y-75242619D01*
X115254429Y-75363571D01*
X115327001Y-75424048D01*
X115472143Y-75484524D01*
X115762429Y-75484524D01*
X115907572Y-75424048D01*
X115980143Y-75363571D01*
X116052715Y-75242619D01*
X116052715Y-74940238D01*
X115980143Y-74819286D01*
X115907572Y-74758810D01*
X115762429Y-74698333D01*
X115472143Y-74698333D01*
X115327001Y-74758810D01*
X115254429Y-74819286D01*
X115181858Y-74940238D01*
D11*
X119025905Y-85236667D02*
X119502096Y-85236667D01*
X118930667Y-85522381D02*
X119264000Y-84522381D01*
X119597334Y-85522381D01*
X113414095Y-85522381D02*
X113414095Y-84522381D01*
X113985524Y-85522381D02*
X113556952Y-84950952D01*
X113985524Y-84522381D02*
X113414095Y-85093810D01*
D13*
X91559857Y-104059524D02*
X91559857Y-102789524D01*
X92067857Y-103696667D01*
X92575857Y-102789524D01*
X92575857Y-104059524D01*
X93156428Y-102789524D02*
X94172428Y-104059524D01*
X94172428Y-102789524D02*
X93156428Y-104059524D01*
X95551286Y-104059524D02*
X94680429Y-104059524D01*
X95115857Y-104059524D02*
X95115857Y-102789524D01*
X94970714Y-102970952D01*
X94825572Y-103091905D01*
X94680429Y-103152381D01*
X96277001Y-104059524D02*
X96567286Y-104059524D01*
X96712429Y-103999048D01*
X96785001Y-103938571D01*
X96930143Y-103757143D01*
X97002715Y-103515238D01*
X97002715Y-103031429D01*
X96930143Y-102910476D01*
X96857572Y-102850000D01*
X96712429Y-102789524D01*
X96422143Y-102789524D01*
X96277001Y-102850000D01*
X96204429Y-102910476D01*
X96131858Y-103031429D01*
X96131858Y-103333810D01*
X96204429Y-103454762D01*
X96277001Y-103515238D01*
X96422143Y-103575714D01*
X96712429Y-103575714D01*
X96857572Y-103515238D01*
X96930143Y-103454762D01*
X97002715Y-103333810D01*
D11*
X99975905Y-113811667D02*
X100452096Y-113811667D01*
X99880667Y-114097381D02*
X100214000Y-113097381D01*
X100547334Y-114097381D01*
X94364095Y-114097381D02*
X94364095Y-113097381D01*
X94935524Y-114097381D02*
X94506952Y-113525952D01*
X94935524Y-113097381D02*
X94364095Y-113668810D01*
D13*
X91559857Y-123109524D02*
X91559857Y-121839524D01*
X92067857Y-122746667D01*
X92575857Y-121839524D01*
X92575857Y-123109524D01*
X93156428Y-121839524D02*
X94172428Y-123109524D01*
X94172428Y-121839524D02*
X93156428Y-123109524D01*
X94680429Y-121960476D02*
X94753000Y-121900000D01*
X94898143Y-121839524D01*
X95261000Y-121839524D01*
X95406143Y-121900000D01*
X95478714Y-121960476D01*
X95551286Y-122081429D01*
X95551286Y-122202381D01*
X95478714Y-122383810D01*
X94607857Y-123109524D01*
X95551286Y-123109524D01*
X96059286Y-121839524D02*
X97002715Y-121839524D01*
X96494715Y-122323333D01*
X96712429Y-122323333D01*
X96857572Y-122383810D01*
X96930143Y-122444286D01*
X97002715Y-122565238D01*
X97002715Y-122867619D01*
X96930143Y-122988571D01*
X96857572Y-123049048D01*
X96712429Y-123109524D01*
X96277001Y-123109524D01*
X96131858Y-123049048D01*
X96059286Y-122988571D01*
D11*
X99975905Y-132861667D02*
X100452096Y-132861667D01*
X99880667Y-133147381D02*
X100214000Y-132147381D01*
X100547334Y-133147381D01*
X94364095Y-133147381D02*
X94364095Y-132147381D01*
X94935524Y-133147381D02*
X94506952Y-132575952D01*
X94935524Y-132147381D02*
X94364095Y-132718810D01*
D13*
X72509857Y-104059524D02*
X72509857Y-102789524D01*
X73017857Y-103696667D01*
X73525857Y-102789524D01*
X73525857Y-104059524D01*
X74106428Y-102789524D02*
X75122428Y-104059524D01*
X75122428Y-102789524D02*
X74106428Y-104059524D01*
X76501286Y-104059524D02*
X75630429Y-104059524D01*
X76065857Y-104059524D02*
X76065857Y-102789524D01*
X75920714Y-102970952D01*
X75775572Y-103091905D01*
X75630429Y-103152381D01*
X77372143Y-103333810D02*
X77227001Y-103273333D01*
X77154429Y-103212857D01*
X77081858Y-103091905D01*
X77081858Y-103031429D01*
X77154429Y-102910476D01*
X77227001Y-102850000D01*
X77372143Y-102789524D01*
X77662429Y-102789524D01*
X77807572Y-102850000D01*
X77880143Y-102910476D01*
X77952715Y-103031429D01*
X77952715Y-103091905D01*
X77880143Y-103212857D01*
X77807572Y-103273333D01*
X77662429Y-103333810D01*
X77372143Y-103333810D01*
X77227001Y-103394286D01*
X77154429Y-103454762D01*
X77081858Y-103575714D01*
X77081858Y-103817619D01*
X77154429Y-103938571D01*
X77227001Y-103999048D01*
X77372143Y-104059524D01*
X77662429Y-104059524D01*
X77807572Y-103999048D01*
X77880143Y-103938571D01*
X77952715Y-103817619D01*
X77952715Y-103575714D01*
X77880143Y-103454762D01*
X77807572Y-103394286D01*
X77662429Y-103333810D01*
D11*
X80925905Y-113811667D02*
X81402096Y-113811667D01*
X80830667Y-114097381D02*
X81164000Y-113097381D01*
X81497334Y-114097381D01*
X75314095Y-114097381D02*
X75314095Y-113097381D01*
X75885524Y-114097381D02*
X75456952Y-113525952D01*
X75885524Y-113097381D02*
X75314095Y-113668810D01*
D13*
X53459857Y-104059524D02*
X53459857Y-102789524D01*
X53967857Y-103696667D01*
X54475857Y-102789524D01*
X54475857Y-104059524D01*
X55056428Y-102789524D02*
X56072428Y-104059524D01*
X56072428Y-102789524D02*
X55056428Y-104059524D01*
X57451286Y-104059524D02*
X56580429Y-104059524D01*
X57015857Y-104059524D02*
X57015857Y-102789524D01*
X56870714Y-102970952D01*
X56725572Y-103091905D01*
X56580429Y-103152381D01*
X57959286Y-102789524D02*
X58975286Y-102789524D01*
X58322143Y-104059524D01*
D11*
X61875905Y-113811667D02*
X62352096Y-113811667D01*
X61780667Y-114097381D02*
X62114000Y-113097381D01*
X62447334Y-114097381D01*
X56264095Y-114097381D02*
X56264095Y-113097381D01*
X56835524Y-114097381D02*
X56406952Y-113525952D01*
X56835524Y-113097381D02*
X56264095Y-113668810D01*
D13*
X91559857Y-85009524D02*
X91559857Y-83739524D01*
X92067857Y-84646667D01*
X92575857Y-83739524D01*
X92575857Y-85009524D01*
X93156428Y-83739524D02*
X94172428Y-85009524D01*
X94172428Y-83739524D02*
X93156428Y-85009524D01*
X95551286Y-85009524D02*
X94680429Y-85009524D01*
X95115857Y-85009524D02*
X95115857Y-83739524D01*
X94970714Y-83920952D01*
X94825572Y-84041905D01*
X94680429Y-84102381D01*
X96930143Y-83739524D02*
X96204429Y-83739524D01*
X96131858Y-84344286D01*
X96204429Y-84283810D01*
X96349572Y-84223333D01*
X96712429Y-84223333D01*
X96857572Y-84283810D01*
X96930143Y-84344286D01*
X97002715Y-84465238D01*
X97002715Y-84767619D01*
X96930143Y-84888571D01*
X96857572Y-84949048D01*
X96712429Y-85009524D01*
X96349572Y-85009524D01*
X96204429Y-84949048D01*
X96131858Y-84888571D01*
D11*
X99975905Y-94761667D02*
X100452096Y-94761667D01*
X99880667Y-95047381D02*
X100214000Y-94047381D01*
X100547334Y-95047381D01*
X94364095Y-95047381D02*
X94364095Y-94047381D01*
X94935524Y-95047381D02*
X94506952Y-94475952D01*
X94935524Y-94047381D02*
X94364095Y-94618810D01*
D13*
X72509857Y-85009524D02*
X72509857Y-83739524D01*
X73017857Y-84646667D01*
X73525857Y-83739524D01*
X73525857Y-85009524D01*
X74106428Y-83739524D02*
X75122428Y-85009524D01*
X75122428Y-83739524D02*
X74106428Y-85009524D01*
X76501286Y-85009524D02*
X75630429Y-85009524D01*
X76065857Y-85009524D02*
X76065857Y-83739524D01*
X75920714Y-83920952D01*
X75775572Y-84041905D01*
X75630429Y-84102381D01*
X77807572Y-84162857D02*
X77807572Y-85009524D01*
X77444715Y-83679048D02*
X77081858Y-84586190D01*
X78025286Y-84586190D01*
D11*
X80925905Y-94761667D02*
X81402096Y-94761667D01*
X80830667Y-95047381D02*
X81164000Y-94047381D01*
X81497334Y-95047381D01*
X75314095Y-95047381D02*
X75314095Y-94047381D01*
X75885524Y-95047381D02*
X75456952Y-94475952D01*
X75885524Y-94047381D02*
X75314095Y-94618810D01*
D13*
X53459857Y-85009524D02*
X53459857Y-83739524D01*
X53967857Y-84646667D01*
X54475857Y-83739524D01*
X54475857Y-85009524D01*
X55056428Y-83739524D02*
X56072428Y-85009524D01*
X56072428Y-83739524D02*
X55056428Y-85009524D01*
X57451286Y-85009524D02*
X56580429Y-85009524D01*
X57015857Y-85009524D02*
X57015857Y-83739524D01*
X56870714Y-83920952D01*
X56725572Y-84041905D01*
X56580429Y-84102381D01*
X57959286Y-83739524D02*
X58902715Y-83739524D01*
X58394715Y-84223333D01*
X58612429Y-84223333D01*
X58757572Y-84283810D01*
X58830143Y-84344286D01*
X58902715Y-84465238D01*
X58902715Y-84767619D01*
X58830143Y-84888571D01*
X58757572Y-84949048D01*
X58612429Y-85009524D01*
X58177001Y-85009524D01*
X58031858Y-84949048D01*
X57959286Y-84888571D01*
D11*
X61875905Y-94761667D02*
X62352096Y-94761667D01*
X61780667Y-95047381D02*
X62114000Y-94047381D01*
X62447334Y-95047381D01*
X56264095Y-95047381D02*
X56264095Y-94047381D01*
X56835524Y-95047381D02*
X56406952Y-94475952D01*
X56835524Y-94047381D02*
X56264095Y-94618810D01*
D13*
X91559857Y-65959524D02*
X91559857Y-64689524D01*
X92067857Y-65596667D01*
X92575857Y-64689524D01*
X92575857Y-65959524D01*
X93156428Y-64689524D02*
X94172428Y-65959524D01*
X94172428Y-64689524D02*
X93156428Y-65959524D01*
X95551286Y-65959524D02*
X94680429Y-65959524D01*
X95115857Y-65959524D02*
X95115857Y-64689524D01*
X94970714Y-64870952D01*
X94825572Y-64991905D01*
X94680429Y-65052381D01*
X97002715Y-65959524D02*
X96131858Y-65959524D01*
X96567286Y-65959524D02*
X96567286Y-64689524D01*
X96422143Y-64870952D01*
X96277001Y-64991905D01*
X96131858Y-65052381D01*
D11*
X99975905Y-75711667D02*
X100452096Y-75711667D01*
X99880667Y-75997381D02*
X100214000Y-74997381D01*
X100547334Y-75997381D01*
X94364095Y-75997381D02*
X94364095Y-74997381D01*
X94935524Y-75997381D02*
X94506952Y-75425952D01*
X94935524Y-74997381D02*
X94364095Y-75568810D01*
D13*
X72509857Y-65959524D02*
X72509857Y-64689524D01*
X73017857Y-65596667D01*
X73525857Y-64689524D01*
X73525857Y-65959524D01*
X74106428Y-64689524D02*
X75122428Y-65959524D01*
X75122428Y-64689524D02*
X74106428Y-65959524D01*
X76501286Y-65959524D02*
X75630429Y-65959524D01*
X76065857Y-65959524D02*
X76065857Y-64689524D01*
X75920714Y-64870952D01*
X75775572Y-64991905D01*
X75630429Y-65052381D01*
X77444715Y-64689524D02*
X77589858Y-64689524D01*
X77735001Y-64750000D01*
X77807572Y-64810476D01*
X77880143Y-64931429D01*
X77952715Y-65173333D01*
X77952715Y-65475714D01*
X77880143Y-65717619D01*
X77807572Y-65838571D01*
X77735001Y-65899048D01*
X77589858Y-65959524D01*
X77444715Y-65959524D01*
X77299572Y-65899048D01*
X77227001Y-65838571D01*
X77154429Y-65717619D01*
X77081858Y-65475714D01*
X77081858Y-65173333D01*
X77154429Y-64931429D01*
X77227001Y-64810476D01*
X77299572Y-64750000D01*
X77444715Y-64689524D01*
D11*
X80925905Y-75711667D02*
X81402096Y-75711667D01*
X80830667Y-75997381D02*
X81164000Y-74997381D01*
X81497334Y-75997381D01*
X75314095Y-75997381D02*
X75314095Y-74997381D01*
X75885524Y-75997381D02*
X75456952Y-75425952D01*
X75885524Y-74997381D02*
X75314095Y-75568810D01*
D13*
X53550571Y-65959524D02*
X53550571Y-64689524D01*
X54058571Y-65596667D01*
X54566571Y-64689524D01*
X54566571Y-65959524D01*
X55147142Y-64689524D02*
X56163142Y-65959524D01*
X56163142Y-64689524D02*
X55147142Y-65959524D01*
X56816286Y-65959524D02*
X57106571Y-65959524D01*
X57251714Y-65899048D01*
X57324286Y-65838571D01*
X57469428Y-65657143D01*
X57542000Y-65415238D01*
X57542000Y-64931429D01*
X57469428Y-64810476D01*
X57396857Y-64750000D01*
X57251714Y-64689524D01*
X56961428Y-64689524D01*
X56816286Y-64750000D01*
X56743714Y-64810476D01*
X56671143Y-64931429D01*
X56671143Y-65233810D01*
X56743714Y-65354762D01*
X56816286Y-65415238D01*
X56961428Y-65475714D01*
X57251714Y-65475714D01*
X57396857Y-65415238D01*
X57469428Y-65354762D01*
X57542000Y-65233810D01*
D11*
X61875905Y-75711667D02*
X62352096Y-75711667D01*
X61780667Y-75997381D02*
X62114000Y-74997381D01*
X62447334Y-75997381D01*
X56264095Y-75997381D02*
X56264095Y-74997381D01*
X56835524Y-75997381D02*
X56406952Y-75425952D01*
X56835524Y-74997381D02*
X56264095Y-75568810D01*
D13*
X110700571Y-46909524D02*
X110700571Y-45639524D01*
X111208571Y-46546667D01*
X111716571Y-45639524D01*
X111716571Y-46909524D01*
X112297142Y-45639524D02*
X113313142Y-46909524D01*
X113313142Y-45639524D02*
X112297142Y-46909524D01*
X114111428Y-46183810D02*
X113966286Y-46123333D01*
X113893714Y-46062857D01*
X113821143Y-45941905D01*
X113821143Y-45881429D01*
X113893714Y-45760476D01*
X113966286Y-45700000D01*
X114111428Y-45639524D01*
X114401714Y-45639524D01*
X114546857Y-45700000D01*
X114619428Y-45760476D01*
X114692000Y-45881429D01*
X114692000Y-45941905D01*
X114619428Y-46062857D01*
X114546857Y-46123333D01*
X114401714Y-46183810D01*
X114111428Y-46183810D01*
X113966286Y-46244286D01*
X113893714Y-46304762D01*
X113821143Y-46425714D01*
X113821143Y-46667619D01*
X113893714Y-46788571D01*
X113966286Y-46849048D01*
X114111428Y-46909524D01*
X114401714Y-46909524D01*
X114546857Y-46849048D01*
X114619428Y-46788571D01*
X114692000Y-46667619D01*
X114692000Y-46425714D01*
X114619428Y-46304762D01*
X114546857Y-46244286D01*
X114401714Y-46183810D01*
D11*
X119025905Y-56661667D02*
X119502096Y-56661667D01*
X118930667Y-56947381D02*
X119264000Y-55947381D01*
X119597334Y-56947381D01*
X113414095Y-56947381D02*
X113414095Y-55947381D01*
X113985524Y-56947381D02*
X113556952Y-56375952D01*
X113985524Y-55947381D02*
X113414095Y-56518810D01*
D13*
X91650571Y-46909524D02*
X91650571Y-45639524D01*
X92158571Y-46546667D01*
X92666571Y-45639524D01*
X92666571Y-46909524D01*
X93247142Y-45639524D02*
X94263142Y-46909524D01*
X94263142Y-45639524D02*
X93247142Y-46909524D01*
X94698571Y-45639524D02*
X95714571Y-45639524D01*
X95061428Y-46909524D01*
D11*
X99975905Y-56661667D02*
X100452096Y-56661667D01*
X99880667Y-56947381D02*
X100214000Y-55947381D01*
X100547334Y-56947381D01*
X94364095Y-56947381D02*
X94364095Y-55947381D01*
X94935524Y-56947381D02*
X94506952Y-56375952D01*
X94935524Y-55947381D02*
X94364095Y-56518810D01*
D13*
X53550571Y-46909524D02*
X53550571Y-45639524D01*
X54058571Y-46546667D01*
X54566571Y-45639524D01*
X54566571Y-46909524D01*
X55147142Y-45639524D02*
X56163142Y-46909524D01*
X56163142Y-45639524D02*
X55147142Y-46909524D01*
X57469428Y-45639524D02*
X56743714Y-45639524D01*
X56671143Y-46244286D01*
X56743714Y-46183810D01*
X56888857Y-46123333D01*
X57251714Y-46123333D01*
X57396857Y-46183810D01*
X57469428Y-46244286D01*
X57542000Y-46365238D01*
X57542000Y-46667619D01*
X57469428Y-46788571D01*
X57396857Y-46849048D01*
X57251714Y-46909524D01*
X56888857Y-46909524D01*
X56743714Y-46849048D01*
X56671143Y-46788571D01*
D11*
X61875905Y-56661667D02*
X62352096Y-56661667D01*
X61780667Y-56947381D02*
X62114000Y-55947381D01*
X62447334Y-56947381D01*
X56264095Y-56947381D02*
X56264095Y-55947381D01*
X56835524Y-56947381D02*
X56406952Y-56375952D01*
X56835524Y-55947381D02*
X56264095Y-56518810D01*
D13*
X110700571Y-27859524D02*
X110700571Y-26589524D01*
X111208571Y-27496667D01*
X111716571Y-26589524D01*
X111716571Y-27859524D01*
X112297142Y-26589524D02*
X113313142Y-27859524D01*
X113313142Y-26589524D02*
X112297142Y-27859524D01*
X114546857Y-27012857D02*
X114546857Y-27859524D01*
X114184000Y-26529048D02*
X113821143Y-27436190D01*
X114764571Y-27436190D01*
D11*
X119025905Y-37611667D02*
X119502096Y-37611667D01*
X118930667Y-37897381D02*
X119264000Y-36897381D01*
X119597334Y-37897381D01*
X113414095Y-37897381D02*
X113414095Y-36897381D01*
X113985524Y-37897381D02*
X113556952Y-37325952D01*
X113985524Y-36897381D02*
X113414095Y-37468810D01*
D13*
X91650571Y-27859524D02*
X91650571Y-26589524D01*
X92158571Y-27496667D01*
X92666571Y-26589524D01*
X92666571Y-27859524D01*
X93247142Y-26589524D02*
X94263142Y-27859524D01*
X94263142Y-26589524D02*
X93247142Y-27859524D01*
X94698571Y-26589524D02*
X95642000Y-26589524D01*
X95134000Y-27073333D01*
X95351714Y-27073333D01*
X95496857Y-27133810D01*
X95569428Y-27194286D01*
X95642000Y-27315238D01*
X95642000Y-27617619D01*
X95569428Y-27738571D01*
X95496857Y-27799048D01*
X95351714Y-27859524D01*
X94916286Y-27859524D01*
X94771143Y-27799048D01*
X94698571Y-27738571D01*
D11*
X99975905Y-37611667D02*
X100452096Y-37611667D01*
X99880667Y-37897381D02*
X100214000Y-36897381D01*
X100547334Y-37897381D01*
X94364095Y-37897381D02*
X94364095Y-36897381D01*
X94935524Y-37897381D02*
X94506952Y-37325952D01*
X94935524Y-36897381D02*
X94364095Y-37468810D01*
D13*
X72600571Y-27859524D02*
X72600571Y-26589524D01*
X73108571Y-27496667D01*
X73616571Y-26589524D01*
X73616571Y-27859524D01*
X74197142Y-26589524D02*
X75213142Y-27859524D01*
X75213142Y-26589524D02*
X74197142Y-27859524D01*
X75721143Y-26710476D02*
X75793714Y-26650000D01*
X75938857Y-26589524D01*
X76301714Y-26589524D01*
X76446857Y-26650000D01*
X76519428Y-26710476D01*
X76592000Y-26831429D01*
X76592000Y-26952381D01*
X76519428Y-27133810D01*
X75648571Y-27859524D01*
X76592000Y-27859524D01*
D11*
X80925905Y-37611667D02*
X81402096Y-37611667D01*
X80830667Y-37897381D02*
X81164000Y-36897381D01*
X81497334Y-37897381D01*
X75314095Y-37897381D02*
X75314095Y-36897381D01*
X75885524Y-37897381D02*
X75456952Y-37325952D01*
X75885524Y-36897381D02*
X75314095Y-37468810D01*
D13*
X53550571Y-27859524D02*
X53550571Y-26589524D01*
X54058571Y-27496667D01*
X54566571Y-26589524D01*
X54566571Y-27859524D01*
X55147142Y-26589524D02*
X56163142Y-27859524D01*
X56163142Y-26589524D02*
X55147142Y-27859524D01*
X57542000Y-27859524D02*
X56671143Y-27859524D01*
X57106571Y-27859524D02*
X57106571Y-26589524D01*
X56961428Y-26770952D01*
X56816286Y-26891905D01*
X56671143Y-26952381D01*
D11*
X61875905Y-37611667D02*
X62352096Y-37611667D01*
X61780667Y-37897381D02*
X62114000Y-36897381D01*
X62447334Y-37897381D01*
X56264095Y-37897381D02*
X56264095Y-36897381D01*
X56835524Y-37897381D02*
X56406952Y-37325952D01*
X56835524Y-36897381D02*
X56264095Y-37468810D01*
D13*
X72600571Y-46909524D02*
X72600571Y-45639524D01*
X73108571Y-46546667D01*
X73616571Y-45639524D01*
X73616571Y-46909524D01*
X74197142Y-45639524D02*
X75213142Y-46909524D01*
X75213142Y-45639524D02*
X74197142Y-46909524D01*
X76446857Y-45639524D02*
X76156571Y-45639524D01*
X76011428Y-45700000D01*
X75938857Y-45760476D01*
X75793714Y-45941905D01*
X75721143Y-46183810D01*
X75721143Y-46667619D01*
X75793714Y-46788571D01*
X75866286Y-46849048D01*
X76011428Y-46909524D01*
X76301714Y-46909524D01*
X76446857Y-46849048D01*
X76519428Y-46788571D01*
X76592000Y-46667619D01*
X76592000Y-46365238D01*
X76519428Y-46244286D01*
X76446857Y-46183810D01*
X76301714Y-46123333D01*
X76011428Y-46123333D01*
X75866286Y-46183810D01*
X75793714Y-46244286D01*
X75721143Y-46365238D01*
D11*
X80925905Y-56661667D02*
X81402096Y-56661667D01*
X80830667Y-56947381D02*
X81164000Y-55947381D01*
X81497334Y-56947381D01*
X75314095Y-56947381D02*
X75314095Y-55947381D01*
X75885524Y-56947381D02*
X75456952Y-56375952D01*
X75885524Y-55947381D02*
X75314095Y-56518810D01*
D13*
X62984857Y-123109524D02*
X62984857Y-121839524D01*
X63492857Y-122746667D01*
X64000857Y-121839524D01*
X64000857Y-123109524D01*
X64581428Y-121839524D02*
X65597428Y-123109524D01*
X65597428Y-121839524D02*
X64581428Y-123109524D01*
X66105429Y-121960476D02*
X66178000Y-121900000D01*
X66323143Y-121839524D01*
X66686000Y-121839524D01*
X66831143Y-121900000D01*
X66903714Y-121960476D01*
X66976286Y-122081429D01*
X66976286Y-122202381D01*
X66903714Y-122383810D01*
X66032857Y-123109524D01*
X66976286Y-123109524D01*
X68427715Y-123109524D02*
X67556858Y-123109524D01*
X67992286Y-123109524D02*
X67992286Y-121839524D01*
X67847143Y-122020952D01*
X67702001Y-122141905D01*
X67556858Y-122202381D01*
D11*
X71400905Y-132861667D02*
X71877096Y-132861667D01*
X71305667Y-133147381D02*
X71639000Y-132147381D01*
X71972334Y-133147381D01*
X65789095Y-133147381D02*
X65789095Y-132147381D01*
X66360524Y-133147381D02*
X65931952Y-132575952D01*
X66360524Y-132147381D02*
X65789095Y-132718810D01*
M02*
