M48
;DRILL file {KiCad 4.0.2-stable} date Tuesday, March 29, 2016 'PMt' 06:04:07 PM
;FORMAT={-:-/ absolute / metric / decimal}
FMAT,2
METRIC,TZ
T1C0.305
T2C0.800
T3C1.000
T4C1.001
T5C1.270
T6C1.499
T7C1.702
T8C3.048
T9C3.988
%
G90
G05
M71
T1
X57.669Y-41.636
X57.796Y-79.736
X66.559Y-39.223
X66.559Y-54.717
X66.559Y-73.894
X66.559Y-92.944
X66.559Y-111.994
X67.829Y-47.859
X68.337Y-27.031
X68.464Y-28.047
X68.464Y-60.686
X68.464Y-124.567
X69.099Y-80.498
X69.353Y-28.936
X69.734Y-117.074
X70.623Y-35.032
X71.385Y-34.397
X71.385Y-129.647
X78.751Y-40.874
X84.085Y-73.767
X84.085Y-111.867
X84.212Y-35.794
X84.466Y-44.811
X84.847Y-82.911
X84.847Y-121.011
X85.609Y-75.672
X85.609Y-113.772
X85.863Y-36.81
X86.244Y-122.535
X86.371Y-24.618
X86.371Y-46.335
X86.371Y-84.308
X86.625Y-60.559
X86.879Y-43.541
X86.879Y-47.541
X86.879Y-75.164
X86.879Y-85.07
X86.879Y-113.645
X87.387Y-24.745
X87.514Y-42.779
X87.514Y-54.59
X87.514Y-122.789
X87.57Y-75.855
X87.641Y-72.878
X87.641Y-84.308
X87.641Y-94.595
X87.641Y-132.695
X87.768Y-110.851
X87.775Y-113.653
X88.212Y-75.1
X88.276Y-40.81
X88.276Y-56.495
X88.276Y-73.767
X88.657Y-41.509
X88.657Y-43.414
X88.911Y-46.271
X88.911Y-58.019
X88.911Y-122.789
X88.911Y-130.536
X89.165Y-40.874
X89.546Y-46.843
X89.546Y-59.797
X89.546Y-84.308
X89.546Y-122.281
X89.99Y-36.302
X90.181Y-40.62
X90.181Y-75.418
X90.181Y-113.645
X91.197Y-36.302
X91.324Y-47.351
X93.229Y-23.856
X94.245Y-23.856
X94.88Y-34.524
X105.294Y-33.508
X105.421Y-58.527
X105.421Y-77.577
X105.421Y-95.611
X107.326Y-59.797
X107.961Y-60.559
X113.168Y-37.699
T2
X87.895Y-21.57
X87.895Y-29.19
X87.895Y-31.73
X87.895Y-36.81
X90.435Y-21.57
X92.975Y-21.57
X95.515Y-21.57
X98.055Y-21.57
X100.595Y-21.57
X103.135Y-21.57
X105.675Y-21.57
X105.675Y-36.81
X108.215Y-21.57
X108.215Y-36.81
X110.755Y-21.57
X113.295Y-21.57
X118.375Y-24.11
T3
X58.05Y-37.445
X58.05Y-56.495
X58.05Y-75.545
X58.05Y-94.595
X58.05Y-113.645
X60.59Y-37.445
X60.59Y-56.495
X60.59Y-75.545
X60.59Y-94.595
X60.59Y-113.645
X67.575Y-132.695
X70.115Y-132.695
X77.1Y-37.445
X77.1Y-56.495
X77.1Y-75.545
X77.1Y-94.595
X77.1Y-113.645
X79.64Y-37.445
X79.64Y-56.495
X79.64Y-75.545
X79.64Y-94.595
X79.64Y-113.645
X96.15Y-37.445
X96.15Y-56.495
X96.15Y-75.545
X96.15Y-94.595
X96.15Y-113.645
X96.15Y-132.695
X98.69Y-37.445
X98.69Y-56.495
X98.69Y-75.545
X98.69Y-94.595
X98.69Y-113.645
X98.69Y-132.695
X115.2Y-37.445
X115.2Y-56.495
X115.2Y-85.07
X115.2Y-123.17
X117.74Y-37.445
X117.74Y-56.495
X117.74Y-85.07
X117.74Y-123.17
T4
X54.24Y-24.107
X54.24Y-43.157
X54.24Y-62.207
X54.24Y-81.257
X54.24Y-100.307
X63.765Y-119.357
X72.274Y-81.257
X72.401Y-43.284
X72.401Y-62.207
X72.401Y-100.307
X73.925Y-24.107
X92.34Y-40.617
X92.34Y-43.157
X92.34Y-62.207
X92.34Y-81.257
X92.34Y-100.307
X92.34Y-119.357
X108.212Y-85.07
X108.212Y-123.17
X111.39Y-40.617
X111.39Y-43.157
T5
X64.4Y-24.107
X64.4Y-43.157
X64.4Y-62.207
X64.4Y-81.257
X64.4Y-100.307
X73.925Y-119.357
X82.434Y-81.257
X82.561Y-43.284
X82.561Y-62.207
X82.561Y-100.307
X84.085Y-24.107
X102.5Y-40.617
X102.5Y-43.157
X102.5Y-62.207
X102.5Y-81.257
X102.5Y-100.307
X102.5Y-119.357
X108.212Y-74.91
X108.212Y-113.01
X121.55Y-40.617
X121.55Y-43.157
T6
X55.51Y-29.825
X55.51Y-48.875
X55.51Y-67.925
X55.51Y-86.975
X55.51Y-106.025
X61.86Y-27.285
X61.86Y-46.335
X61.86Y-65.385
X61.86Y-84.435
X61.86Y-103.485
X65.035Y-125.075
X71.385Y-122.535
X74.56Y-29.825
X74.56Y-48.875
X74.56Y-67.925
X74.56Y-86.975
X74.56Y-106.025
X80.91Y-27.285
X80.91Y-46.335
X80.91Y-65.385
X80.91Y-84.435
X80.91Y-103.485
X93.61Y-29.825
X93.61Y-48.875
X93.61Y-67.925
X93.61Y-86.975
X93.61Y-106.025
X93.61Y-125.075
X99.96Y-27.285
X99.96Y-46.335
X99.96Y-65.385
X99.96Y-84.435
X99.96Y-103.485
X99.96Y-122.535
X112.66Y-29.825
X112.66Y-48.875
X112.66Y-77.45
X112.66Y-115.55
X119.01Y-27.285
X119.01Y-46.335
X119.01Y-74.91
X119.01Y-113.01
T7
X54.24Y-32.365
X54.24Y-51.415
X54.24Y-70.465
X54.24Y-89.515
X54.24Y-108.565
X63.765Y-127.615
X64.4Y-32.365
X64.4Y-51.415
X64.4Y-70.465
X64.4Y-89.515
X64.4Y-108.565
X73.29Y-32.365
X73.29Y-51.415
X73.29Y-70.465
X73.29Y-89.515
X73.29Y-108.565
X73.925Y-127.615
X83.45Y-32.365
X83.45Y-51.415
X83.45Y-70.465
X83.45Y-89.515
X83.45Y-108.565
X92.34Y-32.365
X92.34Y-51.415
X92.34Y-70.465
X92.34Y-89.515
X92.34Y-108.565
X92.34Y-127.615
X102.5Y-32.365
X102.5Y-51.415
X102.5Y-70.465
X102.5Y-89.515
X102.5Y-108.565
X102.5Y-127.615
X111.39Y-32.365
X111.39Y-51.415
X111.39Y-79.99
X111.39Y-118.09
X121.55Y-32.365
X121.55Y-51.415
X121.55Y-79.99
X121.55Y-118.09
T8
X56.907Y-134.6
X80.783Y-134.6
X123.455Y-68.052
X123.455Y-91.928
X123.455Y-106.152
X123.455Y-130.028
T9
X56.907Y-119.36
X59.32Y-32.365
X59.32Y-51.415
X59.32Y-70.465
X59.32Y-89.515
X59.32Y-108.565
X68.845Y-127.615
X78.37Y-32.365
X78.37Y-51.415
X78.37Y-70.465
X78.37Y-89.515
X78.37Y-108.565
X80.783Y-119.36
X97.42Y-32.365
X97.42Y-51.415
X97.42Y-70.465
X97.42Y-89.515
X97.42Y-108.565
X97.42Y-127.615
X108.215Y-68.052
X108.215Y-91.928
X108.215Y-106.152
X108.215Y-130.028
X116.47Y-32.365
X116.47Y-51.415
X116.47Y-79.99
X116.47Y-118.09
T0
M30
